{
.formatVersion = 3;
classes = (
{
code = "zero one two three four five six seven eight nine A B C D E F G H I J K L M N O P Q R S T U V W X Y Z uni0410 uni0411 uni0412 uni0413 uni0414 uni0415 uni0416 uni0417 uni0418 uni0419 uni041A uni041B uni041C uni041D uni041E uni041F uni0420 uni0421 uni0422 uni0423 uni0424 uni0425 uni0426 uni0427 uni0428 uni0429 uni042A uni042B uni042C uni042D uni042E uni042F uni0401 K_alt W_alt Acircumflex Adieresis Ccedilla Ecircumflex Icircumflex Odieresis Udieresis Abreve Idotaccent Scedilla uni0162 uni0218 uni021A uni04C1";
name = calt1;
},
{
code = "o a c d e g q s u y t acircumflex adieresis ccedilla ecircumflex odieresis udieresis u_alt y_alt s_alt c_alt t_alt t2.alt g_alt a_alt abreve scedilla uni0163 uni0219 uni021B uni0430 uni0431 uni0435 uni0437 uni043E uni0441 uni0444 uni044D uni0451 space zero one three five six seven eight nine f v endash emdash uni00AD hyphen.uc uni00AD.uc endash.uc emdash.uc minus hyphen t0163.alt t021b.alt a2_alt a00E2.alt a00E4.alt a0103.alt";
name = calt2;
},
{
code = "uniE000 uniE001 uniE002 uniE003 uniE004 uniE005 uniE006 uniE007 uniE008 uniE009 uniE010 uniE011 uniE012 uniE013 uniE014 uniE015 uniE016 uniE017 uniE018 uniE019 uniE020 uniE021 uniE022";
name = tnum1;
},
{
code = "zero one two three four five six seven eight nine period comma colon semicolon quotesingle quotedbl quoteright quotedblright quoteleft quotedblleft quotesinglbase quotedblbase colon.uc";
name = pnum1;
}
);
familyName = Onest;
customParameters = (
{
name = glyphOrder;
value = (
.notdef,
uni0000,
uni000D,
space,
B,
D,
E,
F,
H,
I,
L,
M,
N,
P,
R,
U,
V,
W,
X,
Y,
Z,
b,
d,
h,
i,
l,
m,
n,
p,
q,
u,
v,
w,
x,
z,
period,
comma,
A,
breve,
circumflex,
uni0326,
abreve,
acircumflex,
Abreve,
Acircumflex,
Icircumflex,
exclam,
quotedbl,
quotesingle,
numbersign,
percent,
asterisk,
plus,
slash,
colon,
semicolon,
less,
equal,
greater,
at,
bracketleft,
bracketright,
backslash,
asciicircum,
underscore,
braceleft,
bar,
braceright,
Euro,
quotedblbase,

glyphs = (
{
glyphname = .notdef;
layers = (
{
layerId = "1EFDAA9E-0693-44A2-9347-F36F1AB053F3";
shapes = (
{
closed = 1;
nodes = (
(20,960,l),
(520,960,l),
(520,-295,l),
(20,-295,l)
);
},
{
closed = 1;
nodes = (
(30,-285,l),
(510,-285,l),
(510,950,l),
(30,950,l)
);
}
);
width = 540;
}
);
},
{
glyphname = B;
layers = (
{
layerId = "1EFDAA9E-0693-44A2-9347-F36F1AB053F3";
shapes = (
{
closed = 1;
nodes = (
(86,707,l),
(334,707,ls),
(402,707,o),
(457,702,o),
(501,673,cs),
(540,648,o),
(570,602,o),
(570,530,cs),
(570,458,o),
(538,399,o),
(470,372,c),
(561,356,o),
(606,297,o),
(606,201,cs),
(606,117,o),
(566,64,o),
(514,36,cs),
(462,8,o),
(394,0,o),
(329,0,cs),
(86,0,l)
);
},
{
closed = 1;
nodes = (
(173,628,l),
(173,397,l),
(309,397,ls),
(346,397,o),
(389,401,o),
(421,418,cs),
(458,437,o),
(485,467,o),
(485,524,cs),
(486,615,o),
(415,628,o),
(335,628,cs)
);
},
{
closed = 1;
nodes = (
(326,79,ls),
(408,79,o),
(518,88,o),
(518,201,cs),
(518,297,o),
(439,319,o),
(358,319,cs),
(173,319,l),
(173,79,l)
);
}
);
width = 655;
}
);
leftKerningGroup = _kern1;
unicode = 66;
},
{
glyphname = D;
layers = (
{
layerId = "1EFDAA9E-0693-44A2-9347-F36F1AB053F3";
shapes = (
{
closed = 1;
nodes = (
(87,707,l),
(338,707,ls),
(558,707,o),
(671,565,o),
(671,353,cs),
(671,142,o),
(559,0,o),
(338,0,cs),
(87,0,l)
);
},
{
closed = 1;
nodes = (
(174,628,l),
(174,79,l),
(332,79,ls),
(503,79,o),
(582,191,o),
(582,353,cs),
(582,510,o),
(505,628,o),
(337,628,cs)
);
}
);
width = 720;
}
);
leftKerningGroup = _kern1;
rightKerningGroup = _kern4;
unicode = 68;
},
{
glyphname = E;
layers = (
{
layerId = "1EFDAA9E-0693-44A2-9347-F36F1AB053F3";
shapes = (
{
closed = 1;
nodes = (
(87,707,l),
(562,707,l),
(562,628,l),
(174,628,l),
(174,390,l),
(523,390,l),
(523,310,l),
(174,310,l),
(174,79,l),
(562,79,l),
(562,0,l),
(87,0,l)
);
}
);
width = 610;
}
);
leftKerningGroup = _kern1;
unicode = 69;
},
{
glyphname = F;
layers = (
{
layerId = "1EFDAA9E-0693-44A2-9347-F36F1AB053F3";
shapes = (
{
closed = 1;
nodes = (
(87,0,l),
(87,707,l),
(562,707,l),
(562,628,l),
(174,628,l),
(174,363,l),
(513,363,l),
(513,283,l),
(174,283,l),
(174,0,l)
);
}
);
width = 599;
}
);
leftKerningGroup = _kern1;
unicode = 70;
},
{
glyphname = H;
layers = (
{
layerId = "1EFDAA9E-0693-44A2-9347-F36F1AB053F3";
shapes = (
{
closed = 1;
nodes = (
(553,387,l),
(553,707,l),
(640,707,l),
(640,0,l),
(553,0,l),
(553,307,l),
(174,307,l),
(174,0,l),
(87,0,l),
(87,707,l),
(174,707,l),
(174,387,l)
);
}
);
width = 727;
}
);
leftKerningGroup = _kern1;
rightKerningGroup = _kern2;
unicode = 72;
},
{
glyphname = I;
layers = (
{
layerId = "1EFDAA9E-0693-44A2-9347-F36F1AB053F3";
shapes = (
{
closed = 1;
nodes = (
(174,0,l),
(87,0,l),
(87,707,l),
(174,707,l)
);
}
);
width = 261;
}
);
leftKerningGroup = _kern1;
rightKerningGroup = _kern2;
unicode = 73;
},
{
glyphname = L;
layers = (
{
layerId = "1EFDAA9E-0693-44A2-9347-F36F1AB053F3";
shapes = (
{
closed = 1;
nodes = (
(87,707,l),
(174,707,l),
(174,79,l),
(562,79,l),
(562,0,l),
(87,0,l)
);
}
);
width = 574;
}
);
unicode = 76;
},
{
glyphname = M;
layers = (
{
layerId = "1EFDAA9E-0693-44A2-9347-F36F1AB053F3";
shapes = (
{
closed = 1;
nodes = (
(87,0,l),
(87,707,l),
(219,707,l),
(431,318,l),
(640,707,l),
(769,707,l),
(769,0,l),
(682,0,l),
(682,615,l),
(449,185,l),
(409,185,l),
(174,615,l),
(174,0,l)
);
}
);
width = 856;
}
);
leftKerningGroup = _kern1;
rightKerningGroup = _kern2;
unicode = 77;
},
{
glyphname = N;
layers = (
{
layerId = "1EFDAA9E-0693-44A2-9347-F36F1AB053F3";
shapes = (
{
closed = 1;
nodes = (
(87,0,l),
(87,707,l),
(198,707,l),
(567,118,l),
(567,707,l),
(654,707,l),
(654,0,l),
(545,0,l),
(174,587,l),
(174,0,l)
);
}
);
width = 741;
}
);
leftKerningGroup = _kern1;
rightKerningGroup = _kern2;
unicode = 78;
},
{
glyphname = P;
layers = (
{
layerId = "1EFDAA9E-0693-44A2-9347-F36F1AB053F3";
shapes = (
{
closed = 1;
nodes = (
(87,707,l),
(332,707,ls),
(488,707,o),
(581,632,o),
(581,472,cs),
(581,391,o),
(551,329,o),
(500,289,cs),
(457,254,o),
(391,233,o),
(314,233,cs),
(174,233,l),
(174,0,l),
(87,0,l)
);
},
{
closed = 1;
nodes = (
(310,312,ls),
(361,312,o),
(412,324,o),
(443,352,cs),
(474,379,o),
(492,415,o),
(492,476,cs),
(492,577,o),
(437,628,o),
(328,628,cs),
(174,628,l),
(174,312,l)
);
}
);
width = 630;
}
);
leftKerningGroup = _kern1;
unicode = 80;
},
{
glyphname = R;
layers = (
{
layerId = "1EFDAA9E-0693-44A2-9347-F36F1AB053F3";
shapes = (
{
closed = 1;
nodes = (
(174,265,l),
(174,0,l),
(87,0,l),
(87,707,l),
(352,707,ls),
(508,707,o),
(605,647,o),
(605,486,cs),
(605,368,o),
(531,304,o),
(447,280,c),
(595,0,l),
(500,0,l),
(359,265,l)
);
},
{
closed = 1;
nodes = (
(324,344,ls),
(428,344,o),
(514,369,o),
(516,489,cs),
(517,590,o),
(455,628,o),
(343,628,cs),
(174,628,l),
(174,344,l)
);
}
);
width = 658;
}
);
leftKerningGroup = _kern1;
unicode = 82;
},
{
glyphname = U;
layers = (
{
layerId = "1EFDAA9E-0693-44A2-9347-F36F1AB053F3";
shapes = (
{
closed = 1;
nodes = (
(644,707,l),
(644,305,ls),
(644,127,o),
(560,-8,o),
(363,-8,cs),
(165,-8,o),
(82,125,o),
(82,305,cs),
(82,707,l),
(169,707,l),
(169,306,ls),
(169,177,o),
(219,71,o),
(364,71,cs),
(509,71,o),
(556,178,o),
(556,306,cs),
(556,707,l)
);
}
);
width = 726;
}
);
unicode = 85;
},
{
glyphname = V;
layers = (
{
layerId = "1EFDAA9E-0693-44A2-9347-F36F1AB053F3";
shapes = (
{
closed = 1;
nodes = (
(109,707,l),
(342,75,l),
(575,707,l),
(669,707,l),
(405,0,l),
(279,0,l),
(14,707,l)
);
}
);
width = 683;
}
);
unicode = 86;
},
{
glyphname = W;
layers = (
{
layerId = "1EFDAA9E-0693-44A2-9347-F36F1AB053F3";
shapes = (
{
closed = 1;
nodes = (
(560,707,l),
(714,75,l),
(875,707,l),
(969,707,l),
(777,0,l),
(645,0,l),
(491,624,l),
(337,0,l),
(206,0,l),
(14,707,l),
(112,707,l),
(273,75,l),
(427,707,l)
);
}
);
width = 983;
}
);
leftKerningGroup = _kern19;
rightKerningGroup = _kern19;
unicode = 87;
},
{
glyphname = X;
layers = (
{
layerId = "1EFDAA9E-0693-44A2-9347-F36F1AB053F3";
shapes = (
{
closed = 1;
nodes = (
(466,707,l),
(571,707,l),
(351,356,l),
(579,0,l),
(474,0,l),
(296,283,l),
(116,0,l),
(14,0,l),
(241,353,l),
(21,707,l),
(127,707,l),
(297,425,l)
);
}
);
width = 593;
}
);
unicode = 88;
},
{
glyphname = Y;
layers = (
{
layerId = "1EFDAA9E-0693-44A2-9347-F36F1AB053F3";
shapes = (
{
closed = 1;
nodes = (
(501,707,l),
(600,707,l),
(351,266,l),
(351,0,l),
(264,0,l),
(264,265,l),
(14,707,l),
(115,707,l),
(309,353,l)
);
}
);
width = 614;
}
);
leftKerningGroup = _kern31;
rightKerningGroup = _kern31;
unicode = 89;
},
{
glyphname = Z;
layers = (
{
layerId = "1EFDAA9E-0693-44A2-9347-F36F1AB053F3";
shapes = (
{
closed = 1;
nodes = (
(57,628,l),
(57,707,l),
(553,707,l),
(553,639,l),
(156,79,l),
(546,79,l),
(546,0,l),
(44,0,l),
(44,69,l),
(436,628,l)
);
}
);
width = 597;
}
);
unicode = 90;
},
{
glyphname = b;
layers = (
{
layerId = "1EFDAA9E-0693-44A2-9347-F36F1AB053F3";
shapes = (
{
closed = 1;
nodes = (
(67,0,l),
(67,707,l),
(152,707,l),
(152,451,l),
(187,504,o),
(258,533,o),
(326,533,cs),
(486,533,o),
(557,417,o),
(557,265,cs),
(557,114,o),
(481,-6,o),
(316,-6,cs),
(244,-6,o),
(187,21,o),
(152,64,c),
(148,0,l)
);
},
{
closed = 1;
nodes = (
(430,69,o),
(472,157,o),
(472,263,cs),
(472,370,o),
(429,457,o),
(313,457,cs),
(208,457,o),
(150,356,o),
(150,262,cs),
(150,159,o),
(197,69,o),
(315,69,cs)
);
}
);
width = 604;
}
);
rightKerningGroup = _kern6;
unicode = 98;
},
{
glyphname = d;
layers = (
{
layerId = "1EFDAA9E-0693-44A2-9347-F36F1AB053F3";
shapes = (
{
closed = 1;
nodes = (
(537,0,l),
(456,0,l),
(452,79,l),
(416,19,o),
(347,-6,o),
(278,-6,cs),
(120,-6,o),
(47,110,o),
(47,262,cs),
(47,414,o),
(120,533,o),
(282,533,cs),
(343,533,o),
(412,512,o),
(452,461,c),
(452,707,l),
(537,707,l)
);
},
{
closed = 1;
nodes = (
(174,457,o),
(132,371,o),
(132,261,cs),
(132,155,o),
(173,69,o),
(290,69,cs),
(358,69,o),
(400,105,o),
(427,153,cs),
(446,186,o),
(453,227,o),
(453,266,cs),
(453,314,o),
(446,353,o),
(423,388,cs),
(396,427,o),
(353,457,o),
(289,457,cs)
);
}
);
width = 604;
}
);
leftKerningGroup = _kern5;
unicode = 100;
},
{
glyphname = h;
layers = (
{
layerId = "1EFDAA9E-0693-44A2-9347-F36F1AB053F3";
shapes = (
{
closed = 1;
nodes = (
(67,0,l),
(67,707,l),
(152,707,l),
(152,446,l),
(189,502,o),
(257,533,o),
(327,533,cs),
(480,533,o),
(527,429,o),
(527,290,cs),
(527,0,l),
(442,0,l),
(442,264,ls),
(442,358,o),
(428,458,o),
(309,458,cs),
(193,458,o),
(152,343,o),
(152,246,cs),
(152,0,l)
);
}
);
width = 591;
}
);
unicode = 104;
},
{
glyphname = i;
layers = (
{
layerId = "1EFDAA9E-0693-44A2-9347-F36F1AB053F3";
shapes = (
{
closed = 1;
nodes = (
(148,720,o),
(174,697,o),
(174,664,cs),
(174,631,o),
(148,607,o),
(116,607,cs),
(83,607,o),
(59,631,o),
(59,664,cs),
(59,697,o),
(83,720,o),
(116,720,cs)
);
},
{
closed = 1;
nodes = (
(74,0,l),
(74,527,l),
(159,527,l),
(159,0,l)
);
}
);
width = 233;
}
);
unicode = 105;
},
{
glyphname = l;
layers = (
{
layerId = "1EFDAA9E-0693-44A2-9347-F36F1AB053F3";
shapes = (
{
closed = 1;
nodes = (
(67,0,l),
(67,707,l),
(152,707,l),
(152,0,l)
);
}
);
width = 219;
}
);
unicode = 108;
},
{
glyphname = m;
layers = (
{
layerId = "1EFDAA9E-0693-44A2-9347-F36F1AB053F3";
shapes = (
{
closed = 1;
nodes = (
(153,464,l),
(186,511,o),
(236,533,o),
(296,533,cs),
(369,533,o),
(413,499,o),
(436,448,c),
(472,501,o),
(524,533,o),
(596,533,cs),
(712,533,o),
(757,451,o),
(757,345,cs),
(757,0,l),
(672,0,l),
(672,302,ls),
(672,370,o),
(665,458,o),
(573,458,cs),
(485,458,o),
(455,363,o),
(455,287,cs),
(455,0,l),
(370,0,l),
(370,303,ls),
(370,370,o),
(366,458,o),
(275,458,cs),
(179,458,o),
(152,361,o),
(152,286,cs),
(152,0,l),
(67,0,l),
(67,527,l),
(149,527,l)
);
}
);
width = 819;
}
);
unicode = 109;
},
{
glyphname = n;
layers = (
{
layerId = "1EFDAA9E-0693-44A2-9347-F36F1AB053F3";
shapes = (
{
closed = 1;
nodes = (
(67,0,l),
(67,527,l),
(149,527,l),
(153,447,l),
(188,505,o),
(261,533,o),
(326,533,cs),
(479,533,o),
(527,428,o),
(527,291,cs),
(527,0,l),
(442,0,l),
(442,268,ls),
(442,366,o),
(425,458,o),
(314,458,cs),
(261,458,o),
(216,428,o),
(191,393,cs),
(160,349,o),
(152,294,o),
(152,241,cs),
(152,0,l)
);
}
);
width = 591;
}
);
unicode = 110;
},
{
glyphname = p;
layers = (
{
layerId = "1EFDAA9E-0693-44A2-9347-F36F1AB053F3";
shapes = (
{
closed = 1;
nodes = (
(67,-190,l),
(67,527,l),
(148,527,l),
(152,448,l),
(188,503,o),
(254,532,o),
(326,533,c),
(485,533,o),
(557,416,o),
(557,263,cs),
(557,109,o),
(484,-6,o),
(322,-6,cs),
(242,-6,o),
(187,21,o),
(152,66,c),
(152,-190,l)
);
},
{
closed = 1;
nodes = (
(430,69,o),
(472,157,o),
(472,263,cs),
(472,370,o),
(429,457,o),
(313,457,cs),
(245,457,o),
(194,416,o),
(169,360,c),
(154,329,o),
(150,297,o),
(150,262,cs),
(150,222,o),
(154,189,o),
(169,158,cs),
(194,107,o),
(243,69,o),
(315,69,cs)
);
}
);
width = 604;
}
);
rightKerningGroup = _kern6;
unicode = 112;
},
{
glyphname = q;
layers = (
{
layerId = "1EFDAA9E-0693-44A2-9347-F36F1AB053F3";
shapes = (
{
closed = 1;
nodes = (
(537,-190,l),
(452,-190,l),
(452,79,l),
(417,18,o),
(347,-6,o),
(278,-6,cs),
(117,-6,o),
(47,110,o),
(47,262,cs),
(47,414,o),
(120,533,o),
(282,533,cs),
(343,533,o),
(412,512,o),
(452,461,c),
(456,527,l),
(537,527,l)
);
},
{
closed = 1;
nodes = (
(174,457,o),
(132,370,o),
(132,263,cs),
(132,204,o),
(142,161,o),
(167,126,cs),
(192,91,o),
(231,69,o),
(290,69,cs),
(358,69,o),
(400,105,o),
(427,153,cs),
(446,186,o),
(453,226,o),
(453,266,cs),
(453,314,o),
(446,353,o),
(423,388,cs),
(396,427,o),
(353,457,o),
(289,457,cs)
);
}
);
width = 604;
}
);
leftKerningGroup = _kern5;
unicode = 113;
},
{
glyphname = u;
layers = (
{
layerId = "1EFDAA9E-0693-44A2-9347-F36F1AB053F3";
shapes = (
{
closed = 1;
nodes = (
(383,69,o),
(426,130,o),
(426,234,cs),
(426,527,l),
(511,527,l),
(511,230,ls),
(511,70,o),
(432,-6,o),
(287,-6,cs),
(142,-6,o),
(65,70,o),
(65,230,cs),
(65,527,l),
(150,527,l),
(150,234,ls),
(150,130,o),
(195,69,o),
(287,69,cs)
);
}
);
width = 576;
}
);
unicode = 117;
},
{
glyphname = v;
layers = (
{
layerId = "1EFDAA9E-0693-44A2-9347-F36F1AB053F3";
shapes = (
{
closed = 1;
nodes = (
(7,527,l),
(103,527,l),
(269,82,l),
(432,527,l),
(529,527,l),
(326,0,l),
(210,0,l)
);
}
);
width = 536;
}
);
unicode = 118;
},
{
glyphname = w;
layers = (
{
layerId = "1EFDAA9E-0693-44A2-9347-F36F1AB053F3";
shapes = (
{
closed = 1;
nodes = (
(12,527,l),
(108,527,l),
(234,82,l),
(364,527,l),
(479,527,l),
(610,82,l),
(734,527,l),
(831,527,l),
(667,0,l),
(551,0,l),
(421,427,l),
(291,0,l),
(176,0,l)
);
}
);
width = 843;
}
);
leftKerningGroup = _kern20;
rightKerningGroup = _kern20;
unicode = 119;
},
{
glyphname = x;
layers = (
{
layerId = "1EFDAA9E-0693-44A2-9347-F36F1AB053F3";
shapes = (
{
closed = 1;
nodes = (
(254,201,l),
(110,0,l),
(14,0,l),
(202,269,l),
(23,527,l),
(125,527,l),
(259,327,l),
(389,527,l),
(488,527,l),
(310,266,l),
(501,0,l),
(400,0,l)
);
}
);
width = 515;
}
);
unicode = 120;
},
{
glyphname = z;
layers = (
{
layerId = "1EFDAA9E-0693-44A2-9347-F36F1AB053F3";
shapes = (
{
closed = 1;
nodes = (
(471,456,l),
(153,74,l),
(471,74,l),
(471,0,l),
(47,0,l),
(47,72,l),
(362,452,l),
(47,452,l),
(47,527,l),
(471,527,l)
);
}
);
width = 518;
}
);
unicode = 122;
},
{
glyphname = period;
layers = (
{
layerId = "1EFDAA9E-0693-44A2-9347-F36F1AB053F3";
shapes = (
{
closed = 1;
nodes = (
(162,112,o),
(187,87,o),
(187,52,cs),
(187,17,o),
(162,-8,o),
(127,-8,cs),
(92,-8,o),
(67,17,o),
(67,52,cs),
(67,87,o),
(92,112,o),
(127,112,cs)
);
}
);
width = 254;
}
);
leftKerningGroup = _kern14;
rightKerningGroup = _kern14;
unicode = 46;
},
{
glyphname = comma;
layers = (
{
layerId = "1EFDAA9E-0693-44A2-9347-F36F1AB053F3";
shapes = (
{
closed = 1;
nodes = (
(93,1,o),
(70,22,o),
(70,55,c),
(71,90,o),
(98,112,o),
(129,112,cs),
(168,112,o),
(193,83,o),
(193,32,cs),
(193,-28,o),
(144,-102,o),
(91,-121,c),
(67,-88,l),
(94,-69,o),
(120,-34,o),
(128,-2,c)
);
}
);
width = 261;
}
);
leftKerningGroup = _kern14;
rightKerningGroup = _kern14;
unicode = 44;
},
{
glyphname = A;
layers = (
{
layerId = "1EFDAA9E-0693-44A2-9347-F36F1AB053F3";
shapes = (
{
closed = 1;
nodes = (
(566,0,l),
(510,152,l),
(160,152,l),
(104,0,l),
(10,0,l),
(273,707,l),
(398,707,l),
(660,0,l)
);
},
{
closed = 1;
nodes = (
(335,631,l),
(189,231,l),
(481,231,l)
);
}
);
width = 670;
}
);
leftKerningGroup = _kern30;
rightKerningGroup = _kern30;
unicode = 65;
},
{
glyphname = breve;
layers = (
{
layerId = "1EFDAA9E-0693-44A2-9347-F36F1AB053F3";
shapes = (
{
closed = 1;
nodes = (
(340,667,o),
(374,687,o),
(377,734,c),
(455,734,l),
(452,647,o),
(388,601,o),
(283,601,cs),
(178,601,o),
(116,647,o),
(113,734,c),
(191,734,l),
(194,687,o),
(228,667,o),
(284,667,cs)
);
}
);
width = 569;
}
);
unicode = 728;
},
{
glyphname = circumflex;
layers = (
{
layerId = "1EFDAA9E-0693-44A2-9347-F36F1AB053F3";
shapes = (
{
closed = 1;
nodes = (
(309,769,l),
(443,606,l),
(357,606,l),
(279,702,l),
(201,606,l),
(116,606,l),
(249,769,l)
);
}
);
width = 559;
}
);
unicode = 710;
},
{
glyphname = uni0326;
layers = (
{
layerId = "1EFDAA9E-0693-44A2-9347-F36F1AB053F3";
shapes = (
{
closed = 1;
nodes = (
(-334,-212,o),
(-357,-191,o),
(-357,-158,cs),
(-357,-121,o),
(-329,-100,o),
(-297,-100,cs),
(-253,-100,o),
(-233,-138,o),
(-234,-179,cs),
(-236,-246,o),
(-282,-315,o),
(-336,-334,c),
(-360,-301,l),
(-333,-282,o),
(-307,-247,o),
(-299,-215,c)
);
}
);
width = 0;
}
);
unicode = 806;
},
{
glyphname = abreve;
layers = (
{
layerId = "1EFDAA9E-0693-44A2-9347-F36F1AB053F3";
shapes = (
{
closed = 1;
nodes = (
(340,667,o),
(373,684,o),
(376,740,c),
(454,740,l),
(454,737,ls),
(454,646,o),
(388,604,o),
(289,604,cs),
(180,604,o),
(118,643,o),
(118,740,c),
(196,740,l),
(196,684,o),
(230,667,o),
(287,667,cs)
);
},
{
closed = 1;
nodes = (
(414,67,l),
(369,7,o),
(298,-6,o),
(236,-6,cs),
(138,-6,o),
(49,46,o),
(49,150,cs),
(49,271,o),
(144,309,o),
(252,309,cs),
(407,309,l),
(407,398,o),
(372,457,o),
(280,457,cs),
(224,457,o),
(178,440,o),
(162,397,c),
(71,397,l),
(89,492,o),
(190,533,o),
(280,533,c),
(359,534,o),
(412,505,o),
(445,463,cs),
(478,421,o),
(490,360,o),
(490,285,cs),
(490,0,l),
(419,0,l)
);
},
{
closed = 1;
nodes = (
(314,238,ls),
(282,238,o),
(237,239,o),
(198,231,cs),
(159,223,o),
(134,197,o),
(134,156,cs),
(134,96,o),
(187,69,o),
(244,69,cs),
(344,69,o),
(406,119,o),
(407,212,c),
(407,238,l)
);
}
);
width = 555;
}
);
leftKerningGroup = _kern27;
rightKerningGroup = _kern27;
unicode = 259;
},
{
glyphname = acircumflex;
layers = (
{
layerId = "1EFDAA9E-0693-44A2-9347-F36F1AB053F3";
shapes = (
{
closed = 1;
nodes = (
(414,67,l),
(369,7,o),
(298,-6,o),
(236,-6,cs),
(138,-6,o),
(49,46,o),
(49,150,cs),
(49,271,o),
(144,309,o),
(252,309,cs),
(407,309,l),
(407,398,o),
(372,456,o),
(280,457,cs),
(224,457,o),
(178,440,o),
(162,397,c),
(71,397,l),
(89,492,o),
(190,532,o),
(280,533,cs),
(359,533,o),
(412,505,o),
(445,463,cs),
(478,421,o),
(490,360,o),
(490,285,cs),
(490,0,l),
(419,0,l)
);
},
{
closed = 1;
nodes = (
(314,238,ls),
(282,238,o),
(237,239,o),
(198,231,cs),
(159,223,o),
(134,197,o),
(134,156,cs),
(134,96,o),
(187,69,o),
(244,69,cs),
(344,69,o),
(406,119,o),
(407,212,c),
(407,238,l)
);
},
{
closed = 1;
nodes = (
(313,769,l),
(447,606,l),
(361,606,l),
(283,702,l),
(205,606,l),
(120,606,l),
(253,769,l)
);
}
);
width = 555;
}
);
leftKerningGroup = _kern27;
rightKerningGroup = _kern27;
unicode = 226;
},
{
glyphname = Abreve;
layers = (
{
layerId = "1EFDAA9E-0693-44A2-9347-F36F1AB053F3";
shapes = (
{
closed = 1;
nodes = (
(660,0,l),
(566,0,l),
(510,152,l),
(160,152,l),
(104,0,l),
(10,0,l),
(273,707,l),
(398,707,l)
);
},
{
closed = 1;
nodes = (
(481,231,l),
(335,631,l),
(189,231,l)
);
},
{
closed = 1;
nodes = (
(393,860,o),
(427,880,o),
(430,927,c),
(508,927,l),
(505,840,o),
(441,794,o),
(336,794,cs),
(231,794,o),
(169,840,o),
(166,927,c),
(244,927,l),
(247,880,o),
(281,860,o),
(337,860,cs)
);
}
);
width = 670;
}
);
unicode = 258;
},
{
glyphname = Acircumflex;
layers = (
{
layerId = "1EFDAA9E-0693-44A2-9347-F36F1AB053F3";
shapes = (
{
closed = 1;
nodes = (
(660,0,l),
(566,0,l),
(510,152,l),
(160,152,l),
(104,0,l),
(10,0,l),
(273,707,l),
(398,707,l)
);
},
{
closed = 1;
nodes = (
(481,231,l),
(335,631,l),
(189,231,l)
);
},
{
closed = 1;
nodes = (
(369,949,l),
(503,786,l),
(417,786,l),
(339,883,l),
(261,786,l),
(176,786,l),
(309,949,l)
);
}
);
width = 670;
}
);
leftKerningGroup = _kern30;
rightKerningGroup = _kern30;
unicode = 194;
},
{
glyphname = Icircumflex;
layers = (
{
layerId = "1EFDAA9E-0693-44A2-9347-F36F1AB053F3";
shapes = (
{
closed = 1;
nodes = (
(133,982,l),
(276,792,l),
(190,792,l),
(103,914,l),
(16,792,l),
(-69,792,l),
(73,982,l)
);
},
{
closed = 1;
nodes = (
(147,0,l),
(60,0,l),
(60,707,l),
(147,707,l)
);
}
);
width = 207;
}
);
leftKerningGroup = _kern1;
rightKerningGroup = _kern2;
unicode = 206;
},
{
glyphname = exclam;
layers = (
{
layerId = "1EFDAA9E-0693-44A2-9347-F36F1AB053F3";
shapes = (
{
closed = 1;
nodes = (
(99,220,l),
(87,707,l),
(184,707,l),
(172,220,l)
);
},
{
closed = 1;
nodes = (
(169,112,o),
(196,87,o),
(196,52,cs),
(196,17,o),
(169,-8,o),
(136,-8,cs),
(101,-8,o),
(77,17,o),
(77,52,cs),
(77,87,o),
(101,112,o),
(136,112,cs)
);
}
);
width = 273;
}
);
unicode = 33;
},
{
glyphname = quotedbl;
layers = (
{
layerId = "1EFDAA9E-0693-44A2-9347-F36F1AB053F3";
shapes = (
{
closed = 1;
nodes = (
(134,471,l),
(72,471,l),
(59,707,l),
(147,707,l)
);
},
{
closed = 1;
nodes = (
(287,471,l),
(225,471,l),
(212,707,l),
(300,707,l)
);
}
);
width = 359;
}
);
unicode = 34;
},
{
glyphname = quotesingle;
layers = (
{
layerId = "1EFDAA9E-0693-44A2-9347-F36F1AB053F3";
shapes = (
{
closed = 1;
nodes = (
(142,471,l),
(80,471,l),
(67,707,l),
(155,707,l)
);
}
);
width = 222;
}
);
unicode = 39;
},
{
glyphname = numbersign;
layers = (
{
layerId = "1EFDAA9E-0693-44A2-9347-F36F1AB053F3";
shapes = (
{
closed = 1;
nodes = (
(193,527,l),
(211,707,l),
(296,707,l),
(277,527,l),
(413,527,l),
(433,707,l),
(517,707,l),
(498,527,l),
(594,527,l),
(594,448,l),
(489,448,l),
(469,259,l),
(565,259,l),
(565,179,l),
(460,179,l),
(441,0,l),
(357,0,l),
(376,179,l),
(239,179,l),
(220,0,l),
(135,0,l),
(155,179,l),
(59,179,l),
(59,259,l),
(163,259,l),
(184,448,l),
(88,448,l),
(88,527,l)
);
},
{
closed = 1;
nodes = (
(247,259,l),
(384,259,l),
(405,448,l),
(268,448,l)
);
}
);
width = 653;
}
);
unicode = 35;
},
{
glyphname = percent;
layers = (
{
layerId = "1EFDAA9E-0693-44A2-9347-F36F1AB053F3";
shapes = (
{
closed = 1;
nodes = (
(109,402,o),
(59,471,o),
(59,559,cs),
(59,650,o),
(110,715,o),
(205,715,cs),
(298,715,o),
(349,651,o),
(349,559,cs),
(349,471,o),
(298,402,o),
(205,402,cs)
);
},
{
closed = 1;
nodes = (
(139,0,l),
(574,707,l),
(662,707,l),
(228,0,l)
);
},
{
closed = 1;
nodes = (
(152,644,o),
(131,603,o),
(131,559,cs),
(131,512,o),
(152,473,o),
(205,473,cs),
(256,473,o),
(275,514,o),
(275,559,cs),
(275,603,o),
(256,644,o),
(205,644,cs)
);
},
{
closed = 1;
nodes = (
(505,-6,o),
(454,63,o),
(454,151,cs),
(454,242,o),
(506,307,o),
(601,307,cs),
(693,307,o),
(745,242,o),
(745,151,cs),
(745,63,o),
(693,-6,o),
(601,-6,cs)
);
},
{
closed = 1;
nodes = (
(547,236,o),
(527,195,o),
(527,151,cs),
(527,104,o),
(548,65,o),
(600,65,cs),
(652,65,o),
(670,106,o),
(670,151,cs),
(670,195,o),
(652,236,o),
(600,236,cs)
);
}
);
width = 804;
}
);
unicode = 37;
},
{
glyphname = asterisk;
layers = (
{
layerId = "1EFDAA9E-0693-44A2-9347-F36F1AB053F3";
shapes = (
{
closed = 1;
nodes = (
(236,730,l),
(236,633,l),
(327,663,l),
(345,609,l),
(253,579,l),
(310,501,l),
(264,467,l),
(207,545,l),
(150,467,l),
(104,501,l),
(161,579,l),
(69,609,l),
(86,663,l),
(178,633,l),
(178,730,l)
);
}
);
width = 414;
}
);
unicode = 42;
},
{
glyphname = plus;
layers = (
{
layerId = "1EFDAA9E-0693-44A2-9347-F36F1AB053F3";
shapes = (
{
closed = 1;
nodes = (
(74,392,l),
(221,392,l),
(221,547,l),
(299,547,l),
(299,392,l),
(447,392,l),
(447,315,l),
(299,315,l),
(299,160,l),
(221,160,l),
(221,315,l),
(74,315,l)
);
}
);
width = 521;
}
);
unicode = 43;
},
{
glyphname = slash;
layers = (
{
layerId = "1EFDAA9E-0693-44A2-9347-F36F1AB053F3";
shapes = (
{
closed = 1;
nodes = (
(348,801,l),
(438,801,l),
(129,-168,l),
(39,-168,l)
);
}
);
width = 477;
}
);
unicode = 47;
},
{
glyphname = colon;
layers = (
{
layerId = "1EFDAA9E-0693-44A2-9347-F36F1AB053F3";
shapes = (
{
closed = 1;
nodes = (
(162,468,o),
(186,443,o),
(186,408,cs),
(186,372,o),
(159,348,o),
(126,348,cs),
(91,348,o),
(67,373,o),
(67,408,cs),
(67,443,o),
(91,468,o),
(126,468,cs)
);
},
{
closed = 1;
nodes = (
(162,112,o),
(186,87,o),
(186,52,cs),
(186,17,o),
(159,-8,o),
(126,-8,cs),
(91,-8,o),
(67,17,o),
(67,52,cs),
(67,87,o),
(91,112,o),
(126,112,cs)
);
}
);
width = 253;
}
);
leftKerningGroup = _kern15;
unicode = 58;
},
{
glyphname = semicolon;
layers = (
{
layerId = "1EFDAA9E-0693-44A2-9347-F36F1AB053F3";
shapes = (
{
closed = 1;
nodes = (
(168,468,o),
(193,443,o),
(193,408,cs),
(193,372,o),
(168,348,o),
(133,348,cs),
(98,348,o),
(74,373,o),
(74,408,cs),
(74,443,o),
(98,468,o),
(133,468,cs)
);
},
{
closed = 1;
nodes = (
(93,0,o),
(70,21,o),
(70,54,cs),
(70,91,o),
(97,114,o),
(132,112,cs),
(175,110,o),
(193,72,o),
(193,29,cs),
(192,-31,o),
(144,-103,o),
(91,-122,c),
(67,-89,l),
(94,-70,o),
(120,-35,o),
(128,-3,c)
);
}
);
width = 261;
}
);
leftKerningGroup = _kern15;
unicode = 59;
},
{
glyphname = less;
layers = (
{
layerId = "1EFDAA9E-0693-44A2-9347-F36F1AB053F3";
shapes = (
{
closed = 1;
nodes = (
(39,372,l),
(377,602,l),
(377,509,l),
(136,351,l),
(377,192,l),
(377,99,l),
(39,329,l)
);
}
);
width = 446;
}
);
unicode = 60;
},
{
glyphname = equal;
layers = (
{
layerId = "1EFDAA9E-0693-44A2-9347-F36F1AB053F3";
shapes = (
{
closed = 1;
nodes = (
(69,522,l),
(473,522,l),
(473,444,l),
(69,444,l)
);
},
{
closed = 1;
nodes = (
(69,263,l),
(473,263,l),
(473,185,l),
(69,185,l)
);
}
);
width = 542;
}
);
unicode = 61;
},
{
glyphname = greater;
layers = (
{
layerId = "1EFDAA9E-0693-44A2-9347-F36F1AB053F3";
shapes = (
{
closed = 1;
nodes = (
(407,329,l),
(69,99,l),
(69,192,l),
(310,351,l),
(69,509,l),
(69,602,l),
(407,372,l)
);
}
);
width = 446;
}
);
unicode = 62;
},
{
glyphname = at;
layers = (
{
layerId = "1EFDAA9E-0693-44A2-9347-F36F1AB053F3";
shapes = (
{
closed = 1;
nodes = (
(575,55,o),
(521,38,o),
(460,38,cs),
(335,39,o),
(288,146,o),
(288,239,c),
(290,363,o),
(359,488,o),
(498,486,cs),
(551,486,o),
(600,466,o),
(623,414,c),
(650,466,l),
(705,460,l),
(693,387,o),
(684,312,o),
(677,239,cs),
(672,179,o),
(671,105,o),
(738,105,cs),
(824,105,o),
(833,236,o),
(833,294,cs),
(833,482,o),
(729,634,o),
(522,634,cs),
(283,634,o),
(160,457,o),
(160,240,cs),
(160,45,o),
(283,-99,o),
(492,-99,cs),
(539,-99,o),
(555,-97,o),
(597,-89,c),
(604,-173,l),
(558,-183,o),
(530,-186,o),
(482,-186,cs),
(221,-186,o),
(70,-2,o),
(70,232,cs),
(70,511,o),
(229,715,o),
(522,715,cs),
(773,715,o),
(914,533,o),
(914,304,cs),
(914,196,o),
(890,33,o),
(733,33,cs),
(669,33,o),
(628,68,o),
(615,119,c)
);
},
{
closed = 1;
nodes = (
(370,197,o),
(385,110,o),
(473,110,cs),
(554,110,o),
(596,176,o),
(604,258,cs),
(611,333,o),
(578,410,o),
(497,410,cs),
(406,410,o),
(370,319,o),
(370,241,cs)
);
}
);
width = 983;
}
);
unicode = 64;
},
{
glyphname = bracketleft;
layers = (
{
layerId = "1EFDAA9E-0693-44A2-9347-F36F1AB053F3";
shapes = (
{
closed = 1;
nodes = (
(87,-186,l),
(87,791,l),
(286,791,l),
(286,719,l),
(170,719,l),
(170,-114,l),
(286,-114,l),
(286,-186,l)
);
}
);
width = 321;
}
);
unicode = 91;
},
{
glyphname = bracketright;
layers = (
{
layerId = "1EFDAA9E-0693-44A2-9347-F36F1AB053F3";
shapes = (
{
closed = 1;
nodes = (
(234,791,l),
(234,-186,l),
(35,-186,l),
(35,-114,l),
(151,-114,l),
(151,719,l),
(35,719,l),
(35,791,l)
);
}
);
width = 321;
}
);
unicode = 93;
},
{
glyphname = backslash;
layers = (
{
layerId = "1EFDAA9E-0693-44A2-9347-F36F1AB053F3";
shapes = (
{
closed = 1;
nodes = (
(348,-168,l),
(39,801,l),
(129,801,l),
(438,-168,l)
);
}
);
width = 477;
}
);
unicode = 92;
},
{
glyphname = asciicircum;
layers = (
{
layerId = "1EFDAA9E-0693-44A2-9347-F36F1AB053F3";
shapes = (
{
closed = 1;
nodes = (
(261,715,l),
(404,512,l),
(318,512,l),
(231,643,l),
(144,512,l),
(59,512,l),
(201,715,l)
);
}
);
width = 463;
}
);
unicode = 94;
},
{
glyphname = underscore;
layers = (
{
layerId = "1EFDAA9E-0693-44A2-9347-F36F1AB053F3";
shapes = (
{
closed = 1;
nodes = (
(-3,-97,l),
(466,-97,l),
(466,-174,l),
(-3,-174,l)
);
}
);
width = 463;
}
);
unicode = 95;
},
{
glyphname = braceleft;
layers = (
{
layerId = "1EFDAA9E-0693-44A2-9347-F36F1AB053F3";
shapes = (
{
closed = 1;
nodes = (
(218,437,ls),
(218,373,o),
(203,327,o),
(150,302,c),
(203,278,o),
(218,229,o),
(218,168,cs),
(218,-38,ls),
(218,-83,o),
(216,-114,o),
(261,-114,cs),
(330,-114,l),
(330,-186,l),
(252,-186,ls),
(181,-186,o),
(135,-162,o),
(135,-79,cs),
(135,140,ls),
(135,209,o),
(121,270,o),
(37,270,c),
(37,335,l),
(121,335,o),
(135,394,o),
(135,465,cs),
(135,684,ls),
(135,767,o),
(181,791,o),
(252,791,cs),
(330,791,l),
(330,719,l),
(261,719,ls),
(216,719,o),
(218,688,o),
(218,643,cs)
);
}
);
width = 389;
}
);
unicode = 123;
},
{
glyphname = bar;
layers = (
{
layerId = "1EFDAA9E-0693-44A2-9347-F36F1AB053F3";
shapes = (
{
closed = 1;
nodes = (
(87,-168,l),
(87,801,l),
(174,801,l),
(174,-168,l)
);
}
);
width = 261;
}
);
unicode = 124;
},
{
glyphname = braceright;
layers = (
{
layerId = "1EFDAA9E-0693-44A2-9347-F36F1AB053F3";
shapes = (
{
closed = 1;
nodes = (
(171,643,ls),
(171,688,o),
(173,719,o),
(128,719,cs),
(59,719,l),
(59,791,l),
(137,791,ls),
(208,791,o),
(254,767,o),
(254,684,cs),
(254,465,ls),
(254,394,o),
(268,335,o),
(352,335,c),
(352,270,l),
(268,270,o),
(254,209,o),
(254,140,cs),
(254,-79,ls),
(254,-162,o),
(208,-186,o),
(137,-186,cs),
(59,-186,l),
(59,-114,l),
(128,-114,ls),
(173,-114,o),
(171,-83,o),
(171,-38,cs),
(171,168,ls),
(171,229,o),
(186,278,o),
(238,302,c),
(186,327,o),
(171,373,o),
(171,437,cs)
);
}
);
width = 389;
}
);
unicode = 125;
},
{
glyphname = Euro;
layers = (
{
layerId = "1EFDAA9E-0693-44A2-9347-F36F1AB053F3";
shapes = (
{
closed = 1;
nodes = (
(282,-8,o),
(186,76,o),
(151,225,c),
(49,225,l),
(62,303,l),
(145,303,l),
(144,318,o),
(143,331,o),
(143,344,cs),
(143,351,o),
(143,369,o),
(146,405,c),
(49,405,l),
(62,483,l),
(156,483,l),
(191,628,o),
(280,715,o),
(432,715,cs),
(512,715,o),
(572,695,o),
(623,646,c),
(579,583,l),
(536,620,o),
(492,636,o),
(431,636,cs),
(318,636,o),
(261,562,o),
(242,483,c),
(514,483,l),
(501,405,l),
(229,405,l),
(225,374,o),
(225,351,o),
(225,347,cs),
(225,331,o),
(226,316,o),
(229,303,c),
(483,303,l),
(470,225,l),
(241,225,l),
(264,133,o),
(332,69,o),
(440,69,cs),
(501,69,o),
(543,80,o),
(588,121,c),
(630,65,l),
(581,16,o),
(516,-8,o),
(435,-8,cs)
);
}
);
width = 679;
}
);
unicode = 8364;
},
{
glyphname = quotedblbase;
layers = (
{
layerId = "1EFDAA9E-0693-44A2-9347-F36F1AB053F3";
shapes = (
{
closed = 1;
nodes = (
(93,0,o),
(70,21,o),
(70,54,cs),
(70,91,o),
(96,112,o),
(132,112,cs),
(173,111,o),
(193,72,o),
(193,33,cs),
(193,-34,o),
(145,-103,o),
(91,-122,c),
(67,-89,l),
(94,-70,o),
(120,-35,o),
(128,-3,c)
);
},
{
closed = 1;
nodes = (
(282,0,o),
(259,21,o),
(259,54,cs),
(259,91,o),
(285,112,o),
(321,112,cs),
(362,111,o),
(382,72,o),
(382,33,cs),
(382,-34,o),
(334,-103,o),
(280,-122,c),
(256,-89,l),
(283,-70,o),
(309,-35,o),
(317,-3,c)
);
}
);
width = 450;
}
);
leftKerningGroup = _kern14;
rightKerningGroup = _kern14;
unicode = 8222;
},
{
glyphname = quotesinglbase;
layers = (
{
layerId = "1EFDAA9E-0693-44A2-9347-F36F1AB053F3";
shapes = (
{
closed = 1;
nodes = (
(93,0,o),
(70,21,o),
(70,54,cs),
(70,91,o),
(96,113,o),
(132,112,cs),
(175,110,o),
(193,72,o),
(193,36,cs),
(193,-4,o),
(181,-34,o),
(162,-62,cs),
(143,-90,o),
(118,-113,o),
(91,-122,c),
(67,-89,l),
(94,-70,o),
(120,-35,o),
(128,-3,c)
);
}
);
width = 261;
}
);
unicode = 8218;
},
{
glyphname = quotedblright;
layers = (
{
layerId = "1EFDAA9E-0693-44A2-9347-F36F1AB053F3";
shapes = (
{
closed = 1;
nodes = (
(93,620,o),
(70,641,o),
(70,674,cs),
(70,711,o),
(97,733,o),
(133,732,cs),
(177,730,o),
(193,692,o),
(193,653,cs),
(193,586,o),
(145,517,o),
(91,498,c),
(67,531,l),
(94,550,o),
(120,585,o),
(128,617,c)
);
},
{
closed = 1;
nodes = (
(282,620,o),
(259,641,o),
(259,674,cs),
(259,711,o),
(286,733,o),
(322,732,cs),
(366,730,o),
(382,692,o),
(382,653,cs),
(382,586,o),
(334,517,o),
(280,498,c),
(256,531,l),
(283,550,o),
(309,585,o),
(317,617,c)
);
}
);
width = 450;
}
);
unicode = 8221;
},
{
glyphname = quoteright;
layers = (
{
layerId = "1EFDAA9E-0693-44A2-9347-F36F1AB053F3";
shapes = (
{
closed = 1;
nodes = (
(93,620,o),
(70,641,o),
(70,674,cs),
(70,711,o),
(96,732,o),
(132,732,cs),
(177,732,o),
(193,691,o),
(193,653,cs),
(193,586,o),
(145,517,o),
(91,498,c),
(67,531,l),
(94,550,o),
(120,585,o),
(128,617,c)
);
}
);
width = 261;
}
);
unicode = 8217;
},
{
glyphname = quotedblleft;
layers = (
{
layerId = "1EFDAA9E-0693-44A2-9347-F36F1AB053F3";
shapes = (
{
closed = 1;
nodes = (
(357,623,o),
(380,602,o),
(380,569,cs),
(380,532,o),
(354,510,o),
(321,511,cs),
(276,513,o),
(257,549,o),
(257,588,cs),
(257,658,o),
(305,726,o),
(359,745,c),
(383,712,l),
(356,693,o),
(330,658,o),
(322,626,c)
);
},
{
closed = 1;
nodes = (
(168,623,o),
(191,602,o),
(191,569,cs),
(191,532,o),
(164,511,o),
(133,511,cs),
(86,512,o),
(68,549,o),
(68,588,cs),
(68,658,o),
(116,726,o),
(170,745,c),
(194,712,l),
(167,693,o),
(141,658,o),
(133,626,c)
);
}
);
width = 450;
}
);
unicode = 8220;
},
{
glyphname = quoteleft;
layers = (
{
layerId = "1EFDAA9E-0693-44A2-9347-F36F1AB053F3";
shapes = (
{
closed = 1;
nodes = (
(168,623,o),
(191,602,o),
(191,569,cs),
(191,532,o),
(162,510,o),
(133,511,cs),
(87,511,o),
(68,550,o),
(68,590,cs),
(68,656,o),
(116,726,o),
(170,745,c),
(194,712,l),
(167,693,o),
(141,658,o),
(133,626,c)
);
}
);
width = 261;
}
);
unicode = 8216;
},
{
glyphname = minus;
layers = (
{
layerId = "1EFDAA9E-0693-44A2-9347-F36F1AB053F3";
shapes = (
{
closed = 1;
nodes = (
(74,392,l),
(430,392,l),
(430,315,l),
(74,315,l)
);
}
);
width = 504;
}
);
unicode = 8722;
},
{
glyphname = hyphen;
layers = (
{
layerId = "1EFDAA9E-0693-44A2-9347-F36F1AB053F3";
shapes = (
{
closed = 1;
nodes = (
(74,321,l),
(384,321,l),
(384,243,l),
(74,243,l)
);
}
);
width = 458;
}
);
unicode = 45;
},
{
glyphname = endash;
layers = (
{
layerId = "1EFDAA9E-0693-44A2-9347-F36F1AB053F3";
shapes = (
{
closed = 1;
nodes = (
(74,321,l),
(504,321,l),
(504,243,l),
(74,243,l)
);
}
);
width = 578;
}
);
unicode = 8211;
},
{
glyphname = emdash;
layers = (
{
layerId = "1EFDAA9E-0693-44A2-9347-F36F1AB053F3";
shapes = (
{
closed = 1;
nodes = (
(74,321,l),
(685,321,l),
(685,243,l),
(74,243,l)
);
}
);
width = 759;
}
);
unicode = 8212;
},
{
glyphname = grave;
layers = (
{
layerId = "1EFDAA9E-0693-44A2-9347-F36F1AB053F3";
shapes = (
{
closed = 1;
nodes = (
(149,628,l),
(49,769,l),
(141,769,l),
(226,628,l)
);
}
);
width = 335;
}
);
unicode = 96;
},
{
glyphname = acute;
layers = (
{
layerId = "1EFDAA9E-0693-44A2-9347-F36F1AB053F3";
shapes = (
{
closed = 1;
nodes = (
(194,769,l),
(286,769,l),
(186,628,l),
(109,628,l)
);
}
);
width = 335;
}
);
unicode = 180;
},
{
glyphname = guillemotright;
layers = (
{
layerId = "1EFDAA9E-0693-44A2-9347-F36F1AB053F3";
shapes = (
{
closed = 1;
nodes = (
(233,438,l),
(324,438,l),
(437,264,l),
(324,90,l),
(233,90,l),
(351,264,l)
);
},
{
closed = 1;
nodes = (
(59,438,l),
(149,438,l),
(262,264,l),
(149,90,l),
(59,90,l),
(174,264,l)
);
}
);
width = 476;
}
);
unicode = 187;
},
{
glyphname = guilsinglright;
layers = (
{
layerId = "1EFDAA9E-0693-44A2-9347-F36F1AB053F3";
shapes = (
{
closed = 1;
nodes = (
(59,438,l),
(149,438,l),
(262,264,l),
(149,90,l),
(59,90,l),
(174,264,l)
);
}
);
width = 301;
}
);
unicode = 8250;
},
{
glyphname = guillemotleft;
layers = (
{
layerId = "1EFDAA9E-0693-44A2-9347-F36F1AB053F3";
shapes = (
{
closed = 1;
nodes = (
(243,90,l),
(152,90,l),
(39,264,l),
(152,438,l),
(243,438,l),
(125,264,l)
);
},
{
closed = 1;
nodes = (
(417,90,l),
(327,90,l),
(214,264,l),
(327,438,l),
(417,438,l),
(302,264,l)
);
}
);
width = 476;
}
);
unicode = 171;
},
{
glyphname = guilsinglleft;
layers = (
{
layerId = "1EFDAA9E-0693-44A2-9347-F36F1AB053F3";
shapes = (
{
closed = 1;
nodes = (
(242,90,l),
(152,90,l),
(39,264,l),
(152,438,l),
(242,438,l),
(127,264,l)
);
}
);
width = 301;
}
);
unicode = 8249;
},
{
glyphname = uni00AD;
layers = (
{
layerId = "1EFDAA9E-0693-44A2-9347-F36F1AB053F3";
shapes = (
{
closed = 1;
nodes = (
(74,321,l),
(379,321,l),
(379,243,l),
(74,243,l)
);
}
);
width = 453;
}
);
unicode = 173;
},
{
glyphname = ellipsis;
layers = (
{
layerId = "1EFDAA9E-0693-44A2-9347-F36F1AB053F3";
shapes = (
{
closed = 1;
nodes = (
(149,112,o),
(176,87,o),
(176,52,cs),
(176,17,o),
(149,-8,o),
(116,-8,cs),
(81,-8,o),
(57,17,o),
(57,52,cs),
(57,87,o),
(81,112,o),
(116,112,cs)
);
},
{
closed = 1;
nodes = (
(383,112,o),
(410,87,o),
(410,52,cs),
(410,17,o),
(383,-8,o),
(350,-8,cs),
(315,-8,o),
(291,17,o),
(291,52,cs),
(291,87,o),
(315,112,o),
(350,112,cs)
);
},
{
closed = 1;
nodes = (
(613,112,o),
(640,87,o),
(640,52,cs),
(640,17,o),
(613,-8,o),
(580,-8,cs),
(545,-8,o),
(521,17,o),
(521,52,cs),
(521,87,o),
(545,112,o),
(580,112,cs)
);
}
);
width = 697;
}
);
unicode = 8230;
},
{
glyphname = uni0445;
layers = (
{
layerId = "1EFDAA9E-0693-44A2-9347-F36F1AB053F3";
shapes = (
{
closed = 1;
nodes = (
(254,201,l),
(110,0,l),
(14,0,l),
(202,269,l),
(23,527,l),
(125,527,l),
(259,327,l),
(389,527,l),
(488,527,l),
(310,266,l),
(501,0,l),
(400,0,l)
);
}
);
width = 515;
}
);
unicode = 1093;
},
{
glyphname = uni0431;
layers = (
{
layerId = "1EFDAA9E-0693-44A2-9347-F36F1AB053F3";
shapes = (
{
closed = 1;
nodes = (
(170,462,o),
(244,487,o),
(305,487,cs),
(448,487,o),
(529,392,o),
(529,248,cs),
(529,104,o),
(443,-6,o),
(289,-6,cs),
(202,-6,o),
(143,28,o),
(106,81,cs),
(69,133,o),
(53,212,o),
(51,283,cs),
(51,294,o),
(50,316,o),
(50,348,cs),
(50,422,o),
(56,515,o),
(94,579,cs),
(130,643,o),
(186,669,o),
(258,682,cs),
(311,691,o),
(363,697,o),
(416,704,cs),
(441,707,o),
(473,713,o),
(502,718,c),
(502,640,l),
(465,627,o),
(414,626,o),
(374,620,cs),
(336,615,o),
(299,613,o),
(261,606,cs),
(216,598,o),
(189,580,o),
(168,549,cs),
(143,512,o),
(132,452,o),
(131,407,c)
);
},
{
closed = 1;
nodes = (
(390,69,o),
(444,149,o),
(444,245,cs),
(444,339,o),
(391,411,o),
(293,411,cs),
(198,411,o),
(139,333,o),
(139,243,cs),
(139,150,o),
(190,69,o),
(291,69,cs)
);
}
);
width = 576;
}
);
rightKerningGroup = _kern10;
unicode = 1073;
},
{
glyphname = uni0432;
layers = (
{
layerId = "1EFDAA9E-0693-44A2-9347-F36F1AB053F3";
shapes = (
{
closed = 1;
nodes = (
(67,527,l),
(271,527,ls),
(363,527,o),
(467,511,o),
(467,396,cs),
(467,343,o),
(443,306,o),
(396,283,c),
(468,267,o),
(499,216,o),
(498,156,cs),
(498,101,o),
(479,68,o),
(448,42,cs),
(416,16,o),
(370,0,o),
(313,0,cs),
(67,0,l)
);
},
{
closed = 1;
nodes = (
(154,452,l),
(154,302,l),
(227,302,ls),
(280,302,o),
(384,306,o),
(384,381,cs),
(385,454,o),
(310,452,o),
(263,452,cs)
);
},
{
closed = 1;
nodes = (
(154,74,l),
(293,74,ls),
(355,74,o),
(412,88,o),
(412,150,cs),
(412,235,o),
(324,231,o),
(263,231,c),
(154,230,l)
);
}
);
width = 547;
}
);
leftKerningGroup = _kern11;
unicode = 1074;
},
{
glyphname = uni0433;
layers = (
{
layerId = "1EFDAA9E-0693-44A2-9347-F36F1AB053F3";
shapes = (
{
closed = 1;
nodes = (
(67,0,l),
(67,527,l),
(431,527,l),
(431,452,l),
(152,452,l),
(152,0,l)
);
}
);
width = 454;
}
);
leftKerningGroup = _kern11;
rightKerningGroup = _kern24;
unicode = 1075;
},
{
glyphname = uni0434;
layers = (
{
layerId = "1EFDAA9E-0693-44A2-9347-F36F1AB053F3";
shapes = (
{
closed = 1;
nodes = (
(128,450,o),
(128,488,o),
(128,527,c),
(502,527,l),
(502,74,l),
(571,74,l),
(571,-162,l),
(489,-162,l),
(489,0,l),
(104,0,l),
(104,-162,l),
(22,-162,l),
(22,74,l),
(49,74,o),
(69,86,o),
(85,110,cs),
(103,137,o),
(113,191,o),
(119,247,cs),
(125,308,o),
(127,375,o),
(127,411,cs)
);
},
{
closed = 1;
nodes = (
(417,452,l),
(209,452,l),
(208,396,o),
(207,321,o),
(203,261,cs),
(200,209,o),
(197,130,o),
(157,74,c),
(417,74,l)
);
}
);
width = 593;
}
);
rightKerningGroup = _kern13;
unicode = 1076;
},
{
glyphname = uni0436;
layers = (
{
layerId = "1EFDAA9E-0693-44A2-9347-F36F1AB053F3";
shapes = (
{
closed = 1;
nodes = (
(338,0,l),
(338,227,l),
(250,227,l),
(113,0,l),
(14,0,l),
(185,276,l),
(29,527,l),
(120,527,l),
(259,299,l),
(338,299,l),
(338,527,l),
(423,527,l),
(423,299,l),
(502,299,l),
(641,527,l),
(732,527,l),
(576,276,l),
(747,0,l),
(648,0,l),
(511,227,l),
(423,227,l),
(423,0,l)
);
}
);
width = 761;
}
);
unicode = 1078;
},
{
glyphname = uni043A;
layers = (
{
layerId = "1EFDAA9E-0693-44A2-9347-F36F1AB053F3";
shapes = (
{
closed = 1;
nodes = (
(67,0,l),
(67,527,l),
(152,527,l),
(152,300,l),
(244,300,l),
(400,527,l),
(497,527,l),
(321,276,l),
(512,0,l),
(412,0,l),
(254,226,l),
(152,226,l),
(152,0,l)
);
}
);
width = 519;
}
);
leftKerningGroup = _kern11;
unicode = 1082;
},
{
glyphname = uni0438;
layers = (
{
layerId = "1EFDAA9E-0693-44A2-9347-F36F1AB053F3";
shapes = (
{
closed = 1;
nodes = (
(150,0,l),
(67,0,l),
(67,527,l),
(152,527,l),
(152,123,l),
(161,142,o),
(181,167,o),
(190,179,cs),
(445,527,l),
(529,527,l),
(529,0,l),
(444,0,l),
(444,404,l),
(433,384,o),
(419,366,o),
(409,352,cs)
);
}
);
width = 596;
}
);
leftKerningGroup = _kern11;
unicode = 1080;
},
{
glyphname = uni0439;
layers = (
{
layerId = "1EFDAA9E-0693-44A2-9347-F36F1AB053F3";
shapes = (
{
closed = 1;
nodes = (
(362,662,o),
(399,681,o),
(399,734,c),
(477,734,l),
(474,638,o),
(410,596,o),
(305,596,cs),
(200,596,o),
(138,638,o),
(135,734,c),
(213,734,l),
(214,681,o),
(250,662,o),
(306,662,cs)
);
},
{
closed = 1;
nodes = (
(150,0,l),
(67,0,l),
(67,527,l),
(152,527,l),
(152,123,l),
(161,142,o),
(181,167,o),
(190,179,cs),
(445,527,l),
(529,527,l),
(529,0,l),
(444,0,l),
(444,404,l),
(433,384,o),
(419,366,o),
(409,352,cs)
);
}
);
width = 596;
}
);
unicode = 1081;
},
{
glyphname = uni043B;
layers = (
{
layerId = "1EFDAA9E-0693-44A2-9347-F36F1AB053F3";
shapes = (
{
closed = 1;
nodes = (
(123,342,o),
(126,431,o),
(127,527,c),
(493,527,l),
(493,0,l),
(408,0,l),
(408,452,l),
(210,452,l),
(201,245,ls),
(199,192,o),
(193,118,o),
(163,64,cs),
(141,24,o),
(101,-1,o),
(50,-1,cs),
(19,-1,l),
(19,73,l),
(46,73,o),
(67,84,o),
(83,107,cs),
(102,134,o),
(112,189,o),
(116,246,cs)
);
}
);
width = 560;
}
);
unicode = 1083;
},
{
glyphname = uni043C;
layers = (
{
layerId = "1EFDAA9E-0693-44A2-9347-F36F1AB053F3";
shapes = (
{
closed = 1;
nodes = (
(67,527,l),
(181,527,l),
(352,263,l),
(520,527,l),
(632,527,l),
(632,0,l),
(548,0,l),
(548,433,l),
(362,135,l),
(338,135,l),
(151,433,l),
(151,0,l),
(67,0,l)
);
}
);
width = 699;
}
);
leftKerningGroup = _kern11;
unicode = 1084;
},
{
glyphname = uni043D;
layers = (
{
layerId = "1EFDAA9E-0693-44A2-9347-F36F1AB053F3";
shapes = (
{
closed = 1;
nodes = (
(67,0,l),
(67,527,l),
(152,527,l),
(152,296,l),
(416,296,l),
(416,527,l),
(501,527,l),
(501,0,l),
(416,0,l),
(416,221,l),
(152,221,l),
(152,0,l)
);
}
);
width = 568;
}
);
leftKerningGroup = _kern11;
unicode = 1085;
},
{
glyphname = uni043F;
layers = (
{
layerId = "1EFDAA9E-0693-44A2-9347-F36F1AB053F3";
shapes = (
{
closed = 1;
nodes = (
(67,0,l),
(67,527,l),
(504,527,l),
(504,0,l),
(419,0,l),
(419,452,l),
(152,452,l),
(152,0,l)
);
}
);
width = 571;
}
);
leftKerningGroup = _kern11;
unicode = 1087;
},
{
glyphname = uni0442;
layers = (
{
layerId = "1EFDAA9E-0693-44A2-9347-F36F1AB053F3";
shapes = (
{
closed = 1;
nodes = (
(456,527,l),
(456,452,l),
(275,452,l),
(275,0,l),
(190,0,l),
(190,452,l),
(9,452,l),
(9,527,l)
);
}
);
width = 465;
}
);
unicode = 1090;
},
{
glyphname = uni0444;
layers = (
{
layerId = "1EFDAA9E-0693-44A2-9347-F36F1AB053F3";
shapes = (
{
closed = 1;
nodes = (
(318,694,l),
(403,694,l),
(403,532,l),
(575,529,o),
(679,436,o),
(679,259,cs),
(679,80,o),
(567,-1,o),
(403,-6,c),
(403,-180,l),
(318,-180,l),
(318,-6,l),
(155,-1,o),
(43,80,o),
(43,259,cs),
(43,438,o),
(146,529,o),
(318,532,c)
);
},
{
closed = 1;
nodes = (
(403,65,l),
(532,66,o),
(594,133,o),
(594,262,cs),
(594,391,o),
(528,459,o),
(403,459,c)
);
},
{
closed = 1;
nodes = (
(318,459,l),
(193,459,o),
(128,391,o),
(128,262,cs),
(128,133,o),
(190,66,o),
(318,65,c)
);
}
);
width = 722;
}
);
leftKerningGroup = _kern9;
rightKerningGroup = _kern10;
unicode = 1092;
},
{
glyphname = uni0446;
layers = (
{
layerId = "1EFDAA9E-0693-44A2-9347-F36F1AB053F3";
shapes = (
{
closed = 1;
nodes = (
(407,74,l),
(407,527,l),
(493,527,l),
(493,74,l),
(562,74,l),
(562,-162,l),
(479,-162,l),
(479,0,l),
(67,0,l),
(67,527,l),
(152,527,l),
(152,74,l)
);
}
);
width = 584;
}
);
leftKerningGroup = _kern11;
rightKerningGroup = _kern13;
unicode = 1094;
},
{
glyphname = uni0447;
layers = (
{
layerId = "1EFDAA9E-0693-44A2-9347-F36F1AB053F3";
shapes = (
{
closed = 1;
nodes = (
(44,527,l),
(129,527,l),
(129,409,ls),
(129,317,o),
(147,266,o),
(251,266,cs),
(291,266,o),
(338,270,o),
(377,278,c),
(377,527,l),
(462,527,l),
(462,0,l),
(377,0,l),
(377,203,l),
(326,194,o),
(277,191,o),
(240,191,cs),
(91,191,o),
(44,260,o),
(44,403,cs)
);
}
);
width = 529;
}
);
leftKerningGroup = _kern11;
unicode = 1095;
},
{
glyphname = uni0448;
layers = (
{
layerId = "1EFDAA9E-0693-44A2-9347-F36F1AB053F3";
shapes = (
{
closed = 1;
nodes = (
(67,527,l),
(152,527,l),
(152,74,l),
(350,74,l),
(350,527,l),
(435,527,l),
(435,74,l),
(635,74,l),
(635,527,l),
(720,527,l),
(720,0,l),
(67,0,l)
);
}
);
width = 787;
}
);
leftKerningGroup = _kern11;
unicode = 1096;
},
{
glyphname = uni0449;
layers = (
{
layerId = "1EFDAA9E-0693-44A2-9347-F36F1AB053F3";
shapes = (
{
closed = 1;
nodes = (
(67,527,l),
(152,527,l),
(152,74,l),
(350,74,l),
(350,527,l),
(435,527,l),
(435,74,l),
(635,74,l),
(635,527,l),
(720,527,l),
(720,74,l),
(789,74,l),
(789,-162,l),
(707,-162,l),
(707,0,l),
(67,0,l)
);
}
);
width = 811;
}
);
leftKerningGroup = _kern11;
rightKerningGroup = _kern13;
unicode = 1097;
},
{
glyphname = uni044A;
layers = (
{
layerId = "1EFDAA9E-0693-44A2-9347-F36F1AB053F3";
shapes = (
{
closed = 1;
nodes = (
(142,452,l),
(14,452,l),
(14,527,l),
(229,527,l),
(229,326,l),
(346,326,ls),
(406,326,o),
(457,321,o),
(495,293,cs),
(531,267,o),
(550,228,o),
(550,172,cs),
(549,105,o),
(527,70,o),
(496,43,cs),
(460,12,o),
(403,0,o),
(347,0,cs),
(142,0,l)
);
},
{
closed = 1;
nodes = (
(279,74,ls),
(330,74,o),
(385,73,o),
(422,91,cs),
(447,103,o),
(464,128,o),
(464,169,cs),
(464,246,o),
(392,252,o),
(330,252,cs),
(229,252,l),
(229,74,l)
);
}
);
width = 590;
}
);
unicode = 1098;
},
{
glyphname = uni044B;
layers = (
{
layerId = "1EFDAA9E-0693-44A2-9347-F36F1AB053F3";
shapes = (
{
closed = 1;
nodes = (
(67,527,l),
(154,527,l),
(154,326,l),
(249,326,ls),
(309,326,o),
(360,321,o),
(398,293,cs),
(435,267,o),
(455,227,o),
(454,167,cs),
(452,107,o),
(431,70,o),
(400,43,cs),
(363,12,o),
(306,0,o),
(250,0,cs),
(67,0,l)
);
},
{
closed = 1;
nodes = (
(527,0,l),
(527,527,l),
(612,527,l),
(612,0,l)
);
},
{
closed = 1;
nodes = (
(182,74,ls),
(233,74,o),
(288,73,o),
(325,91,cs),
(350,103,o),
(368,129,o),
(368,164,cs),
(369,248,o),
(294,252,o),
(233,252,cs),
(154,252,l),
(154,74,l)
);
}
);
width = 679;
}
);
leftKerningGroup = _kern11;
unicode = 1099;
},
{
glyphname = uni044C;
layers = (
{
layerId = "1EFDAA9E-0693-44A2-9347-F36F1AB053F3";
shapes = (
{
closed = 1;
nodes = (
(67,527,l),
(154,527,l),
(154,326,l),
(270,326,ls),
(330,326,o),
(382,320,o),
(419,293,cs),
(455,266,o),
(475,227,o),
(475,167,cs),
(474,107,o),
(452,70,o),
(421,43,cs),
(385,12,o),
(327,0,o),
(271,0,cs),
(67,0,l)
);
},
{
closed = 1;
nodes = (
(204,74,ls),
(255,74,o),
(309,73,o),
(346,91,cs),
(371,103,o),
(389,129,o),
(389,164,cs),
(390,248,o),
(315,252,o),
(254,252,cs),
(154,252,l),
(154,74,l)
);
}
);
width = 519;
}
);
leftKerningGroup = _kern11;
unicode = 1100;
},
{
glyphname = uni044E;
layers = (
{
layerId = "1EFDAA9E-0693-44A2-9347-F36F1AB053F3";
shapes = (
{
closed = 1;
nodes = (
(661,533,o),
(742,420,o),
(742,263,cs),
(742,106,o),
(661,-6,o),
(494,-6,cs),
(339,-6,o),
(263,88,o),
(252,226,c),
(152,226,l),
(152,0,l),
(67,0,l),
(67,527,l),
(152,527,l),
(152,300,l),
(252,300,l),
(263,438,o),
(339,533,o),
(494,533,cs)
);
},
{
closed = 1;
nodes = (
(609,69,o),
(657,155,o),
(657,263,cs),
(657,371,o),
(609,457,o),
(494,457,cs),
(379,457,o),
(334,371,o),
(334,263,cs),
(334,155,o),
(379,69,o),
(494,69,cs)
);
}
);
width = 785;
}
);
leftKerningGroup = _kern11;
rightKerningGroup = _kern10;
unicode = 1102;
},
{
glyphname = uni044F;
layers = (
{
layerId = "1EFDAA9E-0693-44A2-9347-F36F1AB053F3";
shapes = (
{
closed = 1;
nodes = (
(467,0,l),
(382,0,l),
(382,195,l),
(261,195,l),
(133,0,l),
(34,0,l),
(171,208,l),
(95,229,o),
(50,277,o),
(48,358,cs),
(46,429,o),
(72,469,o),
(111,496,cs),
(148,523,o),
(199,527,o),
(255,527,cs),
(467,527,l)
);
},
{
closed = 1;
nodes = (
(382,452,l),
(269,453,l),
(236,453,o),
(200,453,o),
(173,438,cs),
(150,425,o),
(134,401,o),
(134,362,cs),
(134,326,o),
(152,302,o),
(181,287,cs),
(220,268,o),
(268,269,o),
(319,269,cs),
(382,269,l)
);
}
);
width = 534;
}
);
leftKerningGroup = _kern11;
unicode = 1103;
},
{
glyphname = uni0410;
layers = (
{
layerId = "1EFDAA9E-0693-44A2-9347-F36F1AB053F3";
shapes = (
{
closed = 1;
nodes = (
(660,0,l),
(566,0,l),
(510,152,l),
(160,152,l),
(104,0,l),
(10,0,l),
(273,707,l),
(398,707,l)
);
},
{
closed = 1;
nodes = (
(481,231,l),
(335,631,l),
(189,231,l)
);
}
);
width = 670;
}
);
leftKerningGroup = _kern30;
rightKerningGroup = _kern30;
unicode = 1040;
},
{
glyphname = uni0415;
layers = (
{
layerId = "1EFDAA9E-0693-44A2-9347-F36F1AB053F3";
shapes = (
{
closed = 1;
nodes = (
(87,0,l),
(87,707,l),
(562,707,l),
(562,628,l),
(174,628,l),
(174,390,l),
(523,390,l),
(523,310,l),
(174,310,l),
(174,79,l),
(562,79,l),
(562,0,l)
);
}
);
width = 610;
}
);
unicode = 1045;
},
{
glyphname = uni041C;
layers = (
{
layerId = "1EFDAA9E-0693-44A2-9347-F36F1AB053F3";
shapes = (
{
closed = 1;
nodes = (
(87,0,l),
(87,707,l),
(217,707,l),
(433,318,l),
(646,707,l),
(773,707,l),
(773,0,l),
(686,0,l),
(686,619,l),
(451,184,l),
(411,184,l),
(174,619,l),
(174,0,l)
);
}
);
width = 860;
}
);
unicode = 1052;
},
{
glyphname = uni041D;
layers = (
{
layerId = "1EFDAA9E-0693-44A2-9347-F36F1AB053F3";
shapes = (
{
closed = 1;
nodes = (
(174,387,l),
(553,387,l),
(553,707,l),
(640,707,l),
(640,0,l),
(553,0,l),
(553,307,l),
(174,307,l),
(174,0,l),
(87,0,l),
(87,707,l),
(174,707,l)
);
}
);
width = 727;
}
);
unicode = 1053;
},
{
glyphname = uni0420;
layers = (
{
layerId = "1EFDAA9E-0693-44A2-9347-F36F1AB053F3";
shapes = (
{
closed = 1;
nodes = (
(87,0,l),
(87,707,l),
(332,707,ls),
(488,707,o),
(581,632,o),
(581,472,cs),
(581,391,o),
(551,329,o),
(500,289,cs),
(457,254,o),
(391,233,o),
(314,233,cs),
(174,233,l),
(174,0,l)
);
},
{
closed = 1;
nodes = (
(174,312,l),
(310,312,ls),
(361,312,o),
(412,324,o),
(443,352,cs),
(474,379,o),
(492,415,o),
(492,476,cs),
(492,577,o),
(437,628,o),
(328,628,cs),
(174,628,l)
);
}
);
width = 625;
}
);
unicode = 1056;
},
{
glyphname = uni0422;
layers = (
{
layerId = "1EFDAA9E-0693-44A2-9347-F36F1AB053F3";
shapes = (
{
closed = 1;
nodes = (
(328,0,l),
(241,0,l),
(241,628,l),
(14,628,l),
(14,707,l),
(555,707,l),
(555,628,l),
(328,628,l)
);
}
);
width = 569;
}
);
leftKerningGroup = _kern28;
rightKerningGroup = _kern28;
unicode = 1058;
},
{
glyphname = uni0425;
layers = (
{
layerId = "1EFDAA9E-0693-44A2-9347-F36F1AB053F3";
shapes = (
{
closed = 1;
nodes = (
(466,707,l),
(571,707,l),
(351,356,l),
(579,0,l),
(474,0,l),
(296,283,l),
(116,0,l),
(14,0,l),
(241,353,l),
(21,707,l),
(127,707,l),
(297,425,l)
);
}
);
width = 593;
}
);
unicode = 1061;
},
{
glyphname = T;
layers = (
{
layerId = "1EFDAA9E-0693-44A2-9347-F36F1AB053F3";
shapes = (
{
closed = 1;
nodes = (
(241,0,l),
(241,628,l),
(14,628,l),
(14,707,l),
(555,707,l),
(555,628,l),
(328,628,l),
(328,0,l)
);
}
);
width = 569;
}
);
leftKerningGroup = _kern28;
rightKerningGroup = _kern28;
unicode = 84;
},
{
glyphname = uni0412;
layers = (
{
layerId = "1EFDAA9E-0693-44A2-9347-F36F1AB053F3";
shapes = (
{
closed = 1;
nodes = (
(86,707,l),
(334,707,ls),
(402,707,o),
(457,702,o),
(501,673,cs),
(540,648,o),
(570,602,o),
(570,530,cs),
(570,458,o),
(538,399,o),
(470,372,c),
(561,356,o),
(608,293,o),
(606,197,cs),
(604,109,o),
(566,64,o),
(514,36,cs),
(462,8,o),
(394,0,o),
(329,0,cs),
(86,0,l)
);
},
{
closed = 1;
nodes = (
(173,628,l),
(173,397,l),
(309,397,ls),
(346,397,o),
(389,401,o),
(421,418,cs),
(458,437,o),
(485,467,o),
(485,524,cs),
(485,615,o),
(415,628,o),
(335,628,cs)
);
},
{
closed = 1;
nodes = (
(326,79,ls),
(408,79,o),
(518,88,o),
(518,201,cs),
(518,297,o),
(439,319,o),
(358,319,cs),
(173,319,l),
(173,79,l)
);
}
);
width = 655;
}
);
unicode = 1042;
},
{
glyphname = uni041F;
layers = (
{
layerId = "1EFDAA9E-0693-44A2-9347-F36F1AB053F3";
shapes = (
{
closed = 1;
nodes = (
(643,0,l),
(556,0,l),
(556,628,l),
(174,628,l),
(174,0,l),
(87,0,l),
(87,707,l),
(643,707,l)
);
}
);
width = 730;
}
);
unicode = 1055;
},
{
glyphname = uni0413;
layers = (
{
layerId = "1EFDAA9E-0693-44A2-9347-F36F1AB053F3";
shapes = (
{
closed = 1;
nodes = (
(87,0,l),
(87,707,l),
(542,707,l),
(542,628,l),
(174,628,l),
(174,0,l)
);
}
);
width = 571;
}
);
leftKerningGroup = _kern23;
rightKerningGroup = _kern23;
unicode = 1043;
},
{
glyphname = uni041B;
layers = (
{
layerId = "1EFDAA9E-0693-44A2-9347-F36F1AB053F3";
shapes = (
{
closed = 1;
nodes = (
(519,0,l),
(519,628,l),
(222,628,l),
(219,556,o),
(216,480,o),
(216,408,cs),
(215,329,o),
(213,171,o),
(190,106,cs),
(166,38,o),
(117,-4,o),
(14,-7,c),
(14,79,l),
(63,79,o),
(98,114,o),
(110,161,cs),
(125,220,o),
(126,291,o),
(128,352,cs),
(131,469,o),
(135,590,o),
(135,707,c),
(606,707,l),
(606,0,l)
);
}
);
width = 693;
}
);
unicode = 1051;
},
{
glyphname = uni0414;
layers = (
{
layerId = "1EFDAA9E-0693-44A2-9347-F36F1AB053F3";
shapes = (
{
closed = 1;
nodes = (
(22,-195,l),
(22,79,l),
(70,79,o),
(92,98,o),
(105,129,cs),
(121,169,o),
(131,239,o),
(136,307,cs),
(145,440,o),
(149,574,o),
(150,707,c),
(602,707,l),
(602,79,l),
(687,79,l),
(687,-195,l),
(600,-195,l),
(600,0,l),
(109,0,l),
(109,-195,l)
);
},
{
closed = 1;
nodes = (
(515,79,l),
(515,628,l),
(235,628,l),
(226,353,ls),
(224,288,o),
(220,172,o),
(183,79,c)
);
}
);
width = 709;
}
);
rightKerningGroup = _kern12;
unicode = 1044;
},
{
glyphname = uni0411;
layers = (
{
layerId = "1EFDAA9E-0693-44A2-9347-F36F1AB053F3";
shapes = (
{
closed = 1;
nodes = (
(87,707,l),
(568,707,l),
(568,628,l),
(174,628,l),
(174,415,l),
(335,415,ls),
(473,415,o),
(599,382,o),
(599,218,cs),
(599,131,o),
(570,80,o),
(521,47,cs),
(472,14,o),
(404,0,o),
(331,0,cs),
(87,0,l)
);
},
{
closed = 1;
nodes = (
(174,79,l),
(320,79,ls),
(417,79,o),
(511,97,o),
(511,212,cs),
(511,326,o),
(418,336,o),
(325,336,cs),
(174,336,l)
);
}
);
width = 654;
}
);
unicode = 1041;
},
{
glyphname = uni0416;
layers = (
{
layerId = "1EFDAA9E-0693-44A2-9347-F36F1AB053F3";
shapes = (
{
closed = 1;
nodes = (
(386,0,l),
(386,307,l),
(278,307,l),
(115,0,l),
(14,0,l),
(206,357,l),
(15,707,l),
(111,707,l),
(280,386,l),
(386,386,l),
(386,707,l),
(473,707,l),
(473,386,l),
(581,386,l),
(750,707,l),
(844,707,l),
(653,357,l),
(846,0,l),
(744,0,l),
(581,307,l),
(473,307,l),
(473,0,l)
);
}
);
width = 860;
}
);
unicode = 1046;
},
{
glyphname = uni0417;
layers = (
{
layerId = "1EFDAA9E-0693-44A2-9347-F36F1AB053F3";
shapes = (
{
closed = 1;
nodes = (
(69,83,o),
(45,129,o),
(44,182,c),
(131,182,l),
(132,161,o),
(141,141,o),
(157,122,cs),
(197,77,o),
(270,71,o),
(313,71,cs),
(380,71,o),
(488,85,o),
(488,198,cs),
(488,254,o),
(461,287,o),
(428,303,cs),
(393,320,o),
(345,320,o),
(310,320,cs),
(224,320,l),
(224,398,l),
(275,398,ls),
(314,398,o),
(358,400,o),
(394,419,cs),
(431,438,o),
(461,470,o),
(461,518,cs),
(462,615,o),
(378,636,o),
(309,636,cs),
(264,636,o),
(219,626,o),
(188,602,cs),
(165,583,o),
(150,560,o),
(150,529,c),
(63,529,l),
(63,537,ls),
(63,566,o),
(77,605,o),
(98,632,cs),
(146,693,o),
(227,715,o),
(315,715,cs),
(434,715,o),
(546,667,o),
(546,533,cs),
(546,483,o),
(533,417,o),
(442,374,c),
(526,358,o),
(577,285,o),
(577,199,cs),
(574,50,o),
(447,-8,o),
(315,-8,cs),
(236,-8,o),
(161,7,o),
(109,50,cs)
);
}
);
width = 626;
}
);
leftKerningGroup = _kern7;
rightKerningGroup = _kern8;
unicode = 1047;
},
{
glyphname = uni0418;
layers = (
{
layerId = "1EFDAA9E-0693-44A2-9347-F36F1AB053F3";
shapes = (
{
closed = 1;
nodes = (
(87,0,l),
(87,707,l),
(174,707,l),
(174,136,l),
(553,707,l),
(645,707,l),
(645,0,l),
(558,0,l),
(558,566,l),
(178,0,l)
);
}
);
width = 732;
}
);
unicode = 1048;
},
{
glyphname = uni0419;
layers = (
{
layerId = "1EFDAA9E-0693-44A2-9347-F36F1AB053F3";
shapes = (
{
closed = 1;
nodes = (
(426,839,o),
(464,867,o),
(467,918,c),
(550,918,l),
(547,822,o),
(482,767,o),
(366,767,cs),
(250,767,o),
(185,822,o),
(182,918,c),
(265,918,l),
(268,867,o),
(306,839,o),
(366,839,cs)
);
},
{
closed = 1;
nodes = (
(87,0,l),
(87,707,l),
(174,707,l),
(174,136,l),
(553,707,l),
(645,707,l),
(645,0,l),
(558,0,l),
(558,566,l),
(178,0,l)
);
}
);
width = 732;
}
);
unicode = 1049;
},
{
glyphname = uni041A;
layers = (
{
layerId = "1EFDAA9E-0693-44A2-9347-F36F1AB053F3";
shapes = (
{
closed = 1;
nodes = (
(174,0,l),
(87,0,l),
(87,707,l),
(174,707,l),
(174,381,l),
(279,381,l),
(509,707,l),
(609,707,l),
(355,356,l),
(611,0,l),
(508,0,l),
(286,302,l),
(174,302,l)
);
}
);
width = 625;
}
);
unicode = 1050;
},
{
glyphname = uni0423;
layers = (
{
layerId = "1EFDAA9E-0693-44A2-9347-F36F1AB053F3";
shapes = (
{
closed = 1;
nodes = (
(116,81,l),
(197,81,o),
(248,94,o),
(293,179,c),
(15,707,l),
(118,707,l),
(343,269,l),
(521,707,l),
(615,707,l),
(488,408,ls),
(456,332,o),
(422,252,o),
(385,179,cs),
(360,128,o),
(331,82,o),
(299,53,cs),
(250,9,o),
(193,-1,o),
(116,-1,c)
);
}
);
width = 614;
}
);
unicode = 1059;
},
{
glyphname = uni0424;
layers = (
{
layerId = "1EFDAA9E-0693-44A2-9347-F36F1AB053F3";
shapes = (
{
closed = 1;
nodes = (
(375,-9,l),
(375,106,l),
(295,106,l),
(135,109,o),
(47,226,o),
(48,382,cs),
(50,545,o),
(159,646,o),
(310,646,cs),
(375,646,l),
(375,746,l),
(462,746,l),
(462,646,l),
(526,646,ls),
(677,646,o),
(787,545,o),
(789,382,cs),
(790,226,o),
(697,109,o),
(537,106,c),
(462,106,l),
(462,-9,l)
);
},
{
closed = 1;
nodes = (
(317,571,ls),
(205,571,o),
(136,493,o),
(136,384,cs),
(136,268,o),
(188,181,o),
(313,181,cs),
(375,181,l),
(375,571,l)
);
},
{
closed = 1;
nodes = (
(462,181,l),
(524,181,ls),
(649,181,o),
(701,268,o),
(701,384,cs),
(701,493,o),
(632,571,o),
(520,571,cs),
(462,571,l)
);
}
);
width = 837;
}
);
leftKerningGroup = _kern7;
rightKerningGroup = _kern8;
unicode = 1060;
},
{
glyphname = uni0426;
layers = (
{
layerId = "1EFDAA9E-0693-44A2-9347-F36F1AB053F3";
shapes = (
{
closed = 1;
nodes = (
(87,0,l),
(87,707,l),
(174,707,l),
(174,79,l),
(533,79,l),
(533,707,l),
(620,707,l),
(620,79,l),
(705,79,l),
(705,-195,l),
(618,-195,l),
(618,0,l)
);
}
);
width = 724;
}
);
rightKerningGroup = _kern12;
unicode = 1062;
},
{
glyphname = uni0427;
layers = (
{
layerId = "1EFDAA9E-0693-44A2-9347-F36F1AB053F3";
shapes = (
{
closed = 1;
nodes = (
(376,327,o),
(408,329,o),
(428,330,cs),
(448,331,o),
(468,333,o),
(487,336,c),
(487,707,l),
(574,707,l),
(574,0,l),
(487,0,l),
(487,258,l),
(474,257,o),
(448,254,o),
(417,252,cs),
(382,250,o),
(353,249,o),
(318,249,cs),
(159,252,o),
(64,297,o),
(64,475,cs),
(64,707,l),
(151,707,l),
(151,499,ls),
(151,356,o),
(209,330,o),
(333,328,cs)
);
}
);
width = 661;
}
);
unicode = 1063;
},
{
glyphname = uni0428;
layers = (
{
layerId = "1EFDAA9E-0693-44A2-9347-F36F1AB053F3";
shapes = (
{
closed = 1;
nodes = (
(87,707,l),
(174,707,l),
(174,79,l),
(439,79,l),
(439,707,l),
(526,707,l),
(526,79,l),
(791,79,l),
(791,707,l),
(878,707,l),
(878,0,l),
(87,0,l)
);
}
);
width = 965;
}
);
unicode = 1064;
},
{
glyphname = uni0429;
layers = (
{
layerId = "1EFDAA9E-0693-44A2-9347-F36F1AB053F3";
shapes = (
{
closed = 1;
nodes = (
(87,707,l),
(174,707,l),
(174,79,l),
(439,79,l),
(439,707,l),
(526,707,l),
(526,79,l),
(791,79,l),
(791,707,l),
(878,707,l),
(878,79,l),
(963,79,l),
(963,-195,l),
(876,-195,l),
(876,0,l),
(87,0,l)
);
}
);
width = 982;
}
);
rightKerningGroup = _kern12;
unicode = 1065;
},
{
glyphname = uni042A;
layers = (
{
layerId = "1EFDAA9E-0693-44A2-9347-F36F1AB053F3";
shapes = (
{
closed = 1;
nodes = (
(184,628,l),
(14,628,l),
(14,707,l),
(271,707,l),
(271,415,l),
(417,415,ls),
(555,415,o),
(681,383,o),
(681,218,cs),
(681,131,o),
(650,80,o),
(601,47,cs),
(552,14,o),
(484,0,o),
(411,0,cs),
(184,0,l)
);
},
{
closed = 1;
nodes = (
(271,79,l),
(402,79,ls),
(499,79,o),
(593,97,o),
(593,212,cs),
(593,326,o),
(500,336,o),
(407,336,cs),
(271,336,l)
);
}
);
width = 731;
}
);
unicode = 1066;
},
{
glyphname = uni042B;
layers = (
{
layerId = "1EFDAA9E-0693-44A2-9347-F36F1AB053F3";
shapes = (
{
closed = 1;
nodes = (
(87,707,l),
(174,707,l),
(174,415,l),
(299,415,ls),
(437,415,o),
(562,383,o),
(563,218,cs),
(563,131,o),
(534,80,o),
(485,47,cs),
(436,14,o),
(368,0,o),
(295,0,cs),
(87,0,l)
);
},
{
closed = 1;
nodes = (
(667,0,l),
(667,707,l),
(754,707,l),
(754,0,l)
);
},
{
closed = 1;
nodes = (
(174,79,l),
(284,79,ls),
(381,79,o),
(475,97,o),
(475,212,cs),
(475,326,o),
(382,336,o),
(289,336,cs),
(174,336,l)
);
}
);
width = 841;
}
);
unicode = 1067;
},
{
glyphname = uni042C;
layers = (
{
layerId = "1EFDAA9E-0693-44A2-9347-F36F1AB053F3";
shapes = (
{
closed = 1;
nodes = (
(86,707,l),
(173,707,l),
(173,415,l),
(318,415,ls),
(458,415,o),
(582,383,o),
(583,218,cs),
(585,51,o),
(460,0,o),
(312,0,cs),
(86,0,l)
);
},
{
closed = 1;
nodes = (
(173,79,l),
(304,79,ls),
(402,79,o),
(494,95,o),
(494,212,cs),
(494,326,o),
(401,336,o),
(308,336,cs),
(173,336,l)
);
}
);
width = 633;
}
);
unicode = 1068;
},
{
glyphname = uni042D;
layers = (
{
layerId = "1EFDAA9E-0693-44A2-9347-F36F1AB053F3";
shapes = (
{
closed = 1;
nodes = (
(238,636,o),
(166,591,o),
(146,522,c),
(58,522,l),
(90,658,o),
(210,715,o),
(342,715,cs),
(563,715,o),
(660,553,o),
(660,348,cs),
(660,140,o),
(552,-8,o),
(333,-8,cs),
(177,-8,o),
(79,68,o),
(48,185,c),
(143,185,l),
(163,116,o),
(236,71,o),
(336,71,cs),
(487,71,o),
(564,177,o),
(569,314,c),
(243,314,l),
(243,393,l),
(569,393,l),
(561,524,o),
(487,636,o),
(338,636,cs)
);
}
);
width = 708;
}
);
leftKerningGroup = _kern7;
rightKerningGroup = _kern8;
unicode = 1069;
},
{
glyphname = uni042E;
layers = (
{
layerId = "1EFDAA9E-0693-44A2-9347-F36F1AB053F3";
shapes = (
{
closed = 1;
nodes = (
(87,0,l),
(87,707,l),
(174,707,l),
(174,393,l),
(289,393,l),
(300,580,o),
(406,715,o),
(610,715,cs),
(830,715,o),
(943,561,o),
(943,353,cs),
(943,146,o),
(830,-8,o),
(610,-8,cs),
(406,-8,o),
(300,127,o),
(289,314,c),
(174,314,l),
(174,0,l)
);
},
{
closed = 1;
nodes = (
(444,636,o),
(376,506,o),
(376,353,cs),
(376,201,o),
(442,71,o),
(610,71,cs),
(778,71,o),
(853,199,o),
(853,353,cs),
(853,508,o),
(777,636,o),
(610,636,cs)
);
}
);
width = 991;
}
);
rightKerningGroup = _kern8;
unicode = 1070;
},
{
glyphname = uni042F;
layers = (
{
layerId = "1EFDAA9E-0693-44A2-9347-F36F1AB053F3";
shapes = (
{
closed = 1;
nodes = (
(157,0,l),
(60,0,l),
(211,281,l),
(123,302,o),
(55,366,o),
(55,484,cs),
(55,643,o),
(155,707,o),
(311,707,cs),
(573,707,l),
(573,0,l),
(486,0,l),
(486,265,l),
(298,265,l)
);
},
{
closed = 1;
nodes = (
(486,344,l),
(486,628,l),
(310,628,ls),
(197,628,o),
(143,582,o),
(143,487,cs),
(143,370,o),
(234,344,o),
(337,344,cs)
);
}
);
width = 660;
}
);
unicode = 1071;
},
{
glyphname = uni0440;
layers = (
{
layerId = "1EFDAA9E-0693-44A2-9347-F36F1AB053F3";
shapes = (
{
closed = 1;
nodes = (
(152,-190,l),
(67,-190,l),
(67,527,l),
(148,527,l),
(152,446,l),
(188,503,o),
(254,533,o),
(326,533,cs),
(485,533,o),
(557,416,o),
(557,263,cs),
(557,109,o),
(484,-6,o),
(322,-6,cs),
(242,-6,o),
(187,22,o),
(152,63,c)
);
},
{
closed = 1;
nodes = (
(430,69,o),
(472,157,o),
(472,263,cs),
(472,370,o),
(429,457,o),
(313,457,cs),
(245,457,o),
(194,416,o),
(169,360,c),
(154,329,o),
(150,297,o),
(150,262,cs),
(150,222,o),
(154,189,o),
(169,158,cs),
(194,107,o),
(243,69,o),
(315,69,cs)
);
}
);
width = 600;
}
);
leftKerningGroup = _kern11;
rightKerningGroup = _kern10;
unicode = 1088;
},
{
glyphname = O;
layers = (
{
layerId = "1EFDAA9E-0693-44A2-9347-F36F1AB053F3";
shapes = (
{
closed = 1;
nodes = (
(161,-8,o),
(48,146,o),
(48,353,cs),
(48,561,o),
(161,715,o),
(381,715,cs),
(600,715,o),
(713,561,o),
(713,353,cs),
(713,146,o),
(600,-8,o),
(381,-8,cs)
);
},
{
closed = 1;
nodes = (
(214,636,o),
(136,506,o),
(136,353,cs),
(136,201,o),
(212,71,o),
(381,71,cs),
(549,71,o),
(624,199,o),
(624,353,cs),
(624,508,o),
(547,636,o),
(381,636,cs)
);
}
);
width = 761;
}
);
leftKerningGroup = _kern3;
rightKerningGroup = _kern4;
unicode = 79;
},
{
glyphname = a;
layers = (
{
layerId = "1EFDAA9E-0693-44A2-9347-F36F1AB053F3";
shapes = (
{
closed = 1;
nodes = (
(414,67,l),
(369,6,o),
(294,-6,o),
(236,-6,cs),
(140,-6,o),
(49,45,o),
(49,150,cs),
(49,271,o),
(144,309,o),
(252,309,cs),
(407,309,l),
(407,398,o),
(372,457,o),
(280,457,cs),
(224,457,o),
(178,440,o),
(162,397,c),
(71,397,l),
(89,492,o),
(190,533,o),
(280,533,cs),
(359,533,o),
(412,505,o),
(445,463,cs),
(478,421,o),
(490,360,o),
(490,285,cs),
(490,0,l),
(419,0,l)
);
},
{
closed = 1;
nodes = (
(314,238,l),
(282,239,o),
(237,241,o),
(198,232,cs),
(159,223,o),
(134,197,o),
(134,156,cs),
(134,96,o),
(187,69,o),
(244,69,cs),
(344,69,o),
(406,119,o),
(407,212,c),
(407,238,l)
);
}
);
width = 555;
}
);
leftKerningGroup = _kern27;
rightKerningGroup = _kern27;
unicode = 97;
},
{
glyphname = c;
layers = (
{
layerId = "1EFDAA9E-0693-44A2-9347-F36F1AB053F3";
shapes = (
{
closed = 1;
nodes = (
(125,-6,o),
(47,107,o),
(47,262,cs),
(47,411,o),
(128,533,o),
(302,533,cs),
(356,533,o),
(395,522,o),
(432,497,cs),
(468,472,o),
(496,433,o),
(508,376,c),
(421,376,l),
(401,435,o),
(356,457,o),
(297,457,cs),
(178,457,o),
(132,362,o),
(132,262,cs),
(132,158,o),
(180,69,o),
(295,69,cs),
(351,69,o),
(408,89,o),
(424,151,c),
(512,151,l),
(491,42,o),
(396,-6,o),
(292,-6,cs)
);
}
);
width = 553;
}
);
leftKerningGroup = _kern5;
rightKerningGroup = _kern6;
unicode = 99;
},
{
glyphname = e;
layers = (
{
layerId = "1EFDAA9E-0693-44A2-9347-F36F1AB053F3";
shapes = (
{
closed = 1;
nodes = (
(133,232,l),
(141,140,o),
(193,69,o),
(297,69,cs),
(349,69,o),
(409,87,o),
(428,141,c),
(515,141,l),
(491,39,o),
(395,-6,o),
(295,-6,cs),
(127,-6,o),
(47,106,o),
(47,263,cs),
(47,420,o),
(134,532,o),
(294,533,cs),
(378,533,o),
(440,497,o),
(477,443,cs),
(514,389,o),
(528,321,o),
(526,268,cs),
(525,256,o),
(525,244,o),
(524,232,c)
);
},
{
closed = 1;
nodes = (
(440,306,l),
(437,395,o),
(380,457,o),
(291,457,cs),
(192,457,o),
(143,387,o),
(135,306,c)
);
}
);
width = 573;
}
);
leftKerningGroup = _kern5;
rightKerningGroup = _kern6;
unicode = 101;
},
{
glyphname = f;
layers = (
{
layerId = "1EFDAA9E-0693-44A2-9347-F36F1AB053F3";
shapes = (
{
closed = 1;
nodes = (
(118,0,l),
(118,452,l),
(32,452,l),
(32,527,l),
(118,527,l),
(118,583,ls),
(118,700,o),
(164,753,o),
(284,753,cs),
(344,753,l),
(344,678,l),
(293,678,ls),
(221,678,o),
(203,641,o),
(203,573,cs),
(203,527,l),
(344,527,l),
(344,452,l),
(203,452,l),
(203,0,l)
);
}
);
width = 366;
}
);
unicode = 102;
},
{
glyphname = g;
layers = (
{
layerId = "1EFDAA9E-0693-44A2-9347-F36F1AB053F3";
shapes = (
{
closed = 1;
nodes = (
(537,4,ls),
(537,-145,o),
(457,-236,o),
(296,-236,cs),
(189,-236,o),
(96,-188,o),
(75,-79,c),
(163,-79,l),
(179,-140,o),
(245,-160,o),
(301,-160,cs),
(409,-160,o),
(452,-90,o),
(452,6,cs),
(452,79,l),
(417,18,o),
(347,-6,o),
(278,-6,cs),
(118,-6,o),
(47,110,o),
(47,262,cs),
(47,414,o),
(120,533,o),
(282,533,cs),
(343,533,o),
(412,512,o),
(452,461,c),
(456,527,l),
(537,527,l)
);
},
{
closed = 1;
nodes = (
(174,457,o),
(132,370,o),
(132,263,cs),
(132,204,o),
(142,161,o),
(167,126,cs),
(192,91,o),
(231,69,o),
(290,69,cs),
(358,69,o),
(400,105,o),
(427,153,cs),
(446,186,o),
(453,227,o),
(453,266,cs),
(453,314,o),
(446,353,o),
(423,388,cs),
(396,427,o),
(353,457,o),
(289,457,cs)
);
}
);
width = 604;
}
);
leftKerningGroup = _kern5;
unicode = 103;
},
{
glyphname = j;
layers = (
{
layerId = "1EFDAA9E-0693-44A2-9347-F36F1AB053F3";
shapes = (
{
closed = 1;
nodes = (
(169,720,o),
(195,697,o),
(195,664,cs),
(195,631,o),
(169,607,o),
(137,607,cs),
(104,607,o),
(80,631,o),
(80,664,cs),
(80,697,o),
(104,720,o),
(137,720,cs)
);
},
{
closed = 1;
nodes = (
(180,527,l),
(180,-10,ls),
(180,-127,o),
(134,-180,o),
(15,-180,cs),
(-31,-180,l),
(-31,-106,l),
(5,-106,ls),
(77,-106,o),
(95,-69,o),
(95,-1,cs),
(95,527,l)
);
}
);
width = 254;
}
);
unicode = 106;
},
{
glyphname = o;
layers = (
{
layerId = "1EFDAA9E-0693-44A2-9347-F36F1AB053F3";
shapes = (
{
closed = 1;
nodes = (
(465,533,o),
(548,420,o),
(548,263,cs),
(548,106,o),
(465,-6,o),
(297,-6,cs),
(130,-6,o),
(47,106,o),
(47,263,cs),
(47,420,o),
(131,533,o),
(299,533,cs)
);
},
{
closed = 1;
nodes = (
(413,69,o),
(463,155,o),
(463,263,cs),
(463,371,o),
(413,457,o),
(297,457,cs),
(182,457,o),
(132,371,o),
(132,263,cs),
(132,155,o),
(182,69,o),
(297,69,cs)
);
}
);
width = 595;
}
);
leftKerningGroup = _kern5;
rightKerningGroup = _kern6;
unicode = 111;
},
{
glyphname = r;
layers = (
{
layerId = "1EFDAA9E-0693-44A2-9347-F36F1AB053F3";
shapes = (
{
closed = 1;
nodes = (
(67,0,l),
(67,527,l),
(149,527,l),
(153,445,l),
(192,506,o),
(253,533,o),
(329,533,cs),
(356,533,l),
(356,453,l),
(325,453,ls),
(200,453,o),
(152,365,o),
(152,257,cs),
(152,0,l)
);
}
);
width = 373;
}
);
leftKerningGroup = _kern29;
rightKerningGroup = _kern29;
unicode = 114;
},
{
glyphname = t;
layers = (
{
layerId = "1EFDAA9E-0693-44A2-9347-F36F1AB053F3";
shapes = (
{
closed = 1;
nodes = (
(200,527,l),
(341,527,l),
(341,452,l),
(200,452,l),
(200,179,ls),
(200,107,o),
(219,74,o),
(299,74,cs),
(338,74,l),
(338,0,l),
(281,0,ls),
(161,0,o),
(115,53,o),
(115,170,cs),
(115,452,l),
(29,452,l),
(29,527,l),
(115,527,l),
(115,684,l),
(200,684,l)
);
}
);
width = 370;
}
);
leftKerningGroup = _kern21;
rightKerningGroup = _kern21;
unicode = 116;
},
{
glyphname = y2_alt;
layers = (
{
layerId = "1EFDAA9E-0693-44A2-9347-F36F1AB053F3";
shapes = (
{
closed = 1;
nodes = (
(441,527,l),
(537,527,l),
(389,112,ls),
(359,28,o),
(316,-118,o),
(250,-176,cs),
(201,-220,o),
(159,-226,o),
(102,-226,cs),
(84,-226,l),
(84,-145,l),
(181,-145,o),
(211,-105,o),
(248,-17,c),
(17,527,l),
(117,527,l),
(295,84,l)
);
}
);
width = 549;
}
);
},
{
glyphname = uni0443;
layers = (
{
layerId = "1EFDAA9E-0693-44A2-9347-F36F1AB053F3";
shapes = (
{
closed = 1;
nodes = (
(441,527,l),
(537,527,l),
(389,112,ls),
(359,27,o),
(317,-117,o),
(250,-176,cs),
(201,-220,o),
(159,-226,o),
(102,-226,cs),
(84,-226,l),
(84,-145,l),
(181,-145,o),
(211,-105,o),
(248,-17,c),
(17,527,l),
(117,527,l),
(295,83,l)
);
}
);
width = 549;
}
);
unicode = 1091;
},
{
glyphname = uni0451;
layers = (
{
layerId = "1EFDAA9E-0693-44A2-9347-F36F1AB053F3";
shapes = (
{
closed = 1;
nodes = (
(215,707,o),
(240,684,o),
(240,651,cs),
(240,618,o),
(215,595,o),
(182,595,cs),
(150,595,o),
(125,618,o),
(125,651,cs),
(125,684,o),
(150,707,o),
(182,707,cs)
);
},
{
closed = 1;
nodes = (
(440,707,o),
(465,684,o),
(465,651,cs),
(465,618,o),
(440,595,o),
(407,595,cs),
(375,595,o),
(351,618,o),
(351,651,cs),
(351,684,o),
(375,707,o),
(407,707,cs)
);
},
{
closed = 1;
nodes = (
(133,232,l),
(141,140,o),
(193,69,o),
(297,69,cs),
(349,69,o),
(409,87,o),
(428,141,c),
(515,141,l),
(491,39,o),
(395,-6,o),
(295,-6,cs),
(127,-6,o),
(47,106,o),
(47,263,cs),
(47,420,o),
(134,533,o),
(294,533,cs),
(378,533,o),
(440,497,o),
(477,443,cs),
(514,389,o),
(528,321,o),
(526,268,cs),
(525,256,o),
(525,244,o),
(524,232,c)
);
},
{
closed = 1;
nodes = (
(440,306,l),
(437,395,o),
(380,457,o),
(291,457,cs),
(192,457,o),
(143,387,o),
(135,306,c)
);
}
);
width = 573;
}
);
leftKerningGroup = _kern9;
rightKerningGroup = _kern10;
unicode = 1105;
},
{
glyphname = uni0437;
layers = (
{
layerId = "1EFDAA9E-0693-44A2-9347-F36F1AB053F3";
shapes = (
{
closed = 1;
nodes = (
(448,262,o),
(471,215,o),
(471,152,cs),
(471,41,o),
(365,-6,o),
(258,-6,cs),
(157,-6,o),
(42,27,o),
(37,141,c),
(120,141,l),
(130,86,o),
(209,69,o),
(258,69,cs),
(314,69,o),
(386,82,o),
(386,152,cs),
(386,180,o),
(374,205,o),
(349,217,cs),
(326,228,o),
(294,228,o),
(269,228,cs),
(175,228,l),
(175,303,l),
(252,303,ls),
(303,303,o),
(366,317,o),
(366,384,cs),
(366,440,o),
(310,457,o),
(258,457,cs),
(209,457,o),
(147,446,o),
(139,390,c),
(55,390,l),
(58,497,o),
(164,533,o),
(257,533,cs),
(350,533,o),
(449,499,o),
(449,392,cs),
(449,344,o),
(427,306,o),
(380,283,c)
);
}
);
width = 514;
}
);
leftKerningGroup = _kern9;
rightKerningGroup = _kern10;
unicode = 1079;
},
{
glyphname = uni044D;
layers = (
{
layerId = "1EFDAA9E-0693-44A2-9347-F36F1AB053F3";
shapes = (
{
closed = 1;
nodes = (
(419,298,l),
(412,391,o),
(363,456,o),
(266,457,c),
(208,457,o),
(146,437,o),
(130,376,c),
(44,376,l),
(55,424,o),
(77,458,o),
(110,484,cs),
(154,520,o),
(210,533,o),
(266,533,cs),
(435,533,o),
(505,418,o),
(505,263,cs),
(505,103,o),
(429,-6,o),
(262,-6,cs),
(157,-6,o),
(60,42,o),
(39,151,c),
(127,151,l),
(143,89,o),
(210,69,o),
(266,69,cs),
(366,69,o),
(415,140,o),
(418,224,c),
(187,224,l),
(187,298,l)
);
}
);
width = 548;
}
);
leftKerningGroup = _kern9;
rightKerningGroup = _kern10;
unicode = 1101;
},
{
glyphname = C;
layers = (
{
layerId = "1EFDAA9E-0693-44A2-9347-F36F1AB053F3";
shapes = (
{
closed = 1;
nodes = (
(204,636,o),
(137,503,o),
(137,356,cs),
(137,199,o),
(210,71,o),
(375,71,cs),
(475,71,o),
(547,116,o),
(567,185,c),
(662,185,l),
(631,68,o),
(530,-8,o),
(373,-8,cs),
(154,-8,o),
(48,143,o),
(48,353,cs),
(48,560,o),
(155,715,o),
(375,715,cs),
(531,715,o),
(622,637,o),
(649,522,c),
(561,522,l),
(541,591,o),
(472,636,o),
(372,636,cs)
);
}
);
width = 704;
}
);
leftKerningGroup = _kern3;
rightKerningGroup = _kern4;
unicode = 67;
},
{
glyphname = S;
layers = (
{
layerId = "1EFDAA9E-0693-44A2-9347-F36F1AB053F3";
shapes = (
{
closed = 1;
nodes = (
(257,636,o),
(172,613,o),
(172,525,cs),
(172,472,o),
(204,440,o),
(244,423,cs),
(308,396,o),
(392,390,o),
(460,366,cs),
(541,338,o),
(594,288,o),
(594,203,cs),
(594,47,o),
(477,-8,o),
(342,-8,cs),
(207,-8,o),
(87,43,o),
(57,185,c),
(148,185,l),
(175,94,o),
(265,71,o),
(348,71,cs),
(429,71,o),
(505,104,o),
(505,187,cs),
(505,250,o),
(469,275,o),
(413,292,cs),
(338,315,o),
(246,324,o),
(176,359,cs),
(124,385,o),
(82,437,o),
(82,517,cs),
(82,666,o),
(207,715,o),
(332,715,cs),
(453,715,o),
(567,665,o),
(574,526,c),
(489,526,l),
(478,609,o),
(408,636,o),
(332,636,cs)
);
}
);
width = 652;
}
);
leftKerningGroup = _kern3;
rightKerningGroup = _kern4;
unicode = 83;
},
{
glyphname = uni0421;
layers = (
{
layerId = "1EFDAA9E-0693-44A2-9347-F36F1AB053F3";
shapes = (
{
closed = 1;
nodes = (
(204,636,o),
(137,503,o),
(137,356,cs),
(137,199,o),
(210,71,o),
(375,71,cs),
(475,71,o),
(547,116,o),
(567,185,c),
(662,185,l),
(631,68,o),
(530,-8,o),
(373,-8,cs),
(154,-8,o),
(48,143,o),
(48,353,cs),
(48,560,o),
(155,715,o),
(375,715,cs),
(531,715,o),
(622,637,o),
(649,522,c),
(561,522,l),
(541,591,o),
(472,636,o),
(372,636,cs)
);
}
);
width = 710;
}
);
leftKerningGroup = _kern7;
rightKerningGroup = _kern8;
unicode = 1057;
},
{
glyphname = G;
layers = (
{
layerId = "1EFDAA9E-0693-44A2-9347-F36F1AB053F3";
shapes = (
{
closed = 1;
nodes = (
(204,636,o),
(137,510,o),
(137,353,cs),
(137,197,o),
(209,71,o),
(373,71,cs),
(444,71,o),
(497,90,o),
(532,127,cs),
(573,170,o),
(589,218,o),
(589,278,c),
(357,278,l),
(357,357,l),
(672,357,l),
(672,298,ls),
(672,220,o),
(648,129,o),
(591,74,cs),
(539,22,o),
(466,-8,o),
(374,-8,cs),
(154,-8,o),
(48,143,o),
(48,351,cs),
(48,558,o),
(151,715,o),
(370,715,cs),
(526,715,o),
(623,639,o),
(654,522,c),
(559,522,l),
(539,591,o),
(469,636,o),
(369,636,cs)
);
}
);
width = 720;
}
);
leftKerningGroup = _kern3;
rightKerningGroup = _kern4;
unicode = 71;
},
{
glyphname = uni041E;
layers = (
{
layerId = "1EFDAA9E-0693-44A2-9347-F36F1AB053F3";
shapes = (
{
closed = 1;
nodes = (
(161,-8,o),
(48,146,o),
(48,353,cs),
(48,561,o),
(161,715,o),
(381,715,cs),
(600,715,o),
(713,561,o),
(713,353,cs),
(713,146,o),
(600,-8,o),
(381,-8,cs)
);
},
{
closed = 1;
nodes = (
(214,636,o),
(136,506,o),
(136,353,cs),
(136,201,o),
(212,71,o),
(381,71,cs),
(549,71,o),
(624,199,o),
(624,353,cs),
(624,508,o),
(547,636,o),
(381,636,cs)
);
}
);
width = 761;
}
);
leftKerningGroup = _kern7;
rightKerningGroup = _kern8;
unicode = 1054;
},
{
glyphname = Q;
layers = (
{
layerId = "1EFDAA9E-0693-44A2-9347-F36F1AB053F3";
shapes = (
{
closed = 1;
nodes = (
(524,19,l),
(483,1,o),
(435,-8,o),
(381,-8,cs),
(161,-8,o),
(48,146,o),
(48,353,cs),
(48,561,o),
(161,715,o),
(381,715,cs),
(600,715,o),
(713,561,o),
(713,353,cs),
(713,232,o),
(673,131,o),
(597,66,c),
(698,-74,l),
(630,-126,l)
);
},
{
closed = 1;
nodes = (
(214,636,o),
(136,506,o),
(136,353,cs),
(136,201,o),
(212,71,o),
(381,71,cs),
(549,71,o),
(624,199,o),
(624,353,cs),
(624,508,o),
(547,636,o),
(381,636,cs)
);
}
);
width = 761;
}
);
leftKerningGroup = _kern3;
rightKerningGroup = _kern4;
unicode = 81;
},
{
glyphname = J;
layers = (
{
layerId = "1EFDAA9E-0693-44A2-9347-F36F1AB053F3";
shapes = (
{
closed = 1;
nodes = (
(130,195,l),
(138,119,o),
(178,72,o),
(266,71,c),
(359,71,o),
(389,135,o),
(389,226,cs),
(389,707,l),
(476,707,l),
(476,244,ls),
(476,96,o),
(421,-8,o),
(266,-8,cs),
(127,-8,o),
(50,55,o),
(42,195,c)
);
}
);
width = 558;
}
);
unicode = 74;
},
{
glyphname = K_alt;
layers = (
{
layerId = "1EFDAA9E-0693-44A2-9347-F36F1AB053F3";
shapes = (
{
closed = 1;
nodes = (
(87,0,l),
(87,707,l),
(174,707,l),
(174,342,l),
(513,707,l),
(614,707,l),
(315,388,l),
(616,0,l),
(513,0,l),
(252,332,l),
(174,249,l),
(174,0,l)
);
}
);
width = 630;
}
);
leftKerningGroup = _kern16;
rightKerningGroup = _kern16;
},
{
glyphname = K;
layers = (
{
layerId = "1EFDAA9E-0693-44A2-9347-F36F1AB053F3";
shapes = (
{
closed = 1;
nodes = (
(87,0,l),
(87,707,l),
(174,707,l),
(174,381,l),
(278,381,l),
(509,707,l),
(609,707,l),
(355,356,l),
(611,0,l),
(508,0,l),
(286,302,l),
(174,302,l),
(174,0,l)
);
}
);
width = 625;
}
);
leftKerningGroup = _kern1;
rightKerningGroup = _kern16;
unicode = 75;
},
{
glyphname = k_alt;
layers = (
{
layerId = "1EFDAA9E-0693-44A2-9347-F36F1AB053F3";
shapes = (
{
closed = 1;
nodes = (
(67,0,l),
(67,707,l),
(152,707,l),
(152,270,l),
(402,527,l),
(501,527,l),
(289,309,l),
(513,0,l),
(414,0,l),
(228,254,l),
(152,176,l),
(152,0,l)
);
}
);
width = 527;
}
);
leftKerningGroup = _kern17;
rightKerningGroup = _kern17;
},
{
glyphname = k;
layers = (
{
layerId = "1EFDAA9E-0693-44A2-9347-F36F1AB053F3";
shapes = (
{
closed = 1;
nodes = (
(67,0,l),
(67,707,l),
(152,707,l),
(152,300,l),
(244,300,l),
(402,527,l),
(498,527,l),
(322,276,l),
(513,0,l),
(413,0,l),
(254,226,l),
(152,226,l),
(152,0,l)
);
}
);
width = 520;
}
);
leftKerningGroup = _kern17;
rightKerningGroup = _kern17;
unicode = 107;
},
{
glyphname = i_alt;
layers = (
{
layerId = "1EFDAA9E-0693-44A2-9347-F36F1AB053F3";
shapes = (
{
closed = 1;
nodes = (
(173,720,o),
(198,697,o),
(198,664,cs),
(198,631,o),
(173,607,o),
(140,607,cs),
(108,607,o),
(83,631,o),
(83,664,cs),
(83,697,o),
(108,720,o),
(140,720,cs)
);
},
{
closed = 1;
nodes = (
(98,0,l),
(98,452,l),
(12,452,l),
(12,527,l),
(183,527,l),
(183,0,l)
);
}
);
width = 257;
}
);
},
{
glyphname = j_alt;
layers = (
{
layerId = "1EFDAA9E-0693-44A2-9347-F36F1AB053F3";
shapes = (
{
closed = 1;
nodes = (
(182,720,o),
(208,697,o),
(208,664,cs),
(208,631,o),
(182,607,o),
(150,607,cs),
(117,607,o),
(93,631,o),
(93,664,cs),
(93,697,o),
(117,720,o),
(150,720,cs)
);
},
{
closed = 1;
nodes = (
(193,-10,ls),
(193,-127,o),
(147,-180,o),
(28,-180,cs),
(-18,-180,l),
(-18,-106,l),
(18,-106,ls),
(90,-106,o),
(108,-69,o),
(108,-1,cs),
(108,452,l),
(21,452,l),
(21,527,l),
(193,527,l)
);
}
);
width = 267;
}
);
},
{
glyphname = s_alt;
layers = (
{
layerId = "1EFDAA9E-0693-44A2-9347-F36F1AB053F3";
shapes = (
{
closed = 1;
nodes = (
(225,457,o),
(144,449,o),
(145,382,cs),
(145,343,o),
(180,324,o),
(232,312,cs),
(280,301,o),
(371,291,o),
(405,282,cs),
(470,264,o),
(498,217,o),
(498,156,cs),
(498,91,o),
(472,55,o),
(434,31,cs),
(386,1,o),
(335,-6,o),
(280,-6,cs),
(219,-6,o),
(169,4,o),
(126,27,cs),
(83,50,o),
(51,86,o),
(43,143,c),
(129,143,l),
(151,81,o),
(237,70,o),
(275,70,cs),
(324,70,o),
(413,77,o),
(413,144,cs),
(413,188,o),
(387,205,o),
(342,214,cs),
(278,227,o),
(175,235,o),
(120,268,cs),
(84,290,o),
(61,323,o),
(61,382,cs),
(61,502,o),
(179,534,o),
(280,533,cs),
(345,533,o),
(389,518,o),
(424,491,cs),
(459,463,o),
(475,427,o),
(479,391,c),
(401,391,l),
(399,413,o),
(379,432,o),
(357,442,cs),
(335,452,o),
(302,457,o),
(271,457,cs)
);
}
);
width = 542;
}
);
leftKerningGroup = _kern5;
rightKerningGroup = _kern6;
},
{
glyphname = s;
layers = (
{
layerId = "1EFDAA9E-0693-44A2-9347-F36F1AB053F3";
shapes = (
{
closed = 1;
nodes = (
(212,457,o),
(141,448,o),
(139,384,cs),
(138,339,o),
(176,320,o),
(231,308,cs),
(277,298,o),
(342,288,o),
(374,278,cs),
(438,257,o),
(471,215,o),
(470,149,cs),
(468,24,o),
(358,-6,o),
(259,-6,cs),
(162,-6,o),
(55,28,o),
(39,143,c),
(125,143,l),
(136,111,o),
(161,94,o),
(187,83,cs),
(213,72,o),
(234,69,o),
(263,69,cs),
(306,69,o),
(385,74,o),
(385,145,cs),
(385,185,o),
(357,203,o),
(312,212,cs),
(249,225,o),
(171,231,o),
(117,265,cs),
(80,288,o),
(54,326,o),
(55,382,cs),
(57,441,o),
(84,478,o),
(121,501,cs),
(161,526,o),
(206,533,o),
(257,533,cs),
(311,533,o),
(354,521,o),
(386,498,cs),
(425,471,o),
(446,432,o),
(451,391,c),
(372,391,l),
(363,430,o),
(319,456,o),
(255,457,c)
);
}
);
width = 509;
}
);
leftKerningGroup = _kern5;
rightKerningGroup = _kern6;
unicode = 115;
},
{
glyphname = c_alt;
layers = (
{
layerId = "1EFDAA9E-0693-44A2-9347-F36F1AB053F3";
shapes = (
{
closed = 1;
nodes = (
(124,-6,o),
(43,107,o),
(43,263,cs),
(43,418,o),
(127,533,o),
(297,533,cs),
(401,533,o),
(473,489,o),
(501,394,c),
(413,394,l),
(390,441,o),
(337,457,o),
(292,457,cs),
(239,457,o),
(194,433,o),
(167,398,cs),
(140,363,o),
(128,315,o),
(128,263,cs),
(128,160,o),
(178,69,o),
(293,69,cs),
(340,69,o),
(390,83,o),
(413,126,c),
(504,126,l),
(475,34,o),
(388,-6,o),
(292,-6,cs)
);
}
);
width = 547;
}
);
leftKerningGroup = _kern5;
rightKerningGroup = _kern6;
},
{
glyphname = copyright;
layers = (
{
layerId = "1EFDAA9E-0693-44A2-9347-F36F1AB053F3";
shapes = (
{
closed = 1;
nodes = (
(700,715,o),
(868,552,o),
(868,296,cs),
(868,37,o),
(704,-122,o),
(463,-122,cs),
(222,-122,o),
(59,37,o),
(59,296,cs),
(59,552,o),
(227,715,o),
(463,715,cs)
);
},
{
closed = 1;
nodes = (
(274,641,o),
(139,508,o),
(139,296,cs),
(139,84,o),
(270,-48,o),
(463,-48,cs),
(656,-48,o),
(787,84,o),
(787,296,cs),
(787,508,o),
(652,641,o),
(463,641,cs)
);
},
{
closed = 1;
nodes = (
(339,83,o),
(275,173,o),
(275,297,cs),
(275,420,o),
(341,510,o),
(469,510,cs),
(565,510,o),
(626,471,o),
(645,375,c),
(564,375,l),
(552,422,o),
(517,437,o),
(470,437,cs),
(388,437,o),
(356,372,o),
(356,297,cs),
(356,221,o),
(389,156,o),
(471,156,cs),
(518,156,o),
(554,171,o),
(566,218,c),
(649,218,l),
(630,126,o),
(563,83,o),
(470,83,cs)
);
}
);
width = 927;
}
);
unicode = 169;
},
{
glyphname = ampersand;
layers = (
{
layerId = "1EFDAA9E-0693-44A2-9347-F36F1AB053F3";
shapes = (
{
closed = 1;
nodes = (
(483,62,l),
(427,11,o),
(359,-8,o),
(283,-8,cs),
(168,-8,o),
(67,55,o),
(67,183,cs),
(67,272,o),
(122,334,o),
(214,381,c),
(162,430,o),
(136,483,o),
(136,541,cs),
(136,600,o),
(158,642,o),
(190,671,cs),
(222,700,o),
(265,715,o),
(322,715,cs),
(418,715,o),
(486,659,o),
(486,559,cs),
(486,475,o),
(418,408,o),
(335,365,c),
(485,187,l),
(508,218,o),
(522,264,o),
(529,312,c),
(613,312,l),
(606,236,o),
(577,177,o),
(541,126,c),
(653,0,l),
(539,0,l)
);
},
{
closed = 1;
nodes = (
(334,444,o),
(401,493,o),
(404,550,cs),
(407,602,o),
(368,636,o),
(315,636,cs),
(255,636,o),
(222,602,o),
(221,546,cs),
(221,491,o),
(259,449,o),
(286,417,c)
);
},
{
closed = 1;
nodes = (
(259,324,l),
(203,295,o),
(158,250,o),
(158,185,cs),
(158,108,o),
(228,71,o),
(297,71,cs),
(342,71,o),
(392,83,o),
(433,124,c)
);
}
);
width = 677;
}
);
unicode = 38;
},
{
glyphname = dollar;
layers = (
{
layerId = "1EFDAA9E-0693-44A2-9347-F36F1AB053F3";
shapes = (
{
closed = 1;
nodes = (
(296,844,l),
(384,844,l),
(384,712,l),
(490,701,o),
(571,641,o),
(576,526,c),
(491,526,l),
(480,609,o),
(410,636,o),
(334,636,cs),
(259,636,o),
(174,613,o),
(174,525,cs),
(174,472,o),
(205,441,o),
(245,424,cs),
(309,397,o),
(393,388,o),
(462,366,cs),
(545,340,o),
(596,290,o),
(596,199,cs),
(596,63,o),
(499,1,o),
(378,-7,c),
(378,-138,l),
(291,-138,l),
(291,-5,l),
(179,6,o),
(83,62,o),
(59,185,c),
(150,185,l),
(177,94,o),
(267,71,o),
(350,71,cs),
(431,71,o),
(507,104,o),
(507,187,cs),
(507,250,o),
(471,275,o),
(415,292,cs),
(340,315,o),
(248,321,o),
(178,358,cs),
(122,388,o),
(84,437,o),
(84,517,cs),
(84,647,o),
(184,706,o),
(296,714,c)
);
}
);
width = 656;
}
);
unicode = 36;
},
{
glyphname = parenleft;
layers = (
{
layerId = "1EFDAA9E-0693-44A2-9347-F36F1AB053F3";
shapes = (
{
closed = 1;
nodes = (
(338,818,l),
(197,634,o),
(150,476,o),
(150,302,cs),
(150,126,o),
(202,-28,o),
(336,-212,c),
(244,-212,l),
(124,-71,o),
(65,135,o),
(65,302,cs),
(65,469,o),
(126,676,o),
(246,818,c)
);
}
);
width = 308;
}
);
unicode = 40;
},
{
glyphname = parenright;
layers = (
{
layerId = "1EFDAA9E-0693-44A2-9347-F36F1AB053F3";
shapes = (
{
closed = 1;
nodes = (
(-30,-212,l),
(109,-28,o),
(158,130,o),
(158,304,cs),
(158,480,o),
(106,634,o),
(-28,818,c),
(64,818,l),
(184,677,o),
(243,471,o),
(243,304,cs),
(243,137,o),
(182,-70,o),
(62,-212,c)
);
}
);
width = 308;
}
);
unicode = 41;
},
{
glyphname = cent;
layers = (
{
layerId = "1EFDAA9E-0693-44A2-9347-F36F1AB053F3";
shapes = (
{
closed = 1;
nodes = (
(257,-2,l),
(124,19,o),
(59,124,o),
(59,263,cs),
(59,402,o),
(126,508,o),
(257,529,c),
(257,671,l),
(344,671,l),
(344,531,l),
(436,523,o),
(502,475,o),
(521,376,c),
(434,376,l),
(418,435,o),
(371,457,o),
(312,457,cs),
(191,457,o),
(143,367,o),
(144,263,cs),
(144,212,o),
(157,163,o),
(184,128,cs),
(211,92,o),
(257,69,o),
(309,69,cs),
(365,69,o),
(421,88,o),
(437,151,c),
(525,151,l),
(506,54,o),
(433,7,o),
(344,-4,c),
(344,-160,l),
(257,-160,l)
);
}
);
width = 584;
}
);
unicode = 162;
},
{
glyphname = section;
layers = (
{
layerId = "1EFDAA9E-0693-44A2-9347-F36F1AB053F3";
shapes = (
{
closed = 1;
nodes = (
(248,639,o),
(224,636,o),
(202,627,cs),
(180,618,o),
(161,599,o),
(161,567,cs),
(161,519,o),
(209,507,o),
(246,499,cs),
(293,489,o),
(365,476,o),
(397,467,cs),
(465,448,o),
(488,407,o),
(488,346,cs),
(488,305,o),
(466,267,o),
(439,246,c),
(475,227,o),
(491,194,o),
(490,143,cs),
(488,24,o),
(376,-8,o),
(288,-8,c),
(227,-7,o),
(180,2,o),
(139,25,cs),
(98,48,o),
(67,84,o),
(59,141,c),
(145,141,l),
(165,80,o),
(244,67,o),
(280,67,cs),
(328,67,o),
(405,70,o),
(405,137,cs),
(405,189,o),
(364,194,o),
(323,202,cs),
(266,213,o),
(187,222,o),
(135,252,cs),
(100,272,o),
(72,313,o),
(72,364,cs),
(72,408,o),
(88,447,o),
(124,472,c),
(95,496,o),
(79,527,o),
(80,565,cs),
(81,623,o),
(110,662,o),
(148,684,cs),
(186,706,o),
(230,713,o),
(279,713,cs),
(373,713,o),
(462,671,o),
(473,571,c),
(394,571,l),
(389,595,o),
(371,612,o),
(350,623,cs),
(329,634,o),
(306,639,o),
(277,639,cs)
);
},
{
closed = 1;
nodes = (
(168,421,o),
(155,393,o),
(155,368,cs),
(155,325,o),
(191,306,o),
(239,297,cs),
(279,290,o),
(337,279,o),
(372,274,c),
(391,282,o),
(407,308,o),
(407,335,cs),
(408,380,o),
(377,394,o),
(332,405,cs),
(285,416,o),
(232,423,o),
(185,436,c)
);
}
);
width = 550;
}
);
unicode = 167;
},
{
glyphname = uni04C1;
layers = (
{
layerId = "1EFDAA9E-0693-44A2-9347-F36F1AB053F3";
shapes = (
{
closed = 1;
nodes = (
(486,853,o),
(520,873,o),
(523,920,c),
(601,920,l),
(598,832,o),
(534,787,o),
(429,787,cs),
(324,787,o),
(262,832,o),
(259,920,c),
(337,920,l),
(340,873,o),
(374,853,o),
(430,853,cs)
);
},
{
closed = 1;
nodes = (
(386,0,l),
(386,307,l),
(278,307,l),
(115,0,l),
(14,0,l),
(206,357,l),
(15,707,l),
(111,707,l),
(280,386,l),
(386,386,l),
(386,707,l),
(473,707,l),
(473,386,l),
(581,386,l),
(750,707,l),
(844,707,l),
(653,357,l),
(846,0,l),
(744,0,l),
(581,307,l),
(473,307,l),
(473,0,l)
);
}
);
width = 860;
}
);
unicode = 1217;
},
{
glyphname = uni04C2;
layers = (
{
layerId = "1EFDAA9E-0693-44A2-9347-F36F1AB053F3";
shapes = (
{
closed = 1;
nodes = (
(437,672,o),
(471,692,o),
(474,739,c),
(552,739,l),
(549,651,o),
(485,606,o),
(380,606,cs),
(275,606,o),
(213,651,o),
(210,739,c),
(288,739,l),
(291,692,o),
(325,672,o),
(381,672,cs)
);
},
{
closed = 1;
nodes = (
(423,0,l),
(338,0,l),
(338,227,l),
(262,227,l),
(113,0,l),
(14,0,l),
(197,276,l),
(29,527,l),
(122,527,l),
(273,299,l),
(338,299,l),
(338,527,l),
(423,527,l),
(423,299,l),
(488,299,l),
(639,527,l),
(732,527,l),
(564,276,l),
(747,0,l),
(648,0,l),
(499,227,l),
(423,227,l)
);
}
);
width = 761;
}
);
unicode = 1218;
},
{
glyphname = w_alt;
layers = (
{
layerId = "1EFDAA9E-0693-44A2-9347-F36F1AB053F3";
shapes = (
{
closed = 1;
nodes = (
(540,82,l),
(664,527,l),
(760,527,l),
(597,0,l),
(480,0,l),
(387,268,l),
(293,0,l),
(178,0,l),
(14,527,l),
(110,527,l),
(236,82,l),
(346,399,l),
(429,399,l)
);
}
);
width = 774;
}
);
leftKerningGroup = _kern20;
rightKerningGroup = _kern20;
},
{
glyphname = W_alt;
layers = (
{
layerId = "1EFDAA9E-0693-44A2-9347-F36F1AB053F3";
shapes = (
{
closed = 1;
nodes = (
(466,417,l),
(339,0,l),
(207,0,l),
(14,707,l),
(112,707,l),
(275,75,l),
(415,538,l),
(519,538,l),
(658,75,l),
(821,707,l),
(915,707,l),
(722,0,l),
(594,0,l)
);
}
);
width = 929;
}
);
leftKerningGroup = _kern19;
rightKerningGroup = _kern19;
},
{
glyphname = zero;
layers = (
{
layerId = "1EFDAA9E-0693-44A2-9347-F36F1AB053F3";
shapes = (
{
closed = 1;
nodes = (
(609,172,o),
(544,-8,o),
(333,-8,cs),
(226,-8,o),
(158,38,o),
(115,105,cs),
(72,172,o),
(57,257,o),
(57,353,cs),
(57,449,o),
(72,535,o),
(115,602,cs),
(158,669,o),
(226,715,o),
(333,715,cs),
(544,715,o),
(609,534,o),
(609,353,cs)
);
},
{
closed = 1;
nodes = (
(146,225,o),
(174,71,o),
(333,71,cs),
(490,71,o),
(519,225,o),
(519,353,cs),
(519,478,o),
(490,636,o),
(333,636,cs),
(174,636,o),
(146,478,o),
(146,353,cs)
);
}
);
width = 665;
}
);
unicode = 48;
},
{
glyphname = one;
layers = (
{
layerId = "1EFDAA9E-0693-44A2-9347-F36F1AB053F3";
shapes = (
{
closed = 1;
nodes = (
(256,0,l),
(169,0,l),
(169,567,l),
(25,567,l),
(25,626,l),
(105,631,o),
(157,642,o),
(195,707,c),
(256,707,l)
);
}
);
width = 363;
}
);
unicode = 49;
},
{
glyphname = two;
layers = (
{
layerId = "1EFDAA9E-0693-44A2-9347-F36F1AB053F3";
shapes = (
{
closed = 1;
nodes = (
(230,246,ls),
(301,307,o),
(417,393,o),
(420,502,cs),
(423,587,o),
(365,635,o),
(280,635,cs),
(212,635,o),
(157,606,o),
(141,553,c),
(48,553,l),
(67,662,o),
(176,715,o),
(284,715,cs),
(415,715,o),
(508,642,o),
(508,510,cs),
(508,379,o),
(424,305,o),
(335,230,cs),
(156,79,l),
(516,79,l),
(516,0,l),
(30,0,l),
(30,73,l)
);
}
);
width = 566;
}
);
unicode = 50;
},
{
glyphname = three;
layers = (
{
layerId = "1EFDAA9E-0693-44A2-9347-F36F1AB053F3";
shapes = (
{
closed = 1;
nodes = (
(180,-8,o),
(52,32,o),
(33,158,c),
(123,158,l),
(147,90,o),
(228,71,o),
(292,71,cs),
(352,71,o),
(452,85,o),
(452,198,cs),
(452,305,o),
(362,320,o),
(280,320,cs),
(212,320,l),
(212,398,l),
(253,398,ls),
(289,398,o),
(317,396,o),
(354,413,cs),
(397,432,o),
(425,471,o),
(425,519,cs),
(425,616,o),
(354,636,o),
(285,636,cs),
(229,636,o),
(160,613,o),
(144,551,c),
(57,551,l),
(73,668,o),
(183,715,o),
(292,715,cs),
(411,715,o),
(511,667,o),
(511,533,cs),
(511,459,o),
(474,402,o),
(405,373,c),
(494,356,o),
(542,290,o),
(542,205,cs),
(542,201,ls),
(542,54,o),
(431,-8,o),
(291,-8,cs)
);
}
);
width = 599;
}
);
unicode = 51;
},
{
glyphname = four;
layers = (
{
layerId = "1EFDAA9E-0693-44A2-9347-F36F1AB053F3";
shapes = (
{
closed = 1;
nodes = (
(513,707,l),
(513,220,l),
(596,220,l),
(596,141,l),
(513,141,l),
(513,0,l),
(426,0,l),
(426,141,l),
(42,141,l),
(42,206,l),
(388,707,l)
);
},
{
closed = 1;
nodes = (
(147,220,l),
(426,220,l),
(426,628,l)
);
}
);
width = 633;
}
);
unicode = 52;
},
{
glyphname = seven;
layers = (
{
layerId = "1EFDAA9E-0693-44A2-9347-F36F1AB053F3";
shapes = (
{
closed = 1;
nodes = (
(100,0,l),
(386,627,l),
(12,627,l),
(12,707,l),
(482,707,l),
(482,635,l),
(196,0,l)
);
}
);
width = 505;
}
);
unicode = 55;
},
{
glyphname = eight;
layers = (
{
layerId = "1EFDAA9E-0693-44A2-9347-F36F1AB053F3";
shapes = (
{
closed = 1;
nodes = (
(565,44,o),
(438,-8,o),
(311,-8,cs),
(183,-8,o),
(57,44,o),
(57,197,cs),
(57,277,o),
(101,337,o),
(174,365,c),
(93,403,o),
(78,477,o),
(78,528,cs),
(78,660,o),
(194,715,o),
(311,715,cs),
(428,715,o),
(544,660,o),
(544,528,cs),
(544,476,o),
(527,405,o),
(447,368,c),
(523,340,o),
(565,277,o),
(565,197,cs)
);
},
{
closed = 1;
nodes = (
(231,636,o),
(168,600,o),
(168,516,cs),
(168,431,o),
(237,397,o),
(311,397,cs),
(386,397,o),
(453,434,o),
(454,512,cs),
(456,603,o),
(388,636,o),
(311,636,cs)
);
},
{
closed = 1;
nodes = (
(228,320,o),
(146,287,o),
(146,196,cs),
(146,93,o),
(248,71,o),
(311,71,cs),
(374,71,o),
(475,93,o),
(475,196,cs),
(475,287,o),
(394,320,o),
(311,320,cs)
);
}
);
width = 622;
}
);
unicode = 56;
},
{
glyphname = nine;
layers = (
{
layerId = "1EFDAA9E-0693-44A2-9347-F36F1AB053F3";
shapes = (
{
closed = 1;
nodes = (
(481,365,l),
(443,287,o),
(359,258,o),
(280,258,cs),
(156,258,o),
(54,336,o),
(54,479,cs),
(54,620,o),
(153,715,o),
(300,715,cs),
(508,715,o),
(564,516,o),
(564,343,cs),
(564,247,o),
(543,146,o),
(494,82,cs),
(451,26,o),
(383,-8,o),
(287,-8,cs),
(185,-8,o),
(88,43,o),
(62,146,c),
(158,146,l),
(182,95,o),
(243,71,o),
(297,71,cs),
(362,72,o),
(407,99,o),
(435,142,cs),
(475,204,o),
(481,300,o),
(481,343,cs)
);
},
{
closed = 1;
nodes = (
(143,394,o),
(201,339,o),
(293,338,cs),
(378,338,o),
(450,395,o),
(450,481,cs),
(450,572,o),
(385,636,o),
(297,636,cs),
(208,636,o),
(143,569,o),
(143,487,cs)
);
}
);
width = 620;
}
);
unicode = 57;
},
{
glyphname = uni0430;
layers = (
{
layerId = "1EFDAA9E-0693-44A2-9347-F36F1AB053F3";
shapes = (
{
closed = 1;
nodes = (
(414,67,l),
(369,6,o),
(294,-6,o),
(236,-6,cs),
(140,-6,o),
(49,45,o),
(49,150,cs),
(49,271,o),
(144,309,o),
(252,309,cs),
(407,309,l),
(407,398,o),
(372,457,o),
(280,457,cs),
(224,457,o),
(178,440,o),
(162,397,c),
(71,397,l),
(89,492,o),
(190,532,o),
(280,533,cs),
(359,533,o),
(412,505,o),
(445,463,cs),
(478,421,o),
(490,360,o),
(490,285,cs),
(490,0,l),
(419,0,l)
);
},
{
closed = 1;
nodes = (
(314,238,l),
(282,239,o),
(237,241,o),
(198,232,cs),
(159,223,o),
(134,197,o),
(134,156,cs),
(134,96,o),
(187,69,o),
(244,69,cs),
(344,69,o),
(407,119,o),
(407,212,cs),
(407,238,l)
);
}
);
width = 555;
}
);
leftKerningGroup = _kern27;
rightKerningGroup = _kern27;
unicode = 1072;
},
{
glyphname = uni0435;
layers = (
{
layerId = "1EFDAA9E-0693-44A2-9347-F36F1AB053F3";
shapes = (
{
closed = 1;
nodes = (
(133,232,l),
(141,140,o),
(193,69,o),
(297,69,cs),
(349,69,o),
(409,87,o),
(428,141,c),
(515,141,l),
(491,39,o),
(395,-6,o),
(295,-6,cs),
(127,-6,o),
(47,106,o),
(47,263,cs),
(47,420,o),
(134,533,o),
(294,533,cs),
(378,533,o),
(440,497,o),
(477,443,cs),
(514,389,o),
(528,321,o),
(526,268,cs),
(525,256,o),
(525,244,o),
(524,232,c)
);
},
{
closed = 1;
nodes = (
(440,306,l),
(437,395,o),
(380,457,o),
(291,457,cs),
(192,457,o),
(143,387,o),
(135,306,c)
);
}
);
width = 573;
}
);
leftKerningGroup = _kern9;
rightKerningGroup = _kern10;
unicode = 1077;
},
{
glyphname = uni043E;
layers = (
{
layerId = "1EFDAA9E-0693-44A2-9347-F36F1AB053F3";
shapes = (
{
closed = 1;
nodes = (
(465,533,o),
(548,420,o),
(548,263,cs),
(548,106,o),
(465,-6,o),
(297,-6,cs),
(130,-6,o),
(47,106,o),
(47,263,cs),
(47,420,o),
(129,533,o),
(299,533,cs)
);
},
{
closed = 1;
nodes = (
(413,69,o),
(463,155,o),
(463,263,cs),
(463,371,o),
(413,457,o),
(297,457,cs),
(182,457,o),
(132,371,o),
(132,263,cs),
(132,155,o),
(182,69,o),
(297,69,cs)
);
}
);
width = 595;
}
);
leftKerningGroup = _kern9;
rightKerningGroup = _kern10;
unicode = 1086;
},
{
glyphname = uni0441;
layers = (
{
layerId = "1EFDAA9E-0693-44A2-9347-F36F1AB053F3";
shapes = (
{
closed = 1;
nodes = (
(125,-6,o),
(47,107,o),
(47,262,cs),
(47,411,o),
(128,533,o),
(302,533,cs),
(356,533,o),
(395,522,o),
(432,497,cs),
(468,472,o),
(496,433,o),
(508,376,c),
(421,376,l),
(401,435,o),
(356,458,o),
(297,457,c),
(178,457,o),
(132,362,o),
(132,262,cs),
(132,158,o),
(180,69,o),
(295,69,cs),
(351,69,o),
(408,89,o),
(424,151,c),
(512,151,l),
(491,42,o),
(396,-6,o),
(292,-6,cs)
);
}
);
width = 553;
}
);
leftKerningGroup = _kern9;
rightKerningGroup = _kern10;
unicode = 1089;
},
{
glyphname = uni0218;
layers = (
{
layerId = "1EFDAA9E-0693-44A2-9347-F36F1AB053F3";
shapes = (
{
closed = 1;
nodes = (
(248,636,o),
(163,613,o),
(163,525,cs),
(163,472,o),
(195,440,o),
(235,423,cs),
(299,396,o),
(383,389,o),
(451,366,cs),
(532,338,o),
(585,288,o),
(585,203,cs),
(585,47,o),
(466,-8,o),
(332,-8,cs),
(196,-8,o),
(78,43,o),
(48,185,c),
(139,185,l),
(166,94,o),
(256,71,o),
(339,71,cs),
(420,71,o),
(496,104,o),
(496,187,cs),
(496,250,o),
(460,275,o),
(404,292,cs),
(330,315,o),
(234,320,o),
(167,359,cs),
(112,391,o),
(73,437,o),
(73,517,cs),
(73,666,o),
(202,715,o),
(318,715,cs),
(377,715,o),
(418,707,o),
(457,689,cs),
(517,661,o),
(561,610,o),
(565,526,c),
(480,526,l),
(469,609,o),
(399,636,o),
(323,636,cs)
);
},
{
closed = 1;
nodes = (
(289,-183,o),
(266,-162,o),
(266,-129,cs),
(266,-92,o),
(292,-71,o),
(323,-71,cs),
(371,-71,o),
(390,-109,o),
(389,-150,cs),
(387,-217,o),
(341,-286,o),
(287,-305,c),
(263,-272,l),
(290,-253,o),
(316,-218,o),
(324,-186,c)
);
}
);
width = 634;
}
);
unicode = 536;
},
{
glyphname = uni0219;
layers = (
{
layerId = "1EFDAA9E-0693-44A2-9347-F36F1AB053F3";
shapes = (
{
closed = 1;
nodes = (
(217,457,o),
(145,448,o),
(143,384,cs),
(142,339,o),
(180,320,o),
(235,308,cs),
(281,298,o),
(346,288,o),
(378,278,cs),
(442,257,o),
(474,216,o),
(474,151,c),
(473,84,o),
(445,48,o),
(405,25,cs),
(365,2,o),
(312,-6,o),
(263,-6,cs),
(166,-5,o),
(59,28,o),
(43,143,c),
(129,143,l),
(140,111,o),
(164,94,o),
(191,83,cs),
(218,72,o),
(241,69,o),
(264,69,cs),
(288,69,o),
(319,71,o),
(343,80,cs),
(367,89,o),
(389,111,o),
(389,144,cs),
(389,188,o),
(360,203,o),
(316,212,cs),
(253,224,o),
(175,231,o),
(121,265,cs),
(86,288,o),
(57,325,o),
(59,386,cs),
(60,442,o),
(88,477,o),
(125,501,cs),
(165,526,o),
(218,533,o),
(261,533,cs),
(316,533,o),
(359,520,o),
(390,498,cs),
(429,470,o),
(450,432,o),
(455,391,c),
(376,391,l),
(367,430,o),
(322,456,o),
(262,457,c)
);
},
{
closed = 1;
nodes = (
(226,-183,o),
(203,-162,o),
(203,-129,cs),
(203,-92,o),
(232,-71,o),
(261,-71,cs),
(310,-72,o),
(327,-109,o),
(326,-150,cs),
(324,-217,o),
(278,-286,o),
(224,-305,c),
(200,-272,l),
(227,-253,o),
(253,-218,o),
(261,-186,c)
);
}
);
width = 518;
}
);
leftKerningGroup = _kern5;
rightKerningGroup = _kern6;
unicode = 537;
},
{
glyphname = uni021A;
layers = (
{
layerId = "1EFDAA9E-0693-44A2-9347-F36F1AB053F3";
shapes = (
{
closed = 1;
nodes = (
(328,0,l),
(241,0,l),
(241,628,l),
(14,628,l),
(14,707,l),
(555,707,l),
(555,628,l),
(328,628,l)
);
},
{
closed = 1;
nodes = (
(250,-183,o),
(227,-162,o),
(227,-129,cs),
(227,-92,o),
(256,-71,o),
(285,-71,cs),
(334,-72,o),
(351,-109,o),
(350,-150,cs),
(348,-217,o),
(302,-286,o),
(248,-305,c),
(224,-272,l),
(251,-253,o),
(277,-218,o),
(285,-186,c)
);
}
);
width = 569;
}
);
leftKerningGroup = _kern28;
rightKerningGroup = _kern28;
unicode = 538;
},
{
glyphname = uni021B;
layers = (
{
layerId = "1EFDAA9E-0693-44A2-9347-F36F1AB053F3";
shapes = (
{
closed = 1;
nodes = (
(200,527,l),
(341,527,l),
(341,452,l),
(200,452,l),
(200,179,ls),
(200,107,o),
(223,74,o),
(299,74,cs),
(338,74,l),
(338,0,l),
(281,0,ls),
(161,0,o),
(115,53,o),
(115,170,cs),
(115,452,l),
(29,452,l),
(29,527,l),
(115,527,l),
(115,684,l),
(200,684,l)
);
},
{
closed = 1;
nodes = (
(177,-183,o),
(154,-162,o),
(154,-129,cs),
(154,-92,o),
(182,-71,o),
(214,-71,cs),
(257,-71,o),
(278,-109,o),
(277,-150,cs),
(275,-217,o),
(229,-286,o),
(175,-305,c),
(151,-272,l),
(178,-253,o),
(204,-218,o),
(212,-186,c)
);
}
);
width = 380;
}
);
leftKerningGroup = _kern21;
rightKerningGroup = _kern21;
unicode = 539;
},
{
glyphname = icircumflex;
layers = (
{
layerId = "1EFDAA9E-0693-44A2-9347-F36F1AB053F3";
shapes = (
{
closed = 1;
nodes = (
(159,769,l),
(293,606,l),
(207,606,l),
(129,702,l),
(51,606,l),
(-34,606,l),
(99,769,l)
);
},
{
closed = 1;
nodes = (
(173,0,l),
(88,0,l),
(88,527,l),
(173,527,l)
);
}
);
width = 269;
}
);
unicode = 238;
},
{
glyphname = question;
layers = (
{
layerId = "1EFDAA9E-0693-44A2-9347-F36F1AB053F3";
shapes = (
{
closed = 1;
nodes = (
(191,213,l),
(190,220,o),
(190,227,o),
(190,234,cs),
(190,266,o),
(195,296,o),
(226,333,cs),
(253,364,o),
(298,401,o),
(327,434,cs),
(353,462,o),
(371,500,o),
(371,533,cs),
(371,601,o),
(323,636,o),
(254,636,cs),
(199,636,o),
(139,616,o),
(125,556,c),
(37,556,l),
(50,663,o),
(150,715,o),
(253,715,cs),
(309,715,o),
(360,700,o),
(397,671,cs),
(434,642,o),
(458,601,o),
(458,537,c),
(457,476,o),
(432,427,o),
(390,384,cs),
(362,354,o),
(311,312,o),
(291,279,cs),
(281,262,o),
(278,238,o),
(278,221,cs),
(278,213,l)
);
},
{
closed = 1;
nodes = (
(268,112,o),
(293,87,o),
(293,52,cs),
(293,17,o),
(268,-8,o),
(233,-8,cs),
(198,-8,o),
(174,17,o),
(174,52,cs),
(174,87,o),
(198,112,o),
(233,112,cs)
);
}
);
width = 513;
}
);
unicode = 63;
},
{
glyphname = uni2116;
layers = (
{
layerId = "1EFDAA9E-0693-44A2-9347-F36F1AB053F3";
shapes = (
{
closed = 1;
nodes = (
(762,402,o),
(711,471,o),
(711,559,cs),
(711,650,o),
(763,715,o),
(858,715,cs),
(950,715,o),
(1002,650,o),
(1002,559,cs),
(1002,471,o),
(950,402,o),
(858,402,cs)
);
},
{
closed = 1;
nodes = (
(59,0,l),
(59,707,l),
(170,707,l),
(526,118,l),
(526,707,l),
(613,707,l),
(613,0,l),
(504,0,l),
(146,587,l),
(146,0,l)
);
},
{
closed = 1;
nodes = (
(804,644,o),
(784,603,o),
(784,559,cs),
(784,512,o),
(805,473,o),
(857,473,cs),
(909,473,o),
(927,514,o),
(927,559,cs),
(927,603,o),
(909,644,o),
(857,644,cs)
);
},
{
closed = 1;
nodes = (
(716,350,l),
(997,350,l),
(997,273,l),
(716,273,l)
);
}
);
width = 1061;
}
);
unicode = 8470;
},
{
glyphname = uni0401;
layers = (
{
layerId = "1EFDAA9E-0693-44A2-9347-F36F1AB053F3";
shapes = (
{
closed = 1;
nodes = (
(246,900,o),
(272,881,o),
(272,845,cs),
(272,808,o),
(250,787,o),
(215,787,cs),
(182,787,o),
(158,808,o),
(158,845,cs),
(158,881,o),
(184,900,o),
(215,900,cs)
);
},
{
closed = 1;
nodes = (
(478,900,o),
(504,881,o),
(504,845,cs),
(504,808,o),
(480,787,o),
(447,787,cs),
(412,787,o),
(390,808,o),
(390,845,cs),
(390,881,o),
(416,900,o),
(447,900,cs)
);
},
{
closed = 1;
nodes = (
(87,707,l),
(562,707,l),
(562,628,l),
(174,628,l),
(174,387,l),
(523,387,l),
(523,307,l),
(174,307,l),
(174,79,l),
(562,79,l),
(562,0,l),
(87,0,l)
);
}
);
width = 610;
}
);
unicode = 1025;
},
{
glyphname = asciitilde;
layers = (
{
layerId = "1EFDAA9E-0693-44A2-9347-F36F1AB053F3";
shapes = (
{
closed = 1;
nodes = (
(87,271,l),
(87,358,o),
(115,447,o),
(222,447,cs),
(318,447,o),
(359,332,o),
(420,332,cs),
(474,332,o),
(479,399,o),
(479,439,c),
(554,439,l),
(551,352,o),
(525,263,o),
(418,263,cs),
(322,263,o),
(281,377,o),
(220,377,cs),
(167,377,o),
(162,310,o),
(162,271,c)
);
}
);
width = 641;
}
);
unicode = 126;
},
{
glyphname = trademark;
layers = (
{
layerId = "1EFDAA9E-0693-44A2-9347-F36F1AB053F3";
shapes = (
{
closed = 1;
nodes = (
(518,707,l),
(613,707,l),
(613,445,l),
(550,445,l),
(550,643,l),
(484,499,l),
(447,499,l),
(381,643,l),
(381,445,l),
(318,445,l),
(318,707,l),
(414,707,l),
(466,592,l)
);
},
{
closed = 1;
nodes = (
(144,648,l),
(59,648,l),
(59,707,l),
(294,707,l),
(294,648,l),
(208,648,l),
(208,445,l),
(144,445,l)
);
}
);
width = 672;
}
);
unicode = 8482;
},
{
glyphname = registered;
layers = (
{
layerId = "1EFDAA9E-0693-44A2-9347-F36F1AB053F3";
shapes = (
{
closed = 1;
nodes = (
(359,744,o),
(431,668,o),
(431,552,cs),
(431,435,o),
(359,365,o),
(242,365,cs),
(125,365,o),
(52,435,o),
(52,552,cs),
(52,668,o),
(125,744,o),
(242,744,cs)
);
},
{
closed = 1;
nodes = (
(153,699,o),
(100,640,o),
(100,552,cs),
(100,464,o),
(154,412,o),
(242,412,cs),
(330,412,o),
(382,464,o),
(382,552,cs),
(382,640,o),
(331,699,o),
(242,699,cs)
);
},
{
closed = 1;
nodes = (
(338,459,l),
(285,459,l),
(238,528,l),
(214,528,l),
(214,459,l),
(170,459,l),
(170,656,l),
(253,656,ls),
(296,656,o),
(325,640,o),
(325,593,cs),
(325,562,o),
(313,543,o),
(288,534,c)
);
},
{
closed = 1;
nodes = (
(253,568,ls),
(269,568,o),
(281,576,o),
(281,592,cs),
(281,607,o),
(269,614,o),
(256,614,cs),
(214,614,l),
(214,568,l)
);
}
);
width = 483;
}
);
unicode = 174;
},
{
glyphname = degree;
layers = (
{
layerId = "1EFDAA9E-0693-44A2-9347-F36F1AB053F3";
shapes = (
{
closed = 1;
nodes = (
(254,818,o),
(311,768,o),
(311,688,cs),
(311,609,o),
(253,564,o),
(183,564,cs),
(111,564,o),
(59,608,o),
(59,688,cs),
(59,768,o),
(117,818,o),
(186,818,cs)
);
},
{
closed = 1;
nodes = (
(224,618,o),
(252,643,o),
(252,690,cs),
(252,737,o),
(222,762,o),
(185,762,cs),
(148,762,o),
(117,737,o),
(117,690,cs),
(117,643,o),
(146,618,o),
(185,618,cs)
);
}
);
width = 370;
}
);
unicode = 176;
},
{
glyphname = bullet;
layers = (
{
layerId = "1EFDAA9E-0693-44A2-9347-F36F1AB053F3";
shapes = (
{
closed = 1;
nodes = (
(232,475,o),
(281,433,o),
(281,364,cs),
(281,299,o),
(231,256,o),
(171,256,cs),
(115,256,o),
(59,291,o),
(59,364,cs),
(59,433,o),
(108,475,o),
(172,475,cs)
);
}
);
width = 340;
}
);
unicode = 8226;
},
{
glyphname = uni27F5;
layers = (
{
layerId = "1EFDAA9E-0693-44A2-9347-F36F1AB053F3";
shapes = (
{
closed = 1;
nodes = (
(1297,307,l),
(1297,230,l),
(197,230,l),
(427,13,l),
(377,-48,l),
(59,269,l),
(376,585,l),
(427,524,l),
(196,307,l)
);
}
);
width = 1356;
}
);
unicode = 10229;
},
{
glyphname = uni27F6;
layers = (
{
layerId = "1EFDAA9E-0693-44A2-9347-F36F1AB053F3";
shapes = (
{
closed = 1;
nodes = (
(1160,230,l),
(59,230,l),
(59,307,l),
(1159,307,l),
(929,524,l),
(979,585,l),
(1297,268,l),
(980,-48,l),
(929,13,l)
);
}
);
width = 1356;
}
);
unicode = 10230;
},
{
glyphname = arrowup;
layers = (
{
layerId = "1EFDAA9E-0693-44A2-9347-F36F1AB053F3";
shapes = (
{
closed = 1;
nodes = (
(387,0,l),
(313,0,l),
(313,522,l),
(115,276,l),
(59,324,l),
(350,674,l),
(642,324,l),
(585,276,l),
(387,522,l)
);
}
);
width = 701;
}
);
unicode = 8593;
},
{
glyphname = arrowdown;
layers = (
{
layerId = "1EFDAA9E-0693-44A2-9347-F36F1AB053F3";
shapes = (
{
closed = 1;
nodes = (
(314,152,l),
(314,674,l),
(388,674,l),
(388,152,l),
(586,398,l),
(642,350,l),
(351,0,l),
(59,350,l),
(116,398,l)
);
}
);
width = 701;
}
);
unicode = 8595;
},
{
glyphname = uni21BA;
layers = (
{
layerId = "1EFDAA9E-0693-44A2-9347-F36F1AB053F3";
shapes = (
{
closed = 1;
nodes = (
(631,689,l),
(751,608,o),
(814,472,o),
(813,329,cs),
(811,129,o),
(674,-50,o),
(440,-50,c),
(205,-47,o),
(62,109,o),
(60,336,cs),
(59,465,o),
(107,578,o),
(195,662,c),
(253,599,l),
(185,527,o),
(146,432,o),
(147,336,cs),
(149,165,o),
(261,34,o),
(434,34,cs),
(630,34,o),
(718,179,o),
(721,332,cs),
(723,439,o),
(670,567,o),
(583,633,c),
(574,402,l),
(504,402,l),
(518,768,l),
(878,723,l),
(868,651,l)
);
}
);
width = 937;
}
);
unicode = 8634;
},
{
glyphname = uni21BB;
layers = (
{
layerId = "1EFDAA9E-0693-44A2-9347-F36F1AB053F3";
shapes = (
{
closed = 1;
nodes = (
(69,651,l),
(59,723,l),
(419,768,l),
(433,402,l),
(363,402,l),
(354,633,l),
(267,567,o),
(214,439,o),
(216,332,cs),
(219,179,o),
(307,34,o),
(503,34,cs),
(676,34,o),
(788,165,o),
(790,336,cs),
(791,432,o),
(752,527,o),
(684,599,c),
(742,662,l),
(830,578,o),
(878,462,o),
(877,346,cs),
(875,114,o),
(736,-50,o),
(497,-50,cs),
(263,-50,o),
(125,129,o),
(124,329,cs),
(124,472,o),
(186,606,o),
(306,689,c)
);
}
);
width = 937;
}
);
unicode = 8635;
},
{
glyphname = uni21B7;
layers = (
{
layerId = "1EFDAA9E-0693-44A2-9347-F36F1AB053F3";
shapes = (
{
closed = 1;
nodes = (
(926,166,l),
(953,99,l),
(614,-27,l),
(512,329,l),
(582,345,l),
(646,117,l),
(693,175,o),
(720,271,o),
(720,347,cs),
(720,516,o),
(613,652,o),
(434,652,cs),
(271,652,o),
(164,531,o),
(148,376,c),
(59,376,l),
(78,582,o),
(219,738,o),
(434,738,cs),
(663,738,o),
(806,571,o),
(806,347,cs),
(806,255,o),
(777,155,o),
(717,82,c)
);
}
);
width = 1012;
}
);
unicode = 8631;
},
{
glyphname = uni21B6;
layers = (
{
layerId = "1EFDAA9E-0693-44A2-9347-F36F1AB053F3";
shapes = (
{
closed = 1;
nodes = (
(295,82,l),
(235,155,o),
(206,255,o),
(206,347,cs),
(206,571,o),
(349,738,o),
(578,738,cs),
(793,738,o),
(934,582,o),
(953,376,c),
(864,376,l),
(848,531,o),
(741,652,o),
(578,652,cs),
(399,652,o),
(292,516,o),
(292,347,cs),
(292,271,o),
(319,175,o),
(366,117,c),
(430,345,l),
(500,329,l),
(398,-27,l),
(59,99,l),
(86,166,l)
);
}
);
width = 1012;
}
);
unicode = 8630;
},
{
glyphname = five;
layers = (
{
layerId = "1EFDAA9E-0693-44A2-9347-F36F1AB053F3";
shapes = (
{
closed = 1;
nodes = (
(82,318,l),
(114,707,l),
(537,707,l),
(537,627,l),
(192,627,l),
(172,405,l),
(208,434,o),
(258,454,o),
(334,454,cs),
(470,454,o),
(562,365,o),
(562,228,cs),
(562,80,o),
(452,-9,o),
(308,-9,cs),
(191,-9,o),
(86,43,o),
(62,160,c),
(150,160,l),
(171,104,o),
(240,71,o),
(300,71,cs),
(397,71,o),
(472,117,o),
(472,223,cs),
(472,320,o),
(407,374,o),
(314,374,cs),
(258,374,o),
(211,353,o),
(172,318,c)
);
}
);
width = 616;
}
);
unicode = 53;
},
{
glyphname = six;
layers = (
{
layerId = "1EFDAA9E-0693-44A2-9347-F36F1AB053F3";
shapes = (
{
closed = 1;
nodes = (
(188,420,o),
(261,451,o),
(338,451,cs),
(477,451,o),
(569,359,o),
(569,227,cs),
(569,87,o),
(468,-8,o),
(328,-8,cs),
(135,-8,o),
(58,152,o),
(58,330,cs),
(58,441,o),
(76,540,o),
(135,618,cs),
(178,675,o),
(245,715,o),
(340,715,cs),
(442,715,o),
(530,661,o),
(562,561,c),
(471,561,l),
(447,610,o),
(392,636,o),
(339,636,cs),
(187,636,o),
(143,477,o),
(143,351,c)
);
},
{
closed = 1;
nodes = (
(480,305,o),
(419,370,o),
(330,370,cs),
(247,370,o),
(170,312,o),
(170,220,cs),
(170,136,o),
(238,71,o),
(326,71,cs),
(415,71,o),
(480,135,o),
(480,218,cs)
);
}
);
width = 623;
}
);
unicode = 54;
},
{
glyphname = dieresis;
layers = (
{
layerId = "1EFDAA9E-0693-44A2-9347-F36F1AB053F3";
shapes = (
{
closed = 1;
nodes = (
(207,718,o),
(232,695,o),
(232,662,cs),
(232,629,o),
(207,606,o),
(174,606,cs),
(142,606,o),
(117,629,o),
(117,662,cs),
(117,695,o),
(142,718,o),
(174,718,cs)
);
},
{
closed = 1;
nodes = (
(432,718,o),
(457,695,o),
(457,662,cs),
(457,629,o),
(432,606,o),
(399,606,cs),
(367,606,o),
(343,629,o),
(343,662,cs),
(343,695,o),
(367,718,o),
(399,718,cs)
);
}
);
width = 574;
}
);
unicode = 168;
},
{
glyphname = adieresis;
layers = (
{
layerId = "1EFDAA9E-0693-44A2-9347-F36F1AB053F3";
shapes = (
{
closed = 1;
nodes = (
(200,707,o),
(225,684,o),
(225,651,cs),
(225,618,o),
(200,595,o),
(167,595,cs),
(135,595,o),
(110,618,o),
(110,651,cs),
(110,684,o),
(135,707,o),
(167,707,cs)
);
},
{
closed = 1;
nodes = (
(425,707,o),
(450,684,o),
(450,651,cs),
(450,618,o),
(425,595,o),
(392,595,cs),
(360,595,o),
(336,618,o),
(336,651,cs),
(336,684,o),
(360,707,o),
(392,707,cs)
);
},
{
closed = 1;
nodes = (
(414,67,l),
(369,7,o),
(298,-6,o),
(236,-6,cs),
(138,-6,o),
(49,46,o),
(49,150,cs),
(49,271,o),
(144,309,o),
(252,309,cs),
(407,309,l),
(407,398,o),
(372,455,o),
(280,457,cs),
(224,458,o),
(178,440,o),
(162,397,c),
(71,397,l),
(89,492,o),
(190,533,o),
(280,533,cs),
(359,533,o),
(412,505,o),
(445,463,cs),
(478,421,o),
(490,360,o),
(490,285,cs),
(490,0,l),
(419,0,l)
);
},
{
closed = 1;
nodes = (
(314,238,ls),
(282,238,o),
(237,239,o),
(198,231,cs),
(159,223,o),
(134,197,o),
(134,156,cs),
(134,96,o),
(187,69,o),
(244,69,cs),
(344,69,o),
(406,119,o),
(407,212,c),
(407,238,l)
);
}
);
width = 555;
}
);
leftKerningGroup = _kern27;
rightKerningGroup = _kern27;
unicode = 228;
},
{
glyphname = Adieresis;
layers = (
{
layerId = "1EFDAA9E-0693-44A2-9347-F36F1AB053F3";
shapes = (
{
closed = 1;
nodes = (
(259,900,o),
(284,877,o),
(284,844,cs),
(284,811,o),
(259,788,o),
(226,788,cs),
(194,788,o),
(169,811,o),
(169,844,cs),
(169,877,o),
(194,900,o),
(226,900,cs)
);
},
{
closed = 1;
nodes = (
(484,900,o),
(509,877,o),
(509,844,cs),
(509,811,o),
(484,788,o),
(451,788,cs),
(419,788,o),
(395,811,o),
(395,844,cs),
(395,877,o),
(419,900,o),
(451,900,cs)
);
},
{
closed = 1;
nodes = (
(660,0,l),
(566,0,l),
(510,152,l),
(160,152,l),
(104,0,l),
(10,0,l),
(273,707,l),
(398,707,l)
);
},
{
closed = 1;
nodes = (
(481,231,l),
(335,631,l),
(189,231,l)
);
}
);
width = 670;
}
);
leftKerningGroup = _kern30;
rightKerningGroup = _kern30;
unicode = 196;
},
{
glyphname = cedilla;
layers = (
{
layerId = "1EFDAA9E-0693-44A2-9347-F36F1AB053F3";
shapes = (
{
closed = 1;
nodes = (
(295,-59,l),
(303,-58,o),
(311,-57,o),
(318,-57,cs),
(370,-57,o),
(397,-87,o),
(397,-138,cs),
(397,-182,o),
(375,-214,o),
(344,-231,cs),
(303,-253,o),
(256,-253,o),
(217,-253,c),
(217,-198,l),
(262,-198,o),
(328,-197,o),
(328,-145,cs),
(328,-110,o),
(284,-110,o),
(271,-110,cs),
(258,-110,o),
(236,-112,o),
(219,-119,c),
(248,8,l),
(310,8,l)
);
}
);
width = 598;
}
);
unicode = 184;
},
{
glyphname = Ecircumflex;
layers = (
{
layerId = "1EFDAA9E-0693-44A2-9347-F36F1AB053F3";
shapes = (
{
closed = 1;
nodes = (
(87,0,l),
(87,707,l),
(562,707,l),
(562,628,l),
(174,628,l),
(174,390,l),
(523,390,l),
(523,310,l),
(174,310,l),
(174,79,l),
(562,79,l),
(562,0,l)
);
},
{
closed = 1;
nodes = (
(360,949,l),
(494,786,l),
(408,786,l),
(330,883,l),
(252,786,l),
(167,786,l),
(300,949,l)
);
}
);
width = 610;
}
);
unicode = 202;
},
{
glyphname = ecircumflex;
layers = (
{
layerId = "1EFDAA9E-0693-44A2-9347-F36F1AB053F3";
shapes = (
{
closed = 1;
nodes = (
(129,232,l),
(137,140,o),
(189,69,o),
(293,69,cs),
(345,69,o),
(405,87,o),
(424,141,c),
(511,141,l),
(487,39,o),
(391,-6,o),
(291,-6,cs),
(123,-6,o),
(43,106,o),
(43,263,cs),
(43,420,o),
(130,533,o),
(290,533,cs),
(374,533,o),
(436,497,o),
(473,443,cs),
(510,389,o),
(524,321,o),
(522,268,cs),
(521,256,o),
(521,244,o),
(520,232,c)
);
},
{
closed = 1;
nodes = (
(436,306,l),
(433,395,o),
(376,457,o),
(287,457,cs),
(188,457,o),
(139,387,o),
(131,306,c)
);
},
{
closed = 1;
nodes = (
(321,769,l),
(455,606,l),
(369,606,l),
(291,702,l),
(213,606,l),
(128,606,l),
(261,769,l)
);
}
);
width = 567;
}
);
leftKerningGroup = _kern5;
rightKerningGroup = _kern6;
unicode = 234;
},
{
glyphname = Odieresis;
layers = (
{
layerId = "1EFDAA9E-0693-44A2-9347-F36F1AB053F3";
shapes = (
{
closed = 1;
nodes = (
(304,900,o),
(329,877,o),
(329,844,cs),
(329,811,o),
(304,788,o),
(271,788,cs),
(239,788,o),
(214,811,o),
(214,844,cs),
(214,877,o),
(239,900,o),
(271,900,cs)
);
},
{
closed = 1;
nodes = (
(529,900,o),
(554,877,o),
(554,844,cs),
(554,811,o),
(529,788,o),
(496,788,cs),
(464,788,o),
(440,811,o),
(440,844,cs),
(440,877,o),
(464,900,o),
(496,900,cs)
);
},
{
closed = 1;
nodes = (
(161,-8,o),
(48,146,o),
(48,353,cs),
(48,561,o),
(161,715,o),
(381,715,cs),
(600,715,o),
(713,561,o),
(713,353,cs),
(713,146,o),
(600,-8,o),
(381,-8,cs)
);
},
{
closed = 1;
nodes = (
(214,636,o),
(136,506,o),
(136,353,cs),
(136,201,o),
(212,71,o),
(381,71,cs),
(549,71,o),
(624,199,o),
(624,353,cs),
(624,508,o),
(547,636,o),
(381,636,cs)
);
}
);
width = 761;
}
);
leftKerningGroup = _kern3;
rightKerningGroup = _kern4;
unicode = 214;
},
{
glyphname = odieresis;
layers = (
{
layerId = "1EFDAA9E-0693-44A2-9347-F36F1AB053F3";
shapes = (
{
closed = 1;
nodes = (
(217,707,o),
(242,684,o),
(242,651,cs),
(242,618,o),
(217,595,o),
(184,595,cs),
(152,595,o),
(127,618,o),
(127,651,cs),
(127,684,o),
(152,707,o),
(184,707,cs)
);
},
{
closed = 1;
nodes = (
(442,707,o),
(467,684,o),
(467,651,cs),
(467,618,o),
(442,595,o),
(409,595,cs),
(377,595,o),
(353,618,o),
(353,651,cs),
(353,684,o),
(377,707,o),
(409,707,cs)
);
},
{
closed = 1;
nodes = (
(461,533,o),
(544,420,o),
(544,263,cs),
(544,106,o),
(461,-6,o),
(293,-6,cs),
(126,-6,o),
(43,106,o),
(43,263,cs),
(43,420,o),
(126,533,o),
(293,533,cs)
);
},
{
closed = 1;
nodes = (
(409,69,o),
(459,155,o),
(459,263,cs),
(459,371,o),
(409,457,o),
(293,457,cs),
(178,457,o),
(128,371,o),
(128,263,cs),
(128,155,o),
(178,69,o),
(293,69,cs)
);
}
);
width = 587;
}
);
leftKerningGroup = _kern5;
rightKerningGroup = _kern6;
unicode = 246;
},
{
glyphname = dotlessi;
layers = (
{
layerId = "1EFDAA9E-0693-44A2-9347-F36F1AB053F3";
shapes = (
{
closed = 1;
nodes = (
(152,0,l),
(67,0,l),
(67,527,l),
(152,527,l)
);
}
);
width = 219;
}
);
unicode = 305;
},
{
glyphname = Idotaccent;
layers = (
{
layerId = "1EFDAA9E-0693-44A2-9347-F36F1AB053F3";
shapes = (
{
closed = 1;
nodes = (
(162,897,o),
(188,874,o),
(188,841,cs),
(188,808,o),
(162,784,o),
(130,784,cs),
(97,784,o),
(73,808,o),
(73,841,cs),
(73,874,o),
(97,897,o),
(130,897,cs)
);
},
{
closed = 1;
nodes = (
(174,0,l),
(87,0,l),
(87,707,l),
(174,707,l)
);
}
);
width = 261;
}
);
leftKerningGroup = _kern1;
rightKerningGroup = _kern2;
unicode = 304;
},
{
glyphname = udieresis;
layers = (
{
layerId = "1EFDAA9E-0693-44A2-9347-F36F1AB053F3";
shapes = (
{
closed = 1;
nodes = (
(207,707,o),
(232,684,o),
(232,651,cs),
(232,618,o),
(207,595,o),
(174,595,cs),
(142,595,o),
(117,618,o),
(117,651,cs),
(117,684,o),
(142,707,o),
(174,707,cs)
);
},
{
closed = 1;
nodes = (
(432,707,o),
(457,684,o),
(457,651,cs),
(457,618,o),
(432,595,o),
(399,595,cs),
(367,595,o),
(343,618,o),
(343,651,cs),
(343,684,o),
(367,707,o),
(399,707,cs)
);
},
{
closed = 1;
nodes = (
(383,69,o),
(426,130,o),
(426,234,cs),
(426,527,l),
(511,527,l),
(511,230,ls),
(511,70,o),
(432,-6,o),
(287,-6,cs),
(142,-6,o),
(65,70,o),
(65,230,cs),
(65,527,l),
(150,527,l),
(150,234,ls),
(150,130,o),
(195,69,o),
(287,69,cs)
);
}
);
width = 576;
}
);
unicode = 252;
},
{
glyphname = Udieresis;
layers = (
{
layerId = "1EFDAA9E-0693-44A2-9347-F36F1AB053F3";
shapes = (
{
closed = 1;
nodes = (
(283,899,o),
(308,876,o),
(308,843,cs),
(308,810,o),
(283,787,o),
(250,787,cs),
(218,787,o),
(193,810,o),
(193,843,cs),
(193,876,o),
(218,899,o),
(250,899,cs)
);
},
{
closed = 1;
nodes = (
(508,899,o),
(533,876,o),
(533,843,cs),
(533,810,o),
(508,787,o),
(475,787,cs),
(443,787,o),
(419,810,o),
(419,843,cs),
(419,876,o),
(443,899,o),
(475,899,cs)
);
},
{
closed = 1;
nodes = (
(644,707,l),
(644,305,ls),
(644,127,o),
(560,-8,o),
(363,-8,cs),
(165,-8,o),
(82,125,o),
(82,305,cs),
(82,707,l),
(169,707,l),
(169,306,ls),
(169,177,o),
(219,71,o),
(364,71,cs),
(509,71,o),
(556,178,o),
(556,306,cs),
(556,707,l)
);
}
);
width = 726;
}
);
leftKerningGroup = _kern1;
rightKerningGroup = _kern2;
unicode = 220;
},
{
glyphname = ccedilla;
layers = (
{
layerId = "1EFDAA9E-0693-44A2-9347-F36F1AB053F3";
shapes = (
{
closed = 1;
nodes = (
(335,-109,o),
(296,-110,o),
(281,-110,cs),
(268,-110,o),
(246,-112,o),
(229,-119,c),
(255,-4,l),
(111,9,o),
(44,118,o),
(44,262,cs),
(44,414,o),
(129,533,o),
(291,533,cs),
(408,533,o),
(482,485,o),
(505,376,c),
(418,376,l),
(401,437,o),
(351,458,o),
(291,457,c),
(175,457,o),
(129,362,o),
(129,262,cs),
(129,158,o),
(177,69,o),
(292,69,cs),
(348,69,o),
(405,89,o),
(421,151,c),
(509,151,l),
(491,51,o),
(409,4,o),
(317,-4,c),
(305,-59,l),
(313,-58,o),
(321,-57,o),
(328,-57,cs),
(348,-58,o),
(364,-62,o),
(377,-71,cs),
(396,-83,o),
(407,-105,o),
(407,-138,cs),
(408,-238,o),
(299,-253,o),
(260,-253,cs),
(249,-253,o),
(238,-253,o),
(227,-250,c),
(227,-198,l),
(272,-201,o),
(338,-197,o),
(338,-145,c)
);
}
);
width = 550;
}
);
leftKerningGroup = _kern5;
rightKerningGroup = _kern6;
unicode = 231;
},
{
glyphname = uni0162;
layers = (
{
layerId = "1EFDAA9E-0693-44A2-9347-F36F1AB053F3";
shapes = (
{
closed = 1;
nodes = (
(313,0,l),
(300,-59,l),
(307,-58,o),
(314,-57,o),
(321,-57,cs),
(371,-57,o),
(400,-87,o),
(402,-138,cs),
(404,-237,o),
(292,-256,o),
(255,-253,c),
(244,-253,o),
(233,-253,o),
(222,-250,c),
(222,-198,l),
(267,-201,o),
(333,-197,o),
(333,-145,cs),
(333,-109,o),
(290,-110,o),
(276,-110,cs),
(263,-110,o),
(241,-112,o),
(224,-119,c),
(252,0,l),
(241,0,l),
(241,628,l),
(14,628,l),
(14,707,l),
(555,707,l),
(555,628,l),
(328,628,l),
(328,0,l)
);
}
);
width = 569;
}
);
leftKerningGroup = _kern28;
rightKerningGroup = _kern28;
unicode = 354;
},
{
glyphname = uni0163;
layers = (
{
layerId = "1EFDAA9E-0693-44A2-9347-F36F1AB053F3";
shapes = (
{
closed = 1;
nodes = (
(200,527,l),
(341,527,l),
(341,452,l),
(200,452,l),
(200,179,ls),
(200,107,o),
(223,74,o),
(299,74,cs),
(338,74,l),
(338,0,l),
(267,0,ls),
(263,0,o),
(261,0,o),
(250,1,c),
(231,-59,l),
(239,-58,o),
(247,-57,o),
(254,-57,cs),
(302,-57,o),
(333,-85,o),
(333,-135,cs),
(333,-236,o),
(231,-253,o),
(191,-253,cs),
(180,-253,o),
(164,-252,o),
(153,-251,c),
(153,-198,l),
(198,-201,o),
(264,-197,o),
(264,-145,cs),
(264,-109,o),
(222,-110,o),
(207,-110,cs),
(194,-110,o),
(172,-112,o),
(155,-119,c),
(192,14,l),
(136,37,o),
(115,86,o),
(115,170,cs),
(115,452,l),
(29,452,l),
(29,527,l),
(115,527,l),
(115,684,l),
(200,684,l)
);
}
);
width = 380;
}
);
leftKerningGroup = _kern21;
rightKerningGroup = _kern21;
unicode = 355;
},
{
glyphname = Ccedilla;
layers = (
{
layerId = "1EFDAA9E-0693-44A2-9347-F36F1AB053F3";
shapes = (
{
closed = 1;
nodes = (
(204,636,o),
(137,503,o),
(137,356,cs),
(137,199,o),
(210,71,o),
(375,71,cs),
(475,71,o),
(547,113,o),
(567,185,c),
(662,185,l),
(633,72,o),
(539,0,o),
(398,-7,c),
(386,-61,l),
(394,-60,o),
(402,-59,o),
(409,-59,cs),
(460,-59,o),
(486,-90,o),
(488,-140,cs),
(489,-182,o),
(463,-219,o),
(430,-236,cs),
(397,-252,o),
(370,-255,o),
(341,-255,cs),
(330,-255,o),
(320,-254,o),
(308,-253,c),
(308,-200,l),
(353,-203,o),
(419,-199,o),
(419,-147,cs),
(419,-111,o),
(375,-112,o),
(362,-112,cs),
(349,-112,o),
(327,-114,o),
(310,-121,c),
(336,-6,l),
(141,10,o),
(48,155,o),
(48,353,cs),
(48,560,o),
(155,715,o),
(375,715,cs),
(531,715,o),
(622,637,o),
(649,522,c),
(561,522,l),
(541,591,o),
(472,636,o),
(372,636,cs)
);
}
);
width = 710;
}
);
leftKerningGroup = _kern3;
rightKerningGroup = _kern4;
unicode = 199;
},
{
glyphname = scedilla;
layers = (
{
layerId = "1EFDAA9E-0693-44A2-9347-F36F1AB053F3";
shapes = (
{
closed = 1;
nodes = (
(217,458,o),
(143,447,o),
(143,384,cs),
(143,339,o),
(180,320,o),
(235,308,cs),
(281,298,o),
(346,288,o),
(378,278,cs),
(442,257,o),
(475,216,o),
(474,151,cs),
(474,89,o),
(450,55,o),
(415,32,cs),
(380,8,o),
(335,-2,o),
(288,-5,c),
(276,-59,l),
(284,-58,o),
(292,-57,o),
(299,-57,cs),
(317,-57,o),
(333,-61,o),
(348,-70,cs),
(368,-83,o),
(378,-104,o),
(378,-135,cs),
(379,-236,o),
(268,-256,o),
(231,-253,c),
(220,-253,o),
(209,-251,o),
(198,-250,c),
(198,-198,l),
(243,-201,o),
(309,-197,o),
(309,-145,cs),
(309,-109,o),
(265,-110,o),
(252,-110,cs),
(239,-110,o),
(217,-112,o),
(200,-119,c),
(226,-4,l),
(140,4,o),
(56,42,o),
(43,143,c),
(129,143,l),
(148,91,o),
(203,69,o),
(264,69,cs),
(311,69,o),
(389,76,o),
(389,144,cs),
(389,188,o),
(364,203,o),
(316,212,cs),
(253,224,o),
(175,231,o),
(121,265,cs),
(86,288,o),
(59,325,o),
(59,386,cs),
(59,440,o),
(87,478,o),
(125,501,cs),
(165,526,o),
(214,533,o),
(261,533,cs),
(316,533,o),
(359,520,o),
(390,498,cs),
(429,470,o),
(450,432,o),
(455,391,c),
(376,391,l),
(367,430,o),
(322,455,o),
(262,457,cs)
);
}
);
width = 518;
}
);
leftKerningGroup = _kern5;
rightKerningGroup = _kern6;
unicode = 351;
},
{
glyphname = uni21A9;
layers = (
{
layerId = "1EFDAA9E-0693-44A2-9347-F36F1AB053F3";
shapes = (
{
closed = 1;
nodes = (
(424,-221,l),
(377,-275,l),
(59,39,l),
(377,354,l),
(422,296,l),
(194,76,l),
(757,76,ls),
(912,76,o),
(999,192,o),
(999,340,cs),
(999,487,o),
(912,603,o),
(757,603,cs),
(195,603,l),
(195,679,l),
(758,679,ls),
(960,679,o),
(1079,538,o),
(1079,340,cs),
(1079,140,o),
(960,0,o),
(758,0,cs),
(194,0,l)
);
}
);
width = 1138;
}
);
unicode = 8617;
},
{
glyphname = uni2713;
layers = (
{
layerId = "1EFDAA9E-0693-44A2-9347-F36F1AB053F3";
shapes = (
{
closed = 1;
nodes = (
(913,827,l),
(980,766,l),
(373,-1,l),
(59,372,l),
(124,433,l),
(374,141,l)
);
}
);
width = 1039;
}
);
unicode = 10003;
},
{
glyphname = divide;
layers = (
{
layerId = "1EFDAA9E-0693-44A2-9347-F36F1AB053F3";
shapes = (
{
closed = 1;
nodes = (
(271,594,o),
(296,569,o),
(296,534,cs),
(296,499,o),
(271,474,o),
(236,474,cs),
(201,474,o),
(177,499,o),
(177,534,cs),
(177,569,o),
(201,594,o),
(236,594,cs)
);
},
{
closed = 1;
nodes = (
(59,399,l),
(415,399,l),
(415,322,l),
(59,322,l)
);
},
{
closed = 1;
nodes = (
(271,239,o),
(296,214,o),
(296,179,cs),
(296,143,o),
(271,118,o),
(236,118,cs),
(201,118,o),
(177,143,o),
(177,179,cs),
(177,214,o),
(201,239,o),
(236,239,cs)
);
}
);
width = 474;
}
);
unicode = 247;
},
{
glyphname = multiply;
layers = (
{
layerId = "1EFDAA9E-0693-44A2-9347-F36F1AB053F3";
shapes = (
{
closed = 1;
nodes = (
(239,303,l),
(100,165,l),
(50,215,l),
(189,353,l),
(50,492,l),
(100,542,l),
(239,403,l),
(377,542,l),
(427,492,l),
(289,353,l),
(427,215,l),
(377,165,l)
);
}
);
width = 477;
}
);
unicode = 215;
},
{
glyphname = yen;
layers = (
{
layerId = "1EFDAA9E-0693-44A2-9347-F36F1AB053F3";
shapes = (
{
closed = 1;
nodes = (
(526,707,l),
(625,707,l),
(409,324,l),
(519,324,l),
(519,247,l),
(376,247,l),
(376,166,l),
(519,166,l),
(519,89,l),
(376,89,l),
(376,0,l),
(289,0,l),
(289,89,l),
(144,89,l),
(144,166,l),
(289,166,l),
(289,247,l),
(144,247,l),
(144,324,l),
(256,324,l),
(39,707,l),
(139,707,l),
(334,353,l)
);
}
);
width = 664;
}
);
unicode = 165;
},
{
glyphname = uni20BD;
layers = (
{
layerId = "1EFDAA9E-0693-44A2-9347-F36F1AB053F3";
shapes = (
{
closed = 1;
nodes = (
(59,171,l),
(156,171,l),
(156,252,l),
(59,252,l),
(59,332,l),
(156,332,l),
(156,707,l),
(401,707,ls),
(558,707,o),
(650,642,o),
(650,482,cs),
(650,324,o),
(540,252,o),
(391,252,cs),
(243,252,l),
(243,171,l),
(484,171,l),
(484,92,l),
(243,92,l),
(243,0,l),
(156,0,l),
(156,92,l),
(59,92,l)
);
},
{
closed = 1;
nodes = (
(392,332,ls),
(485,332,o),
(562,372,o),
(562,483,cs),
(562,588,o),
(508,628,o),
(399,628,cs),
(243,628,l),
(243,332,l)
);
}
);
width = 699;
}
);
unicode = 8381;
},
{
glyphname = uni20B4;
layers = (
{
layerId = "1EFDAA9E-0693-44A2-9347-F36F1AB053F3";
shapes = (
{
closed = 1;
nodes = (
(417,715,o),
(512,670,o),
(512,559,cs),
(512,504,o),
(493,477,o),
(474,454,c),
(542,454,l),
(542,375,l),
(404,375,l),
(287,292,l),
(542,292,l),
(542,213,l),
(199,213,l),
(188,202,o),
(181,184,o),
(181,160,cs),
(181,92,o),
(244,69,o),
(305,69,cs),
(361,69,o),
(407,81,o),
(426,137,c),
(515,137,l),
(499,32,o),
(402,-8,o),
(295,-8,cs),
(190,-8,o),
(95,37,o),
(95,149,cs),
(95,165,o),
(100,190,o),
(111,213,c),
(47,213,l),
(47,292,l),
(170,292,l),
(287,375,l),
(47,375,l),
(47,454,l),
(382,454,l),
(403,466,o),
(430,505,o),
(430,542,cs),
(431,606,o),
(383,636,o),
(315,636,cs),
(263,636,o),
(207,625,o),
(191,562,c),
(99,562,l),
(115,669,o),
(214,715,o),
(318,715,cs)
);
}
);
width = 589;
}
);
unicode = 8372;
},
{
glyphname = sterling;
layers = (
{
layerId = "1EFDAA9E-0693-44A2-9347-F36F1AB053F3";
shapes = (
{
closed = 1;
nodes = (
(434,376,l),
(434,297,l),
(226,297,l),
(226,79,l),
(525,79,l),
(525,0,l),
(59,0,l),
(59,79,l),
(141,79,l),
(141,297,l),
(59,297,l),
(59,376,l),
(141,376,l),
(141,521,ls),
(141,646,o),
(215,715,o),
(340,715,cs),
(435,715,o),
(513,667,o),
(521,567,c),
(438,567,l),
(431,611,o),
(390,636,o),
(343,636,cs),
(281,636,o),
(226,617,o),
(226,518,cs),
(226,376,l)
);
}
);
width = 584;
}
);
unicode = 163;
},
{
glyphname = Scedilla;
layers = (
{
layerId = "1EFDAA9E-0693-44A2-9347-F36F1AB053F3";
shapes = (
{
closed = 1;
nodes = (
(247,636,o),
(163,613,o),
(163,525,cs),
(163,472,o),
(195,440,o),
(235,423,cs),
(299,396,o),
(383,390,o),
(451,366,cs),
(532,338,o),
(585,288,o),
(585,203,cs),
(585,51,o),
(475,-5,o),
(345,-8,c),
(334,-59,l),
(342,-58,o),
(350,-57,o),
(357,-57,cs),
(408,-57,o),
(436,-88,o),
(436,-135,cs),
(436,-236,o),
(342,-253,o),
(292,-253,cs),
(281,-253,o),
(267,-253,o),
(256,-250,c),
(256,-198,l),
(301,-201,o),
(367,-197,o),
(367,-145,cs),
(367,-109,o),
(324,-110,o),
(310,-110,cs),
(297,-110,o),
(275,-112,o),
(258,-119,c),
(284,-5,l),
(169,6,o),
(72,60,o),
(48,185,c),
(139,185,l),
(166,94,o),
(256,71,o),
(339,71,cs),
(420,71,o),
(496,104,o),
(496,187,cs),
(496,250,o),
(460,275,o),
(404,292,cs),
(330,315,o),
(235,321,o),
(167,359,cs),
(111,390,o),
(73,437,o),
(73,517,cs),
(73,666,o),
(200,715,o),
(320,715,cs),
(442,715,o),
(558,667,o),
(565,526,c),
(480,526,l),
(469,609,o),
(398,636,o),
(322,636,cs)
);
}
);
width = 634;
}
);
leftKerningGroup = _kern3;
rightKerningGroup = _kern4;
unicode = 350;
},
{
glyphname = t_alt;
layers = (
{
layerId = "1EFDAA9E-0693-44A2-9347-F36F1AB053F3";
shapes = (
{
closed = 1;
nodes = (
(200,527,l),
(341,527,l),
(341,452,l),
(200,452,l),
(200,179,ls),
(200,107,o),
(223,74,o),
(299,74,cs),
(338,74,l),
(338,0,l),
(281,0,ls),
(161,0,o),
(115,53,o),
(115,170,cs),
(115,452,l),
(29,452,l),
(29,527,l),
(115,527,l),
(131,684,l),
(200,684,l)
);
}
);
width = 380;
}
);
leftKerningGroup = _kern21;
rightKerningGroup = _kern21;
},
{
glyphname = alt_1;
layers = (
{
layerId = "1EFDAA9E-0693-44A2-9347-F36F1AB053F3";
shapes = (
{
closed = 1;
nodes = (
(318,79,l),
(470,79,l),
(470,0,l),
(47,0,l),
(47,79,l),
(231,79,l),
(231,567,l),
(73,567,l),
(73,621,l),
(151,626,o),
(218,639,o),
(257,707,c),
(318,707,l)
);
}
);
width = 489;
}
);
},
{
glyphname = uni2117;
layers = (
{
layerId = "1EFDAA9E-0693-44A2-9347-F36F1AB053F3";
shapes = (
{
closed = 1;
nodes = (
(700,715,o),
(868,552,o),
(868,296,cs),
(868,37,o),
(704,-122,o),
(463,-122,cs),
(222,-122,o),
(59,37,o),
(59,296,cs),
(59,552,o),
(227,715,o),
(463,715,cs)
);
},
{
closed = 1;
nodes = (
(274,641,o),
(139,508,o),
(139,296,cs),
(139,84,o),
(270,-48,o),
(463,-48,cs),
(656,-48,o),
(787,84,o),
(787,296,cs),
(787,508,o),
(652,641,o),
(463,641,cs)
);
},
{
closed = 1;
nodes = (
(407,72,l),
(330,72,l),
(330,507,l),
(491,507,ls),
(591,507,o),
(647,462,o),
(648,365,cs),
(648,305,o),
(630,269,o),
(600,244,cs),
(570,219,o),
(528,206,o),
(480,206,cs),
(407,206,l)
);
},
{
closed = 1;
nodes = (
(477,279,ls),
(529,279,o),
(569,299,o),
(570,360,cs),
(570,409,o),
(542,434,o),
(486,434,cs),
(407,434,l),
(407,279,l)
);
}
);
width = 927;
}
);
unicode = 8471;
},
{
glyphname = colon.uc;
layers = (
{
layerId = "1EFDAA9E-0693-44A2-9347-F36F1AB053F3";
shapes = (
{
closed = 1;
nodes = (
(159,581,o),
(186,556,o),
(186,521,cs),
(186,485,o),
(159,461,o),
(126,461,cs),
(91,461,o),
(67,486,o),
(67,521,cs),
(67,556,o),
(91,581,o),
(126,581,cs)
);
},
{
closed = 1;
nodes = (
(159,225,o),
(186,200,o),
(186,165,cs),
(186,130,o),
(159,105,o),
(126,105,cs),
(91,105,o),
(67,130,o),
(67,165,cs),
(67,200,o),
(91,225,o),
(126,225,cs)
);
}
);
width = 253;
}
);
},
{
glyphname = y_alt;
layers = (
{
layerId = "1EFDAA9E-0693-44A2-9347-F36F1AB053F3";
shapes = (
{
closed = 1;
nodes = (
(530,527,l),
(530,1,ls),
(530,-152,o),
(442,-236,o),
(289,-236,cs),
(182,-236,o),
(89,-188,o),
(68,-79,c),
(156,-79,l),
(172,-140,o),
(238,-160,o),
(294,-160,cs),
(403,-160,o),
(446,-90,o),
(446,6,cs),
(446,73,l),
(415,14,o),
(341,-9,o),
(278,-9,cs),
(273,-9,l),
(114,-6,o),
(67,91,o),
(67,235,cs),
(67,527,l),
(152,527,l),
(152,259,ls),
(152,162,o),
(170,66,o),
(288,66,cs),
(348,66,o),
(390,94,o),
(413,133,cs),
(438,173,o),
(445,222,o),
(445,273,cs),
(445,527,l)
);
}
);
width = 597;
}
);
},
{
glyphname = u_alt;
layers = (
{
layerId = "1EFDAA9E-0693-44A2-9347-F36F1AB053F3";
shapes = (
{
closed = 1;
nodes = (
(519,527,l),
(519,0,l),
(448,0,l),
(442,76,l),
(405,15,o),
(329,-9,o),
(265,-9,cs),
(112,-9,o),
(62,93,o),
(62,233,cs),
(62,527,l),
(147,527,l),
(147,255,ls),
(147,158,o),
(158,66,o),
(278,66,cs),
(338,66,o),
(379,94,o),
(403,133,cs),
(428,173,o),
(434,222,o),
(434,273,cs),
(434,527,l)
);
}
);
width = 586;
}
);
},
{
glyphname = be_alt;
layers = (
{
layerId = "1EFDAA9E-0693-44A2-9347-F36F1AB053F3";
shapes = (
{
closed = 1;
nodes = (
(44,398,o),
(48,474,o),
(78,541,cs),
(106,601,o),
(141,634,o),
(198,661,cs),
(266,693,o),
(342,714,o),
(413,740,cs),
(433,747,o),
(456,761,o),
(477,782,c),
(524,715,l),
(511,688,o),
(487,676,o),
(460,666,cs),
(387,638,o),
(306,618,o),
(234,587,cs),
(204,574,o),
(182,556,o),
(166,533,cs),
(143,500,o),
(132,457,o),
(131,413,c),
(174,464,o),
(238,487,o),
(299,487,cs),
(442,488,o),
(523,388,o),
(523,248,cs),
(523,104,o),
(439,-6,o),
(284,-6,cs),
(196,-6,o),
(136,28,o),
(99,81,cs),
(62,133,o),
(44,207,o),
(44,315,cs)
);
},
{
closed = 1;
nodes = (
(384,69,o),
(438,149,o),
(438,245,cs),
(438,339,o),
(381,411,o),
(291,411,cs),
(189,411,o),
(134,338,o),
(134,236,cs),
(134,153,o),
(185,69,o),
(285,69,cs)
);
}
);
width = 567;
}
);
},
{
glyphname = g_alt;
layers = (
{
layerId = "1EFDAA9E-0693-44A2-9347-F36F1AB053F3";
shapes = (
{
closed = 1;
nodes = (
(533,0,ls),
(533,-153,o),
(445,-236,o),
(297,-236,cs),
(223,-236,o),
(143,-216,o),
(83,-160,c),
(120,-93,l),
(172,-134,o),
(229,-160,o),
(297,-160,cs),
(405,-160,o),
(448,-89,o),
(448,8,cs),
(448,79,l),
(413,18,o),
(343,-6,o),
(274,-6,cs),
(113,-6,o),
(43,110,o),
(43,262,cs),
(43,414,o),
(116,533,o),
(278,533,cs),
(339,533,o),
(408,512,o),
(448,461,c),
(452,527,l),
(533,527,l)
);
},
{
closed = 1;
nodes = (
(170,457,o),
(128,370,o),
(128,263,cs),
(128,204,o),
(138,161,o),
(163,126,cs),
(188,91,o),
(227,69,o),
(286,69,cs),
(354,69,o),
(396,105,o),
(423,153,cs),
(442,186,o),
(449,227,o),
(449,266,cs),
(449,314,o),
(442,353,o),
(419,388,cs),
(392,427,o),
(349,457,o),
(285,457,cs)
);
}
);
width = 600;
}
);
},
{
glyphname = y;
layers = (
{
layerId = "1EFDAA9E-0693-44A2-9347-F36F1AB053F3";
shapes = (
{
closed = 1;
nodes = (
(530,527,l),
(530,0,ls),
(530,-153,o),
(447,-236,o),
(299,-236,cs),
(217,-236,o),
(140,-216,o),
(80,-160,c),
(117,-93,l),
(169,-134,o),
(229,-160,o),
(294,-160,cs),
(403,-160,o),
(447,-89,o),
(447,8,cs),
(447,71,l),
(411,16,o),
(343,-8,o),
(273,-8,cs),
(116,-8,o),
(67,92,o),
(67,236,cs),
(67,527,l),
(152,527,l),
(152,260,ls),
(152,163,o),
(168,67,o),
(288,67,cs),
(348,67,o),
(390,95,o),
(413,134,cs),
(438,174,o),
(445,223,o),
(445,274,cs),
(445,527,l)
);
}
);
width = 597;
}
);
unicode = 121;
},
{
glyphname = t2.alt;
layers = (
{
layerId = "1EFDAA9E-0693-44A2-9347-F36F1AB053F3";
shapes = (
{
closed = 1;
nodes = (
(200,527,l),
(362,527,l),
(362,452,l),
(200,452,l),
(200,178,ls),
(200,117,o),
(209,70,o),
(274,69,cs),
(305,69,o),
(328,81,o),
(344,96,c),
(381,34,l),
(346,5,o),
(310,-6,o),
(265,-6,cs),
(208,-6,o),
(171,11,o),
(144,43,c),
(121,74,o),
(115,115,o),
(115,167,cs),
(115,452,l),
(29,452,l),
(29,527,l),
(115,527,l),
(115,685,l),
(200,685,l)
);
}
);
width = 396;
}
);
},
{
glyphname = f_alt;
layers = (
{
layerId = "1EFDAA9E-0693-44A2-9347-F36F1AB053F3";
shapes = (
{
closed = 1;
nodes = (
(115,0,l),
(115,452,l),
(29,452,l),
(29,527,l),
(115,527,l),
(115,581,ls),
(115,633,o),
(120,676,o),
(144,705,cs),
(171,736,o),
(208,754,o),
(265,754,cs),
(309,754,o),
(344,745,o),
(379,716,c),
(341,652,l),
(325,667,o),
(301,679,o),
(270,679,cs),
(207,679,o),
(200,628,o),
(200,567,cs),
(200,527,l),
(359,527,l),
(359,452,l),
(200,452,l),
(200,0,l)
);
}
);
width = 366;
}
);
},
{
glyphname = hyphen.uc;
layers = (
{
layerId = "1EFDAA9E-0693-44A2-9347-F36F1AB053F3";
shapes = (
{
closed = 1;
nodes = (
(74,377,l),
(384,377,l),
(384,299,l),
(74,299,l)
);
}
);
width = 458;
}
);
},
{
glyphname = uni00AD.uc;
layers = (
{
layerId = "1EFDAA9E-0693-44A2-9347-F36F1AB053F3";
shapes = (
{
closed = 1;
nodes = (
(74,378,l),
(379,378,l),
(379,300,l),
(74,300,l)
);
}
);
width = 453;
}
);
},
{
glyphname = endash.uc;
layers = (
{
layerId = "1EFDAA9E-0693-44A2-9347-F36F1AB053F3";
shapes = (
{
closed = 1;
nodes = (
(74,378,l),
(504,378,l),
(504,300,l),
(74,300,l)
);
}
);
width = 578;
}
);
},
{
glyphname = emdash.uc;
layers = (
{
layerId = "1EFDAA9E-0693-44A2-9347-F36F1AB053F3";
shapes = (
{
closed = 1;
nodes = (
(74,378,l),
(685,378,l),
(685,300,l),
(74,300,l)
);
}
);
width = 759;
}
);
},
{
glyphname = a_alt;
layers = (
{
layerId = "1EFDAA9E-0693-44A2-9347-F36F1AB053F3";
shapes = (
{
closed = 1;
nodes = (
(407,64,l),
(358,15,o),
(292,-5,o),
(224,-5,cs),
(133,-5,o),
(49,37,o),
(49,143,cs),
(49,231,o),
(115,276,o),
(193,292,cs),
(250,304,o),
(323,310,o),
(407,319,c),
(407,404,o),
(365,457,o),
(281,458,cs),
(228,458,o),
(184,444,o),
(161,397,c),
(71,397,l),
(90,494,o),
(191,533,o),
(280,533,cs),
(443,533,o),
(490,429,o),
(490,288,cs),
(490,0,l),
(414,0,l)
);
},
{
closed = 1;
nodes = (
(134,80,o),
(198,69,o),
(234,69,cs),
(282,69,o),
(322,82,o),
(354,105,cs),
(384,127,o),
(407,156,o),
(407,216,cs),
(407,249,l),
(351,243,o),
(296,236,o),
(240,228,cs),
(173,218,o),
(134,190,o),
(134,146,cs)
);
}
);
width = 555;
}
);
leftKerningGroup = _kern27;
rightKerningGroup = _kern27;
},
{
glyphname = uni0490;
layers = (
{
layerId = "AC606F0E-1AFD-480C-9187-DA0D7DF61F73";
name = img;
width = 571;
},
{
layerId = "1EFDAA9E-0693-44A2-9347-F36F1AB053F3";
shapes = (
{
closed = 1;
nodes = (
(87,0,l),
(87,707,l),
(455,707,l),
(455,842,l),
(542,842,l),
(542,628,l),
(174,628,l),
(174,0,l)
);
}
);
width = 571;
}
);
leftKerningGroup = _kern23;
rightKerningGroup = _kern23;
unicode = 1168;
},
{
glyphname = uni0491;
layers = (
{
layerId = "AC606F0E-1AFD-480C-9187-DA0D7DF61F73";
name = img;
width = 454;
},
{
layerId = "1EFDAA9E-0693-44A2-9347-F36F1AB053F3";
shapes = (
{
closed = 1;
nodes = (
(67,0,l),
(67,527,l),
(347,527,l),
(347,667,l),
(431,667,l),
(431,452,l),
(152,452,l),
(152,0,l)
);
}
);
width = 454;
}
);
leftKerningGroup = _kern24;
rightKerningGroup = _kern24;
unicode = 1169;
},
{
glyphname = uni0406;
layers = (
{
layerId = "1EFDAA9E-0693-44A2-9347-F36F1AB053F3";
shapes = (
{
closed = 1;
nodes = (
(174,0,l),
(87,0,l),
(87,707,l),
(174,707,l)
);
}
);
width = 261;
}
);
unicode = 1030;
},
{
glyphname = uni0456;
layers = (
{
layerId = "1EFDAA9E-0693-44A2-9347-F36F1AB053F3";
shapes = (
{
closed = 1;
nodes = (
(148,720,o),
(174,697,o),
(174,664,cs),
(174,631,o),
(148,607,o),
(116,607,cs),
(83,607,o),
(59,631,o),
(59,664,cs),
(59,697,o),
(83,720,o),
(116,720,cs)
);
},
{
closed = 1;
nodes = (
(74,0,l),
(74,527,l),
(159,527,l),
(159,0,l)
);
}
);
width = 233;
}
);
unicode = 1110;
},
{
glyphname = uni0404;
layers = (
{
layerId = "AC606F0E-1AFD-480C-9187-DA0D7DF61F73";
name = img;
width = 707;
},
{
layerId = "1EFDAA9E-0693-44A2-9347-F36F1AB053F3";
shapes = (
{
closed = 1;
nodes = (
(225,636,o),
(147,529,o),
(139,393,c),
(465,393,l),
(465,314,l),
(139,314,l),
(144,173,o),
(225,71,o),
(373,71,cs),
(453,71,o),
(542,101,o),
(566,185,c),
(659,185,l),
(625,53,o),
(502,-8,o),
(374,-8,cs),
(156,-8,o),
(48,139,o),
(48,348,cs),
(48,553,o),
(152,715,o),
(370,715,cs),
(501,715,o),
(617,660,o),
(649,522,c),
(562,522,l),
(538,606,o),
(449,636,o),
(370,636,cs)
);
}
);
width = 707;
}
);
unicode = 1028;
},
{
glyphname = uni0454;
layers = (
{
layerId = "AC606F0E-1AFD-480C-9187-DA0D7DF61F73";
name = img;
width = 547;
},
{
layerId = "1EFDAA9E-0693-44A2-9347-F36F1AB053F3";
shapes = (
{
closed = 1;
nodes = (
(361,298,l),
(361,224,l),
(130,224,l),
(133,132,o),
(190,70,o),
(283,69,c),
(339,69,o),
(405,89,o),
(421,151,c),
(508,151,l),
(487,44,o),
(384,-6,o),
(283,-6,cs),
(115,-6,o),
(43,103,o),
(43,263,cs),
(43,420,o),
(123,533,o),
(288,533,cs),
(393,533,o),
(479,484,o),
(503,376,c),
(418,376,l),
(402,437,o),
(339,457,o),
(282,457,c),
(183,456,o),
(134,390,o),
(129,298,c)
);
}
);
width = 547;
}
);
unicode = 1108;
},
{
glyphname = uni0407;
layers = (
{
layerId = "AC606F0E-1AFD-480C-9187-DA0D7DF61F73";
name = img;
width = 260;
},
{
layerId = "1EFDAA9E-0693-44A2-9347-F36F1AB053F3";
shapes = (
{
closed = 1;
nodes = (
(174,0,l),
(87,0,l),
(87,707,l),
(174,707,l)
);
},
{
closed = 1;
nodes = (
(85,900,o),
(108,878,o),
(108,847,cs),
(108,816,o),
(85,793,o),
(54,793,cs),
(23,793,o),
(1,815,o),
(1,847,cs),
(1,879,o),
(23,900,o),
(54,900,cs)
);
},
{
closed = 1;
nodes = (
(237,900,o),
(259,878,o),
(259,847,cs),
(259,816,o),
(237,793,o),
(206,793,cs),
(174,793,o),
(153,815,o),
(153,847,cs),
(153,879,o),
(175,900,o),
(206,900,cs)
);
}
);
width = 260;
}
);
unicode = 1031;
},
{
glyphname = uni0457;
layers = (
{
layerId = "AC606F0E-1AFD-480C-9187-DA0D7DF61F73";
name = img;
width = 232;
},
{
layerId = "1EFDAA9E-0693-44A2-9347-F36F1AB053F3";
shapes = (
{
closed = 1;
nodes = (
(74,0,l),
(74,527,l),
(159,527,l),
(159,0,l)
);
},
{
closed = 1;
nodes = (
(76,707,o),
(99,686,o),
(99,655,cs),
(99,623,o),
(76,601,o),
(45,601,cs),
(14,601,o),
(-8,623,o),
(-8,655,cs),
(-8,686,o),
(14,707,o),
(45,707,cs)
);
},
{
closed = 1;
nodes = (
(219,707,o),
(241,686,o),
(241,655,cs),
(241,623,o),
(219,601,o),
(188,601,cs),
(156,601,o),
(135,623,o),
(135,655,cs),
(135,686,o),
(157,707,o),
(188,707,cs)
);
}
);
width = 232;
}
);
unicode = 1111;
},
{
glyphname = t0163.alt;
layers = (
{
layerId = "1EFDAA9E-0693-44A2-9347-F36F1AB053F3";
shapes = (
{
closed = 1;
nodes = (
(200,527,l),
(362,527,l),
(362,452,l),
(200,452,l),
(200,165,ls),
(200,154,o),
(201,144,o),
(202,135,cs),
(208,97,o),
(224,69,o),
(274,69,cs),
(305,69,o),
(328,81,o),
(344,96,c),
(381,34,l),
(346,5,o),
(310,-6,o),
(265,-6,cs),
(259,-6,o),
(253,-6,o),
(248,-5,c),
(231,-59,l),
(239,-58,o),
(247,-57,o),
(254,-57,cs),
(305,-57,o),
(333,-87,o),
(333,-138,cs),
(334,-237,o),
(223,-256,o),
(186,-253,c),
(175,-253,o),
(164,-252,o),
(153,-251,c),
(153,-198,l),
(198,-201,o),
(264,-197,o),
(264,-145,cs),
(264,-109,o),
(222,-110,o),
(207,-110,cs),
(194,-110,o),
(172,-112,o),
(155,-119,c),
(190,7,l),
(124,40,o),
(115,98,o),
(115,167,cs),
(115,452,l),
(29,452,l),
(29,527,l),
(115,527,l),
(115,685,l),
(200,685,l)
);
}
);
width = 380;
}
);
},
{
glyphname = t021b.alt;
layers = (
{
layerId = "1EFDAA9E-0693-44A2-9347-F36F1AB053F3";
shapes = (
{
closed = 1;
nodes = (
(184,-183,o),
(161,-162,o),
(161,-129,cs),
(161,-92,o),
(189,-71,o),
(221,-71,cs),
(264,-71,o),
(284,-109,o),
(284,-150,cs),
(284,-217,o),
(236,-286,o),
(182,-305,c),
(158,-272,l),
(185,-253,o),
(211,-218,o),
(219,-186,c)
);
},
{
closed = 1;
nodes = (
(200,527,l),
(362,527,l),
(362,452,l),
(200,452,l),
(200,178,ls),
(200,117,o),
(208,70,o),
(274,69,cs),
(305,69,o),
(328,81,o),
(344,96,c),
(381,34,l),
(346,5,o),
(310,-6,o),
(265,-6,cs),
(208,-6,o),
(170,10,o),
(144,43,cs),
(120,73,o),
(115,115,o),
(115,167,cs),
(115,452,l),
(29,452,l),
(29,527,l),
(115,527,l),
(115,685,l),
(200,685,l)
);
}
);
width = 380;
}
);
},
{
glyphname = map;
layers = (
{
layerId = "1EFDAA9E-0693-44A2-9347-F36F1AB053F3";
shapes = (
{
closed = 1;
nodes = (
(64,684,l),
(65,685,o),
(67,686,o),
(68,686,c),
(107,686,l),
(109,686,o),
(110,686,o),
(111,687,c),
(130,706,l),
(131,707,o),
(133,708,o),
(134,708,c),
(230,708,l),
(231,708,o),
(233,707,o),
(234,706,c),
(280,660,l),
(281,659,o),
(282,659,o),
(283,659,c),
(316,659,l),
(319,659,o),
(321,657,o),
(321,654,c),
(321,629,l),
(321,626,o),
(324,624,o),
(327,624,c),
(333,624,l),
(334,624,o),
(336,624,o),
(337,625,c),
(353,642,l),
(354,643,o),
(356,643,o),
(357,643,c),
(389,643,l),
(392,643,o),
(394,641,o),
(394,638,c),
(394,612,l),
(394,611,o),
(395,609,o),
(396,608,c),
(416,588,l),
(418,586,o),
(421,586,o),
(423,588,c),
(433,598,l),
(434,599,o),
(435,599,o),
(437,599,c),
(443,599,l),
(446,599,o),
(449,597,o),
(449,594,c),
(449,515,l),
(449,513,o),
(448,512,o),
(447,511,c),
(441,505,l),
(439,503,o),
(439,499,o),
(441,497,c),
(500,438,l),
(501,437,o),
(502,437,o),
(503,437,c),
(515,437,l),
(518,437,o),
(520,434,o),
(520,432,c),
(520,398,l),
(520,361,l),
(520,360,o),
(521,358,o),
(522,357,c),
(544,335,l),
(545,334,o),
(547,333,o),
(548,333,c),
(560,333,l),
(561,333,o),
(563,333,o),
(564,332,c),
(580,315,l),
(581,314,o),
(582,313,o),
(582,311,c),
(582,274,l),
(582,273,o),
(581,271,o),
(580,270,c),
(574,265,l),
(572,263,o),
(572,259,o),
(574,257,c),
(595,237,l),
(596,236,o),
(596,235,o),
(596,233,c),
(596,230,o),
(594,228,o),
(591,228,c),
(572,228,l),
(558,228,l),
(557,228,o),
(556,228,o),
(555,229,c),
(546,238,l),
(544,240,o),
(541,240,o),
(539,238,c),
(528,227,l),
(525,225,o),
(522,225,o),
(520,227,c),
(505,242,l),
(503,244,o),
(500,244,o),
(497,242,c),
(470,215,l),
(469,214,o),
(468,213,o),
(467,213,c),
(458,213,l),
(456,213,o),
(453,216,o),
(453,219,c),
(453,253,l),
(453,258,o),
(447,260,o),
(444,257,c),
(422,235,l),
(421,234,o),
(421,233,o),
(421,232,c),
(421,205,l),
(421,203,o),
(421,202,o),
(422,201,c),
(432,191,l),
(434,189,o),
(434,186,o),
(432,184,c),
(412,164,l),
(411,163,o),
(411,162,o),
(411,160,c),
(411,135,l),
(411,134,o),
(410,132,o),
(409,131,c),
(387,109,l),
(386,108,o),
(386,107,o),
(386,106,c),
(386,94,l),
(386,92,o),
(385,91,o),
(384,90,c),
(372,78,l),
(371,77,o),
(370,76,o),
(369,76,c),
(360,76,l),
(359,76,o),
(358,76,o),
(357,75,c),
(347,65,l),
(346,64,o),
(345,63,o),
(345,61,c),
(345,23,l),
(345,20,o),
(343,17,o),
(340,17,c),
(320,17,l),
(319,17,o),
(317,17,o),
(316,16,c),
(302,1,l),
(301,1,o),
(300,0,o),
(298,0,c),
(295,0,l),
(292,0,o),
(290,2,o),
(290,5,c),
(290,28,l),
(290,29,o),
(289,31,o),
(288,32,c),
(279,41,l),
(277,43,o),
(277,46,o),
(279,48,c),
(291,60,l),
(294,62,o),
(294,66,o),
(291,68,c),
(279,80,l),
(278,81,o),
(278,82,o),
(278,84,c),
(278,169,l),
(278,170,o),
(278,172,o),
(279,173,c),
(293,186,l),
(294,187,o),
(294,189,o),
(294,190,c),
(294,309,l),
(294,310,o),
(294,312,o),
(293,313,c),
(280,325,l),
(279,326,o),
(279,328,o),
(279,329,c),
(279,352,l),
(279,353,o),
(278,355,o),
(277,355,c),
(231,402,l),
(230,403,o),
(229,404,o),
(229,406,c),
(229,427,l),
(229,429,o),
(229,430,o),
(228,431,c),
(182,477,l),
(181,478,o),
(180,479,o),
(180,480,c),
(180,506,l),
(180,507,o),
(180,509,o),
(179,510,c),
(148,540,l),
(147,541,o),
(147,543,o),
(147,544,c),
(147,573,l),
(147,574,o),
(146,576,o),
(145,577,c),
(124,598,l),
(123,599,o),
(122,600,o),
(122,602,c),
(122,628,l),
(122,630,o),
(122,631,o),
(121,632,c),
(98,655,l),
(97,656,o),
(95,657,o),
(94,657,c),
(52,657,l),
(49,657,o),
(47,659,o),
(47,662,c),
(47,664,l),
(47,666,o),
(47,667,o),
(48,668,c)
);
}
);
width = 683;
}
);
},
{
glyphname = logo;
layers = (
{
layerId = "1EFDAA9E-0693-44A2-9347-F36F1AB053F3";
shapes = (
{
closed = 1;
nodes = (
(795,499,o),
(790,495,o),
(784,493,c),
(784,483,o),
(775,474,o),
(764,474,c),
(762,464,o),
(755,459,o),
(745,459,cs),
(740,459,o),
(735,461,o),
(731,464,c),
(719,477,ls),
(715,481,o),
(713,485,o),
(713,491,cs),
(713,517,l),
(688,537,l),
(570,537,l),
(544,511,l),
(544,475,l),
(688,475,ls),
(694,475,o),
(699,473,o),
(702,470,cs),
(727,444,ls),
(731,440,o),
(733,435,o),
(733,430,cs),
(733,420,o),
(724,411,o),
(714,411,cs),
(676,411,ls),
(671,411,o),
(666,413,o),
(662,417,cs),
(642,436,l),
(533,436,l),
(439,342,l),
(437,342,o),
(430,335,o),
(424,335,cs),
(416,335,o),
(410,342,o),
(408,342,c),
(315,436,l),
(205,436,l),
(185,417,l),
(182,413,o),
(177,411,o),
(171,411,cs),
(134,411,ls),
(124,411,o),
(113,419,o),
(113,430,cs),
(113,435,o),
(116,440,o),
(120,444,cs),
(145,470,l),
(149,473,o),
(154,475,o),
(159,475,cs),
(196,475,l),
(196,475,o),
(197,475,o),
(197,475,c),
(303,475,l),
(303,511,l),
(277,537,l),
(159,537,l),
(134,517,l),
(134,491,ls),
(134,485,o),
(132,481,o),
(128,477,cs),
(116,464,l),
(112,461,o),
(107,459,o),
(102,459,cs),
(92,459,o),
(84,465,o),
(83,474,c),
(72,474,o),
(64,483,o),
(64,493,c),
(55,495,o),
(47,502,o),
(47,512,cs),
(47,517,o),
(50,522,o),
(54,526,cs),
(66,539,ls),
(70,543,o),
(75,545,o),
(80,545,cs),
(107,545,l),
(107,546,o),
(108,546,o),
(109,547,c),
(140,572,ls),
(144,575,o),
(148,576,o),
(152,576,cs),
(191,576,l),
(194,584,o),
(202,589,o),
(209,589,cs),
(214,589,o),
(219,587,o),
(223,583,cs),
(230,576,l),
(285,576,ls),
(290,576,o),
(295,574,o),
(299,571,c),
(303,566,l),
(303,586,l),
(277,613,l),
(142,613,l),
(122,593,l),
(118,590,o),
(114,588,o),
(108,588,cs),
(96,588,ls),
(90,588,o),
(86,590,o),
(82,593,c),
(69,606,l),
(66,610,o),
(64,614,o),
(64,620,cs),
(64,624,o),
(65,629,o),
(68,632,c),
(65,636,o),
(64,640,o),
(64,645,cs),
(64,650,o),
(66,655,o),
(69,659,c),
(82,671,ls),
(86,675,o),
(90,677,o),
(96,677,cs),
(108,677,ls),
(114,677,o),
(118,675,o),
(122,671,cs),
(142,652,l),
(177,652,l),
(177,680,l),
(161,680,o),
(152,707,o),
(152,721,cs),
(152,758,ls),
(152,769,o),
(161,778,o),
(171,778,cs),
(222,778,ls),
(233,778,o),
(241,769,o),
(241,758,cs),
(241,721,ls),
(241,707,o),
(232,680,o),
(216,680,c),
(216,652,l),
(241,652,l),
(240,654,o),
(240,656,o),
(240,657,cs),
(240,667,o),
(248,677,o),
(260,677,cs),
(265,677,o),
(270,675,o),
(274,671,cs),
(310,635,l),
(314,638,o),
(318,639,o),
(323,639,cs),
(333,639,o),
(342,630,o),
(342,620,cs),
(342,464,l),
(404,402,l),
(404,473,l),
(372,505,ls),
(368,509,o),
(366,514,o),
(366,519,cs),
(366,529,o),
(375,538,o),
(386,538,cs),
(391,538,o),
(396,536,o),
(400,533,c),
(404,528,l),
(404,612,l),
(309,707,l),
(305,710,o),
(303,715,o),
(303,721,cs),
(303,739,l),
(297,739,ls),
(287,739,o),
(278,748,o),
(278,758,cs),
(278,769,o),
(287,778,o),
(297,778,cs),
(303,778,l),
(303,784,ls),
(303,794,o),
(312,803,o),
(323,803,cs),
(333,803,o),
(342,794,o),
(342,784,cs),
(342,778,l),
(348,778,ls),
(359,778,o),
(367,769,o),
(367,758,cs),
(367,748,o),
(359,739,o),
(348,739,cs),
(342,739,l),
(342,729,l),
(404,667,l),
(404,787,l),
(403,788,o),
(402,789,o),
(402,790,c),
(347,845,ls),
(343,849,o),
(341,854,o),
(341,859,cs),
(341,864,o),
(343,869,o),
(347,873,cs),
(359,886,ls),
(361,888,o),
(364,889,o),
(366,890,c),
(366,910,ls),
(366,915,o),
(368,920,o),
(372,924,cs),
(385,936,l),
(388,940,o),
(393,942,o),
(398,942,cs),
(402,942,o),
(406,941,o),
(409,939,c),
(413,943,o),
(418,945,o),
(424,945,cs),
(429,945,o),
(434,943,o),
(438,939,c),
(441,941,o),
(445,942,o),
(449,942,cs),
(454,942,o),
(459,940,o),
(463,936,cs),
(475,924,ls),
(479,920,o),
(481,915,o),
(481,910,cs),
(481,890,l),
(484,889,o),
(486,888,o),
(488,886,cs),
(500,873,ls),
(504,869,o),
(506,864,o),
(506,859,cs),
(506,854,o),
(504,849,o),
(500,845,cs),
(445,790,l),
(445,789,o),
(444,788,o),
(443,787,c),
(443,667,l),
(505,729,l),
(505,739,l),
(499,739,ls),
(488,739,o),
(480,748,o),
(480,758,cs),
(480,769,o),
(488,778,o),
(499,778,cs),
(505,778,l),
(505,784,ls),
(505,794,o),
(514,803,o),
(524,803,cs),
(535,803,o),
(544,794,o),
(544,784,cs),
(544,778,l),
(550,778,ls),
(561,778,o),
(569,769,o),
(569,758,cs),
(569,748,o),
(561,739,o),
(550,739,cs),
(544,739,l),
(544,721,ls),
(544,715,o),
(542,710,o),
(538,707,c),
(443,612,l),
(443,528,l),
(448,533,ls),
(451,536,o),
(456,538,o),
(461,538,cs),
(475,538,o),
(481,528,o),
(481,519,cs),
(481,514,o),
(479,509,o),
(475,505,cs),
(443,473,l),
(443,402,l),
(505,464,l),
(505,620,ls),
(505,630,o),
(514,639,o),
(524,639,cs),
(529,639,o),
(533,638,o),
(537,635,c),
(574,671,l),
(577,675,o),
(582,677,o),
(588,677,cs),
(598,677,o),
(607,667,o),
(607,657,cs),
(607,656,o),
(606,654,o),
(606,652,c),
(631,652,l),
(631,680,l),
(615,680,o),
(606,707,o),
(606,721,cs),
(606,758,ls),
(606,769,o),
(615,778,o),
(625,778,cs),
(676,778,ls),
(687,778,o),
(695,769,o),
(695,758,cs),
(695,721,ls),
(695,707,o),
(686,680,o),
(670,680,c),
(670,652,l),
(706,652,l),
(725,671,ls),
(729,675,o),
(734,677,o),
(739,677,cs),
(751,677,ls),
(757,677,o),
(761,675,o),
(765,671,cs),
(778,659,ls),
(782,655,o),
(784,650,o),
(784,645,cs),
(784,640,o),
(782,636,o),
(779,632,c),
(782,629,o),
(784,624,o),
(784,620,cs),
(784,614,o),
(782,610,o),
(778,606,cs),
(765,593,l),
(761,590,o),
(757,588,o),
(751,588,cs),
(739,588,ls),
(734,588,o),
(729,590,o),
(725,593,c),
(706,613,l),
(570,613,l),
(544,586,l),
(544,566,l),
(548,571,l),
(552,574,o),
(557,576,o),
(562,576,cs),
(617,576,l),
(624,583,ls),
(628,587,o),
(633,589,o),
(638,589,cs),
(645,589,o),
(653,584,o),
(656,576,c),
(695,576,ls),
(699,576,o),
(703,575,o),
(707,572,cs),
(738,547,l),
(739,546,o),
(740,546,o),
(741,545,c),
(767,545,ls),
(772,545,o),
(777,543,o),
(781,539,cs),
(793,526,ls),
(797,522,o),
(799,517,o),
(799,512,cs),
(799,510,o),
(799,507,o),
(798,505,cs)
);
},
{
closed = 1;
nodes = (
(275,13,ls),
(275,6,o),
(270,0,o),
(263,0,cs),
(202,0,ls),
(195,0,o),
(190,6,o),
(190,13,cs),
(190,362,ls),
(190,369,o),
(195,375,o),
(202,375,cs),
(263,375,ls),
(271,375,o),
(279,371,o),
(284,366,cs),
(416,234,ls),
(418,232,o),
(420,232,o),
(422,232,cs),
(425,232,o),
(427,232,o),
(429,234,cs),
(561,366,ls),
(566,371,o),
(574,375,o),
(582,375,cs),
(643,375,ls),
(650,375,o),
(655,369,o),
(655,362,cs),
(655,13,ls),
(655,6,o),
(650,0,o),
(643,0,cs),
(582,0,ls),
(575,0,o),
(569,6,o),
(569,13,cs),
(569,232,ls),
(569,234,o),
(567,235,o),
(565,235,cs),
(564,235,o),
(564,235,o),
(563,234,cs),
(445,116,l),
(439,111,o),
(431,107,o),
(423,107,c),
(422,107,l),
(414,107,o),
(406,111,o),
(400,116,c),
(282,234,ls),
(281,235,o),
(280,235,o),
(279,235,cs),
(277,235,o),
(275,234,o),
(275,232,cs)
);
},
{
closed = 1;
nodes = (
(1016,381,o),
(1101,307,o),
(1101,188,cs),
(1101,74,o),
(1016,-6,o),
(902,-6,cs),
(788,-6,o),
(703,68,o),
(703,188,cs),
(703,296,o),
(783,381,o),
(902,381,cs)
);
},
{
closed = 1;
nodes = (
(973,74,o),
(1010,125,o),
(1010,188,cs),
(1010,256,o),
(962,301,o),
(902,301,cs),
(840,301,o),
(794,256,o),
(794,188,cs),
(794,123,o),
(842,74,o),
(902,74,cs)
);
},
{
closed = 1;
nodes = (
(1145,366,ls),
(1145,371,o),
(1149,375,o),
(1154,375,cs),
(1221,375,ls),
(1226,375,o),
(1230,371,o),
(1230,366,cs),
(1230,85,ls),
(1230,83,o),
(1232,81,o),
(1235,81,cs),
(1374,81,ls),
(1379,81,o),
(1383,77,o),
(1383,72,cs),
(1383,9,ls),
(1383,4,o),
(1379,0,o),
(1374,0,cs),
(1154,0,ls),
(1149,0,o),
(1145,4,o),
(1145,9,cs)
);
},
{
closed = 1;
nodes = (
(1431,366,ls),
(1431,371,o),
(1435,375,o),
(1440,375,cs),
(1461,375,o),
(1525,376,o),
(1549,376,cs),
(1699,376,o),
(1759,290,o),
(1759,191,cs),
(1759,86,o),
(1687,-1,o),
(1545,-1,cs),
(1525,-1,o),
(1476,0,o),
(1440,0,cs),
(1435,0,o),
(1431,4,o),
(1431,9,cs)
);
},
{
closed = 1;
nodes = (
(1518,295,o),
(1516,293,o),
(1516,290,cs),
(1516,85,ls),
(1516,77,o),
(1536,80,o),
(1547,80,cs),
(1621,80,o),
(1668,120,o),
(1668,191,cs),
(1668,260,o),
(1617,296,o),
(1548,296,cs),
(1540,296,o),
(1530,296,o),
(1521,295,c)
);
},
{
closed = 1;
nodes = (
(2115,381,o),
(2200,307,o),
(2200,188,cs),
(2200,74,o),
(2115,-6,o),
(2001,-6,cs),
(1887,-6,o),
(1802,68,o),
(1802,188,cs),
(1802,296,o),
(1882,381,o),
(2001,381,cs)
);
},
{
closed = 1;
nodes = (
(2072,74,o),
(2109,125,o),
(2109,188,cs),
(2109,256,o),
(2061,301,o),
(2001,301,cs),
(1939,301,o),
(1893,256,o),
(1893,188,cs),
(1893,123,o),
(1941,74,o),
(2001,74,cs)
);
},
{
closed = 1;
nodes = (
(2418,9,ls),
(2416,4,o),
(2411,0,o),
(2405,0,cs),
(2356,0,ls),
(2351,0,o),
(2346,4,o),
(2344,9,cs),
(2198,366,l),
(2197,367,o),
(2197,368,o),
(2197,369,cs),
(2197,372,o),
(2200,375,o),
(2203,375,cs),
(2279,375,ls),
(2284,375,o),
(2289,371,o),
(2291,366,cs),
(2382,132,l),
(2382,131,o),
(2383,130,o),
(2384,130,c),
(2384,130,o),
(2385,131,o),
(2385,132,c),
(2472,366,ls),
(2474,371,o),
(2479,375,o),
(2485,375,cs),
(2555,375,ls),
(2558,375,o),
(2561,372,o),
(2561,369,cs),
(2561,368,o),
(2560,367,o),
(2560,366,c)
);
},
{
closed = 1;
nodes = (
(2631,367,ls),
(2633,371,o),
(2638,375,o),
(2643,375,cs),
(2699,375,ls),
(2704,375,o),
(2709,371,o),
(2711,367,cs),
(2852,9,l),
(2852,8,o),
(2853,7,o),
(2853,6,cs),
(2853,3,o),
(2850,0,o),
(2847,0,cs),
(2777,0,ls),
(2772,0,o),
(2767,4,o),
(2766,9,c),
(2741,75,ls),
(2740,77,o),
(2737,79,o),
(2735,79,cs),
(2602,79,ls),
(2600,79,o),
(2597,77,o),
(2596,75,cs),
(2572,9,ls),
(2570,4,o),
(2565,0,o),
(2560,0,cs),
(2495,0,ls),
(2492,0,o),
(2489,3,o),
(2489,6,cs),
(2489,7,o),
(2489,8,o),
(2490,9,c)
);
},
{
closed = 1;
nodes = (
(2630,163,l),
(2630,163,o),
(2630,162,o),
(2630,162,c),
(2630,160,o),
(2631,159,o),
(2633,159,cs),
(2704,159,ls),
(2706,159,o),
(2707,160,o),
(2707,162,c),
(2707,162,o),
(2707,163,o),
(2707,163,c),
(2670,261,l),
(2670,261,o),
(2669,262,o),
(2669,262,c),
(2668,262,o),
(2667,261,o),
(2667,261,c)
);
}
);
width = 2940;
}
);
},
{
glyphname = a00E2.alt;
layers = (
{
layerId = "1EFDAA9E-0693-44A2-9347-F36F1AB053F3";
shapes = (
{
closed = 1;
nodes = (
(315,796,l),
(458,610,l),
(372,610,l),
(285,728,l),
(198,610,l),
(113,610,l),
(255,796,l)
);
},
{
closed = 1;
nodes = (
(407,64,l),
(358,15,o),
(292,-5,o),
(224,-5,cs),
(133,-5,o),
(49,36,o),
(49,143,cs),
(49,233,o),
(113,274,o),
(193,292,cs),
(250,305,o),
(323,311,o),
(407,319,c),
(407,404,o),
(365,457,o),
(281,458,c),
(228,458,o),
(184,444,o),
(161,397,c),
(71,397,l),
(90,494,o),
(191,533,o),
(280,533,cs),
(443,533,o),
(490,429,o),
(490,288,cs),
(490,0,l),
(414,0,l)
);
},
{
closed = 1;
nodes = (
(134,79,o),
(200,69,o),
(236,69,cs),
(284,69,o),
(321,82,o),
(354,105,cs),
(386,126,o),
(407,154,o),
(407,214,cs),
(407,249,l),
(399,248,o),
(373,245,o),
(329,240,cs),
(285,235,o),
(255,230,o),
(240,228,cs),
(173,218,o),
(134,190,o),
(134,146,cs)
);
}
);
width = 555;
}
);
leftKerningGroup = _kern27;
rightKerningGroup = _kern27;
},
{
glyphname = a00E4.alt;
layers = (
{
layerId = "1EFDAA9E-0693-44A2-9347-F36F1AB053F3";
shapes = (
{
closed = 1;
nodes = (
(210,712,o),
(235,689,o),
(235,656,cs),
(235,623,o),
(210,600,o),
(177,600,cs),
(145,600,o),
(120,623,o),
(120,656,cs),
(120,689,o),
(145,712,o),
(177,712,cs)
);
},
{
closed = 1;
nodes = (
(435,712,o),
(460,689,o),
(460,656,cs),
(460,623,o),
(435,600,o),
(402,600,cs),
(370,600,o),
(346,623,o),
(346,656,cs),
(346,689,o),
(370,712,o),
(402,712,cs)
);
},
{
closed = 1;
nodes = (
(407,64,l),
(382,39,o),
(352,21,o),
(319,10,cs),
(291,0,o),
(259,-5,o),
(224,-5,cs),
(133,-5,o),
(49,36,o),
(49,143,cs),
(49,231,o),
(115,274,o),
(193,292,cs),
(250,305,o),
(323,311,o),
(407,319,c),
(407,404,o),
(365,457,o),
(281,458,c),
(228,458,o),
(184,444,o),
(161,397,c),
(71,397,l),
(90,494,o),
(191,533,o),
(280,533,cs),
(443,533,o),
(490,429,o),
(490,288,cs),
(490,0,l),
(414,0,l)
);
},
{
closed = 1;
nodes = (
(134,79,o),
(200,69,o),
(236,69,cs),
(284,69,o),
(321,82,o),
(354,105,cs),
(386,126,o),
(407,154,o),
(407,214,cs),
(407,249,l),
(399,248,o),
(373,245,o),
(329,240,cs),
(285,235,o),
(255,230,o),
(240,228,cs),
(173,218,o),
(134,190,o),
(134,146,cs)
);
}
);
width = 555;
}
);
leftKerningGroup = _kern27;
rightKerningGroup = _kern27;
},
{
glyphname = a0103.alt;
layers = (
{
layerId = "1EFDAA9E-0693-44A2-9347-F36F1AB053F3";
shapes = (
{
closed = 1;
nodes = (
(338,667,o),
(371,684,o),
(374,740,c),
(452,740,l),
(452,737,ls),
(452,646,o),
(386,604,o),
(287,604,cs),
(178,604,o),
(116,644,o),
(116,737,cs),
(116,740,l),
(194,740,l),
(194,737,ls),
(194,685,o),
(228,667,o),
(285,667,cs)
);
},
{
closed = 1;
nodes = (
(407,64,l),
(358,15,o),
(292,-5,o),
(224,-5,cs),
(133,-5,o),
(49,36,o),
(49,143,cs),
(49,231,o),
(115,274,o),
(193,292,cs),
(250,305,o),
(323,311,o),
(407,319,c),
(407,404,o),
(365,457,o),
(281,458,c),
(228,458,o),
(184,444,o),
(161,397,c),
(71,397,l),
(90,494,o),
(191,533,o),
(280,533,cs),
(443,533,o),
(490,429,o),
(490,288,cs),
(490,0,l),
(414,0,l)
);
},
{
closed = 1;
nodes = (
(134,79,o),
(200,69,o),
(236,69,cs),
(284,69,o),
(321,82,o),
(354,105,cs),
(386,126,o),
(407,154,o),
(407,214,cs),
(407,249,l),
(399,248,o),
(373,245,o),
(329,240,cs),
(285,235,o),
(255,230,o),
(240,228,cs),
(173,218,o),
(134,190,o),
(134,146,cs)
);
}
);
width = 555;
}
);
leftKerningGroup = _kern27;
rightKerningGroup = _kern27;
},
{
glyphname = a2_alt;
layers = (
{
layerId = "1EFDAA9E-0693-44A2-9347-F36F1AB053F3";
shapes = (
{
closed = 1;
nodes = (
(537,0,l),
(452,0,l),
(452,71,l),
(415,22,o),
(351,-6,o),
(276,-6,cs),
(118,-6,o),
(47,110,o),
(47,262,cs),
(47,414,o),
(116,533,o),
(291,533,cs),
(352,533,o),
(412,511,o),
(452,463,c),
(452,527,l),
(537,527,l)
);
},
{
closed = 1;
nodes = (
(174,457,o),
(132,370,o),
(132,263,cs),
(132,204,o),
(142,161,o),
(167,126,cs),
(192,91,o),
(231,69,o),
(290,69,cs),
(355,69,o),
(400,105,o),
(427,153,cs),
(446,186,o),
(453,226,o),
(453,266,cs),
(453,314,o),
(446,353,o),
(423,388,cs),
(396,427,o),
(353,457,o),
(289,457,cs)
);
}
);
width = 604;
}
);
leftKerningGroup = _kern9;
},
{
glyphname = logom;
layers = (
{
layerId = "1EFDAA9E-0693-44A2-9347-F36F1AB053F3";
shapes = (
{
closed = 1;
nodes = (
(797,502,o),
(792,498,o),
(785,496,c),
(785,486,o),
(777,477,o),
(766,477,c),
(763,462,o),
(744,456,o),
(733,467,cs),
(711,489,o),
(714,482,o),
(714,520,c),
(689,540,l),
(571,540,l),
(544,514,l),
(544,478,l),
(690,478,ls),
(695,478,o),
(700,476,o),
(704,472,c),
(729,447,ls),
(741,435,o),
(732,413,o),
(715,413,cs),
(662,413,o),
(674,408,o),
(643,439,c),
(533,439,l),
(438,344,l),
(429,334,o),
(416,334,o),
(408,344,c),
(313,439,l),
(203,439,l),
(183,419,l),
(179,415,o),
(174,413,o),
(169,413,cs),
(131,413,ls),
(114,413,o),
(105,434,o),
(117,447,c),
(142,472,l),
(146,476,o),
(151,478,o),
(156,478,cs),
(302,478,l),
(302,514,l),
(275,540,l),
(157,540,l),
(132,520,l),
(132,482,o),
(135,489,o),
(113,467,cs),
(102,456,o),
(83,461,o),
(80,477,c),
(69,477,o),
(61,486,o),
(61,496,c),
(45,499,o),
(40,518,o),
(51,529,cs),
(73,551,o),
(66,548,o),
(104,548,c),
(138,575,l),
(141,578,o),
(146,580,o),
(150,580,cs),
(189,580,l),
(194,593,o),
(211,596,o),
(221,587,c),
(228,580,l),
(283,580,ls),
(292,580,o),
(296,575,o),
(302,569,c),
(302,590,l),
(275,616,l),
(139,616,l),
(113,590,o),
(119,591,o),
(93,591,cs),
(82,591,o),
(75,600,o),
(66,609,cs),
(59,617,o),
(59,628,o),
(65,636,c),
(51,653,o),
(70,666,o),
(79,675,cs),
(86,683,o),
(95,681,o),
(106,681,cs),
(111,681,o),
(116,679,o),
(120,675,c),
(139,656,l),
(175,656,l),
(175,684,l),
(159,691,o),
(149,707,o),
(149,725,cs),
(149,763,ls),
(149,774,o),
(158,783,o),
(169,783,cs),
(220,783,ls),
(231,783,o),
(240,774,o),
(240,763,cs),
(240,725,ls),
(240,707,o),
(230,691,o),
(214,684,c),
(214,656,l),
(239,656,l),
(233,676,o),
(258,690,o),
(272,675,c),
(309,639,l),
(309,639,o),
(314,643,o),
(321,643,cs),
(332,643,o),
(341,634,o),
(341,623,cs),
(341,467,l),
(403,404,l),
(403,476,l),
(371,508,ls),
(353,526,o),
(380,554,o),
(399,536,c),
(403,531,l),
(403,615,l),
(308,711,ls),
(300,719,o),
(302,730,o),
(302,743,c),
(296,743,ls),
(270,743,o),
(270,783,o),
(296,783,cs),
(302,783,l),
(302,788,ls),
(302,814,o),
(341,814,o),
(341,788,cs),
(341,783,l),
(347,783,ls),
(373,783,o),
(373,743,o),
(347,743,cs),
(341,743,l),
(341,733,l),
(403,671,l),
(403,792,l),
(402,796,o),
(353,843,o),
(346,851,c),
(338,858,o),
(338,871,o),
(346,879,cs),
(351,884,o),
(359,893,o),
(365,896,c),
(365,927,o),
(363,921,o),
(384,942,cs),
(390,949,o),
(400,950,o),
(408,945,c),
(418,954,o),
(433,951,o),
(438,945,c),
(454,955,o),
(465,939,o),
(475,929,cs),
(483,921,o),
(481,909,o),
(481,896,c),
(487,893,o),
(495,884,o),
(500,879,cs),
(508,871,o),
(508,858,o),
(500,851,c),
(493,843,o),
(444,796,o),
(443,792,c),
(443,671,l),
(505,733,l),
(505,743,l),
(499,743,ls),
(473,743,o),
(473,783,o),
(499,783,cs),
(505,783,l),
(505,788,ls),
(505,814,o),
(544,814,o),
(544,788,cs),
(544,783,l),
(550,783,ls),
(576,783,o),
(576,743,o),
(550,743,cs),
(544,743,l),
(544,730,o),
(546,719,o),
(539,711,c),
(443,615,l),
(443,531,l),
(448,537,o),
(452,542,o),
(461,542,cs),
(479,542,o),
(487,520,o),
(475,508,c),
(443,476,l),
(443,404,l),
(505,467,l),
(505,623,ls),
(505,640,o),
(524,649,o),
(537,639,c),
(574,675,l),
(588,690,o),
(613,676,o),
(607,656,c),
(632,656,l),
(632,684,l),
(616,691,o),
(606,707,o),
(606,725,cs),
(606,763,ls),
(606,774,o),
(615,783,o),
(626,783,cs),
(677,783,ls),
(688,783,o),
(697,774,o),
(697,763,cs),
(697,725,ls),
(697,707,o),
(687,691,o),
(671,684,c),
(671,656,l),
(707,656,l),
(733,682,o),
(727,681,o),
(753,681,cs),
(764,681,o),
(771,672,o),
(780,663,cs),
(787,655,o),
(787,644,o),
(781,636,c),
(795,620,o),
(776,606,o),
(767,597,cs),
(760,590,o),
(751,591,o),
(740,591,cs),
(735,591,o),
(730,593,o),
(726,597,c),
(707,616,l),
(571,616,l),
(544,590,l),
(544,569,l),
(550,575,o),
(554,580,o),
(563,580,cs),
(618,580,l),
(624,586,o),
(629,592,o),
(639,592,cs),
(647,592,o),
(654,587,o),
(657,580,c),
(696,580,ls),
(700,580,o),
(705,578,o),
(708,575,c),
(742,548,l),
(781,548,o),
(773,551,o),
(795,529,c),
(801,524,o),
(803,515,o),
(800,508,cs)
);
},
{
closed = 1;
nodes = (
(274,13,l),
(274,6,o),
(268,0,o),
(261,0,cs),
(200,0,ls),
(193,0,o),
(187,6,o),
(187,13,cs),
(187,364,ls),
(187,371,o),
(193,377,o),
(200,377,cs),
(261,377,ls),
(269,377,o),
(277,373,o),
(283,368,c),
(415,235,l),
(419,232,o),
(425,232,o),
(428,235,c),
(561,368,l),
(567,373,o),
(574,377,o),
(583,377,cs),
(644,377,ls),
(651,377,o),
(656,371,o),
(656,364,cs),
(656,13,ls),
(656,6,o),
(651,0,o),
(644,0,cs),
(583,0,ls),
(576,0,o),
(570,6,o),
(570,13,cs),
(570,233,ls),
(570,236,o),
(566,238,o),
(563,236,c),
(444,116,l),
(432,105,o),
(412,105,o),
(400,116,c),
(280,236,l),
(278,238,o),
(274,236,o),
(274,233,cs)
);
}
);
width = 847;
}
);
},
{
glyphname = plusminus;
layers = (
{
layerId = "AC606F0E-1AFD-480C-9187-DA0D7DF61F73";
name = img;
width = 521;
},
{
layerId = "1EFDAA9E-0693-44A2-9347-F36F1AB053F3";
shapes = (
{
closed = 1;
nodes = (
(74,446,l),
(221,446,l),
(221,596,l),
(299,596,l),
(299,446,l),
(447,446,l),
(447,369,l),
(299,369,l),
(299,256,l),
(221,256,l),
(221,369,l),
(74,369,l)
);
},
{
closed = 1;
nodes = (
(74,214,l),
(447,214,l),
(447,137,l),
(74,137,l)
);
}
);
width = 521;
}
);
unicode = 177;
},
{
glyphname = twosuperior;
layers = (
{
layerId = "AC606F0E-1AFD-480C-9187-DA0D7DF61F73";
name = img;
width = 372;
},
{
layerId = "1EFDAA9E-0693-44A2-9347-F36F1AB053F3";
shapes = (
{
closed = 1;
nodes = (
(161,526,ls),
(188,549,o),
(240,590,o),
(240,628,cs),
(240,664,o),
(219,683,o),
(184,683,cs),
(157,683,o),
(133,671,o),
(130,642,c),
(60,642,l),
(62,716,o),
(121,750,o),
(189,750,cs),
(260,751,o),
(312,711,o),
(312,639,cs),
(312,580,o),
(278,541,o),
(238,506,cs),
(214,485,o),
(190,467,o),
(166,446,c),
(308,446,l),
(308,380,l),
(62,380,l),
(62,441,l)
);
}
);
width = 372;
}
);
unicode = 178;
},
{
glyphname = threesuperior;
layers = (
{
layerId = "AC606F0E-1AFD-480C-9187-DA0D7DF61F73";
name = img;
width = 399;
},
{
layerId = "1EFDAA9E-0693-44A2-9347-F36F1AB053F3";
shapes = (
{
closed = 1;
nodes = (
(70,642,l),
(77,716,o),
(129,750,o),
(200,750,cs),
(262,750,o),
(324,725,o),
(324,654,cs),
(324,622,o),
(307,593,o),
(279,578,c),
(322,564,o),
(338,529,o),
(338,486,cs),
(338,410,o),
(272,376,o),
(201,376,cs),
(130,376,o),
(71,408,o),
(60,486,c),
(134,486,l),
(143,454,o),
(170,443,o),
(201,443,cs),
(234,443,o),
(264,456,o),
(264,493,cs),
(264,528,o),
(233,535,o),
(205,535,cs),
(168,535,l),
(168,596,l),
(193,596,ls),
(220,596,o),
(251,610,o),
(251,641,cs),
(251,673,o),
(226,684,o),
(199,684,cs),
(171,684,o),
(149,670,o),
(143,642,c)
);
}
);
width = 399;
}
);
unicode = 179;
},
{
glyphname = greaterequal;
layers = (
{
layerId = "AC606F0E-1AFD-480C-9187-DA0D7DF61F73";
name = img;
width = 507;
},
{
layerId = "1EFDAA9E-0693-44A2-9347-F36F1AB053F3";
shapes = (
{
closed = 1;
nodes = (
(69,215,l),
(438,215,l),
(438,137,l),
(69,137,l)
);
},
{
closed = 1;
nodes = (
(438,394,l),
(69,242,l),
(69,327,l),
(322,430,l),
(69,531,l),
(69,618,l),
(438,466,l)
);
}
);
width = 507;
}
);
unicode = 8805;
},
{
glyphname = lessequal;
layers = (
{
layerId = "AC606F0E-1AFD-480C-9187-DA0D7DF61F73";
name = img;
width = 507;
},
{
layerId = "1EFDAA9E-0693-44A2-9347-F36F1AB053F3";
shapes = (
{
closed = 1;
nodes = (
(69,215,l),
(438,215,l),
(438,137,l),
(69,137,l)
);
},
{
closed = 1;
nodes = (
(69,466,l),
(438,618,l),
(438,533,l),
(184,430,l),
(438,328,l),
(438,242,l),
(69,394,l)
);
}
);
width = 507;
}
);
unicode = 8804;
},
{
glyphname = notequal;
layers = (
{
layerId = "AC606F0E-1AFD-480C-9187-DA0D7DF61F73";
name = img;
width = 542;
},
{
layerId = "1EFDAA9E-0693-44A2-9347-F36F1AB053F3";
shapes = (
{
closed = 1;
nodes = (
(69,522,l),
(304,522,l),
(385,703,l),
(473,703,l),
(392,522,l),
(473,522,l),
(473,444,l),
(356,444,l),
(275,263,l),
(473,263,l),
(473,185,l),
(240,185,l),
(157,0,l),
(69,0,l),
(152,185,l),
(69,185,l),
(69,263,l),
(187,263,l),
(269,444,l),
(69,444,l)
);
}
);
width = 542;
}
);
unicode = 8800;
},
{
glyphname = approxequal;
layers = (
{
layerId = "AC606F0E-1AFD-480C-9187-DA0D7DF61F73";
name = img;
width = 615;
},
{
layerId = "1EFDAA9E-0693-44A2-9347-F36F1AB053F3";
shapes = (
{
closed = 1;
nodes = (
(305,341,o),
(348,221,o),
(410,221,cs),
(458,221,o),
(467,272,o),
(469,310,c),
(546,310,l),
(540,223,o),
(506,148,o),
(408,148,cs),
(311,148,o),
(266,267,o),
(205,267,cs),
(158,267,o),
(149,215,o),
(147,177,c),
(69,177,l),
(74,266,o),
(109,341,o),
(207,341,cs)
);
},
{
closed = 1;
nodes = (
(304,553,o),
(348,433,o),
(410,433,cs),
(458,433,o),
(467,485,o),
(469,524,c),
(546,524,l),
(540,435,o),
(506,360,o),
(408,360,cs),
(311,360,o),
(266,479,o),
(205,479,cs),
(158,479,o),
(149,427,o),
(147,390,c),
(69,390,l),
(74,478,o),
(109,553,o),
(207,553,cs)
);
}
);
width = 615;
}
);
unicode = 8776;
},
{
glyphname = uniE000;
layers = (
{
layerId = "1EFDAA9E-0693-44A2-9347-F36F1AB053F3";
shapes = (
{
closed = 1;
nodes = (
(612,172,o),
(547,-8,o),
(336,-8,cs),
(229,-8,o),
(161,38,o),
(118,105,cs),
(75,172,o),
(60,257,o),
(60,353,cs),
(60,449,o),
(75,535,o),
(118,602,cs),
(161,669,o),
(229,715,o),
(336,715,cs),
(547,715,o),
(612,534,o),
(612,353,cs)
);
},
{
closed = 1;
nodes = (
(149,225,o),
(177,71,o),
(336,71,cs),
(493,71,o),
(522,225,o),
(522,353,cs),
(522,478,o),
(493,636,o),
(336,636,cs),
(177,636,o),
(149,478,o),
(149,353,cs)
);
}
);
width = 672;
}
);
unicode = 57344;
},
{
glyphname = uniE001;
layers = (
{
layerId = "1EFDAA9E-0693-44A2-9347-F36F1AB053F3";
shapes = (
{
closed = 1;
nodes = (
(406,0,l),
(319,0,l),
(319,567,l),
(175,567,l),
(175,626,l),
(254,629,o),
(308,644,o),
(345,707,c),
(406,707,l)
);
}
);
width = 672;
}
);
unicode = 57345;
},
{
glyphname = uniE002;
layers = (
{
layerId = "1EFDAA9E-0693-44A2-9347-F36F1AB053F3";
shapes = (
{
closed = 1;
nodes = (
(292,247,ls),
(363,308,o),
(482,393,o),
(482,502,cs),
(482,588,o),
(427,635,o),
(342,635,cs),
(274,635,o),
(219,606,o),
(203,553,c),
(110,553,l),
(129,662,o),
(237,715,o),
(345,715,cs),
(476,715,o),
(570,640,o),
(570,510,cs),
(570,380,o),
(487,306,o),
(397,230,cs),
(218,79,l),
(578,79,l),
(578,0,l),
(92,0,l),
(92,72,l)
);
}
);
width = 672;
}
);
unicode = 57346;
},
{
glyphname = uniE003;
layers = (
{
layerId = "1EFDAA9E-0693-44A2-9347-F36F1AB053F3";
shapes = (
{
closed = 1;
nodes = (
(228,-8,o),
(100,32,o),
(81,158,c),
(171,158,l),
(195,90,o),
(276,71,o),
(340,71,cs),
(400,71,o),
(500,85,o),
(500,198,cs),
(500,305,o),
(410,320,o),
(328,320,cs),
(260,320,l),
(260,398,l),
(301,398,ls),
(337,398,o),
(365,396,o),
(402,413,cs),
(445,432,o),
(473,471,o),
(473,519,cs),
(474,616,o),
(402,636,o),
(333,636,cs),
(277,636,o),
(208,613,o),
(192,551,c),
(105,551,l),
(121,668,o),
(231,715,o),
(340,715,cs),
(459,715,o),
(559,667,o),
(559,533,cs),
(559,459,o),
(522,402,o),
(453,373,c),
(542,356,o),
(590,290,o),
(590,205,cs),
(590,52,o),
(479,-8,o),
(339,-8,cs)
);
}
);
width = 672;
}
);
unicode = 57347;
},
{
glyphname = uniE004;
layers = (
{
layerId = "1EFDAA9E-0693-44A2-9347-F36F1AB053F3";
shapes = (
{
closed = 1;
nodes = (
(526,707,l),
(526,220,l),
(609,220,l),
(609,141,l),
(526,141,l),
(526,0,l),
(439,0,l),
(439,141,l),
(55,141,l),
(55,206,l),
(401,707,l)
);
},
{
closed = 1;
nodes = (
(160,220,l),
(439,220,l),
(439,628,l)
);
}
);
width = 672;
}
);
unicode = 57348;
},
{
glyphname = uniE005;
layers = (
{
layerId = "1EFDAA9E-0693-44A2-9347-F36F1AB053F3";
shapes = (
{
closed = 1;
nodes = (
(107,318,l),
(139,707,l),
(562,707,l),
(562,627,l),
(217,627,l),
(197,405,l),
(233,434,o),
(283,454,o),
(359,454,cs),
(495,454,o),
(587,365,o),
(587,228,cs),
(587,80,o),
(477,-9,o),
(333,-9,cs),
(216,-9,o),
(111,43,o),
(87,160,c),
(175,160,l),
(196,104,o),
(265,71,o),
(325,71,cs),
(422,71,o),
(497,117,o),
(497,223,cs),
(497,320,o),
(432,374,o),
(339,374,cs),
(283,374,o),
(236,353,o),
(197,318,c)
);
}
);
width = 672;
}
);
unicode = 57349;
},
{
glyphname = uniE006;
layers = (
{
layerId = "1EFDAA9E-0693-44A2-9347-F36F1AB053F3";
shapes = (
{
closed = 1;
nodes = (
(206,420,o),
(280,451,o),
(357,451,cs),
(496,451,o),
(588,359,o),
(588,227,cs),
(588,87,o),
(487,-8,o),
(347,-8,cs),
(150,-8,o),
(78,144,o),
(77,317,cs),
(76,426,o),
(91,513,o),
(133,587,cs),
(175,661,o),
(246,715,o),
(359,715,cs),
(461,715,o),
(549,661,o),
(581,561,c),
(490,561,l),
(466,610,o),
(411,636,o),
(358,636,cs),
(206,636,o),
(161,475,o),
(161,351,c)
);
},
{
closed = 1;
nodes = (
(499,305,o),
(438,370,o),
(349,370,cs),
(266,370,o),
(189,312,o),
(189,220,cs),
(189,136,o),
(257,71,o),
(345,71,cs),
(434,71,o),
(499,135,o),
(499,218,cs)
);
}
);
width = 672;
}
);
unicode = 57350;
},
{
glyphname = uniE007;
layers = (
{
layerId = "1EFDAA9E-0693-44A2-9347-F36F1AB053F3";
shapes = (
{
closed = 1;
nodes = (
(196,0,l),
(482,627,l),
(108,627,l),
(108,707,l),
(578,707,l),
(578,635,l),
(292,0,l)
);
}
);
width = 672;
}
);
unicode = 57351;
},
{
glyphname = uniE008;
layers = (
{
layerId = "1EFDAA9E-0693-44A2-9347-F36F1AB053F3";
shapes = (
{
closed = 1;
nodes = (
(590,44,o),
(463,-8,o),
(336,-8,cs),
(208,-8,o),
(82,44,o),
(82,197,cs),
(82,277,o),
(126,337,o),
(199,365,c),
(118,403,o),
(103,477,o),
(103,528,cs),
(103,660,o),
(219,715,o),
(336,715,cs),
(453,715,o),
(569,660,o),
(569,528,cs),
(569,476,o),
(552,405,o),
(472,368,c),
(548,340,o),
(590,277,o),
(590,197,cs)
);
},
{
closed = 1;
nodes = (
(256,636,o),
(193,600,o),
(193,516,cs),
(193,431,o),
(262,397,o),
(336,397,cs),
(411,397,o),
(476,434,o),
(479,512,c),
(479,603,o),
(413,636,o),
(336,636,cs)
);
},
{
closed = 1;
nodes = (
(253,320,o),
(171,287,o),
(171,196,cs),
(171,93,o),
(273,71,o),
(336,71,cs),
(399,71,o),
(500,93,o),
(500,196,cs),
(500,287,o),
(419,320,o),
(336,320,cs)
);
}
);
width = 672;
}
);
unicode = 57352;
},
{
glyphname = uniE009;
layers = (
{
layerId = "1EFDAA9E-0693-44A2-9347-F36F1AB053F3";
shapes = (
{
closed = 1;
nodes = (
(523,365,l),
(485,287,o),
(401,258,o),
(322,258,cs),
(198,258,o),
(96,336,o),
(96,479,cs),
(96,620,o),
(195,715,o),
(342,715,cs),
(551,715,o),
(606,509,o),
(606,339,cs),
(606,243,o),
(585,146,o),
(536,82,cs),
(493,26,o),
(425,-8,o),
(329,-8,cs),
(227,-8,o),
(130,43,o),
(104,146,c),
(200,146,l),
(224,95,o),
(282,71,o),
(336,71,cs),
(401,72,o),
(449,99,o),
(477,142,cs),
(517,204,o),
(523,300,o),
(523,343,cs)
);
},
{
closed = 1;
nodes = (
(185,394,o),
(243,339,o),
(335,338,cs),
(420,338,o),
(492,395,o),
(492,481,cs),
(492,572,o),
(427,636,o),
(339,636,cs),
(250,636,o),
(185,569,o),
(185,487,cs)
);
}
);
width = 672;
}
);
unicode = 57353;
},
{
glyphname = uniE010;
layers = (
{
layerId = "1EFDAA9E-0693-44A2-9347-F36F1AB053F3";
shapes = (
{
closed = 1;
nodes = (
(170,112,o),
(195,87,o),
(195,52,cs),
(195,17,o),
(170,-8,o),
(135,-8,cs),
(100,-8,o),
(75,17,o),
(75,52,cs),
(75,87,o),
(100,112,o),
(135,112,cs)
);
}
);
width = 270;
}
);
unicode = 57360;
},
{
glyphname = uniE011;
layers = (
{
layerId = "1EFDAA9E-0693-44A2-9347-F36F1AB053F3";
shapes = (
{
closed = 1;
nodes = (
(94,0,o),
(71,21,o),
(71,54,cs),
(72,90,o),
(99,111,o),
(130,111,cs),
(169,111,o),
(194,82,o),
(194,31,cs),
(194,-29,o),
(145,-103,o),
(92,-122,c),
(68,-89,l),
(95,-70,o),
(121,-35,o),
(129,-3,c)
);
}
);
width = 270;
}
);
unicode = 57361;
},
{
glyphname = uniE012;
layers = (
{
layerId = "1EFDAA9E-0693-44A2-9347-F36F1AB053F3";
shapes = (
{
closed = 1;
nodes = (
(170,112,o),
(195,87,o),
(195,52,cs),
(195,17,o),
(170,-8,o),
(135,-8,cs),
(100,-8,o),
(75,17,o),
(75,52,cs),
(75,87,o),
(100,112,o),
(135,112,cs)
);
},
{
closed = 1;
nodes = (
(170,468,o),
(195,443,o),
(195,408,cs),
(195,373,o),
(170,348,o),
(135,348,cs),
(100,348,o),
(75,373,o),
(75,408,cs),
(75,443,o),
(100,468,o),
(135,468,cs)
);
}
);
width = 270;
}
);
unicode = 57362;
},
{
glyphname = uniE013;
layers = (
{
layerId = "1EFDAA9E-0693-44A2-9347-F36F1AB053F3";
shapes = (
{
closed = 1;
nodes = (
(170,468,o),
(195,443,o),
(195,408,cs),
(195,373,o),
(170,348,o),
(135,348,cs),
(100,348,o),
(75,373,o),
(75,408,cs),
(75,443,o),
(100,468,o),
(135,468,cs)
);
},
{
closed = 1;
nodes = (
(95,1,o),
(72,22,o),
(72,55,cs),
(72,92,o),
(100,112,o),
(131,112,cs),
(170,112,o),
(195,83,o),
(195,32,cs),
(195,-28,o),
(146,-102,o),
(93,-121,c),
(69,-88,l),
(96,-69,o),
(122,-34,o),
(130,-2,c)
);
}
);
width = 270;
}
);
unicode = 57363;
},
{
glyphname = uniE014;
layers = (
{
layerId = "1EFDAA9E-0693-44A2-9347-F36F1AB053F3";
shapes = (
{
closed = 1;
nodes = (
(166,471,l),
(104,471,l),
(91,707,l),
(179,707,l)
);
}
);
width = 270;
}
);
unicode = 57364;
},
{
glyphname = uniE015;
layers = (
{
layerId = "1EFDAA9E-0693-44A2-9347-F36F1AB053F3";
shapes = (
{
closed = 1;
nodes = (
(125,471,l),
(63,471,l),
(50,707,l),
(138,707,l)
);
},
{
closed = 1;
nodes = (
(273,471,l),
(211,471,l),
(198,707,l),
(286,707,l)
);
}
);
width = 336;
}
);
unicode = 57365;
},
{
glyphname = uniE016;
layers = (
{
layerId = "1EFDAA9E-0693-44A2-9347-F36F1AB053F3";
shapes = (
{
closed = 1;
nodes = (
(94,621,o),
(71,642,o),
(71,675,cs),
(71,712,o),
(99,732,o),
(130,732,cs),
(169,732,o),
(194,703,o),
(194,652,cs),
(194,591,o),
(143,517,o),
(92,499,c),
(68,532,l),
(95,551,o),
(121,586,o),
(129,618,c)
);
}
);
width = 270;
}
);
unicode = 57366;
},
{
glyphname = uniE017;
layers = (
{
layerId = "1EFDAA9E-0693-44A2-9347-F36F1AB053F3";
shapes = (
{
closed = 1;
nodes = (
(48,621,o),
(25,642,o),
(25,675,cs),
(25,712,o),
(53,732,o),
(84,732,cs),
(123,732,o),
(148,703,o),
(148,652,cs),
(148,592,o),
(99,518,o),
(46,499,c),
(22,532,l),
(49,551,o),
(75,586,o),
(83,618,c)
);
},
{
closed = 1;
nodes = (
(213,621,o),
(190,642,o),
(190,675,cs),
(190,712,o),
(218,732,o),
(249,732,cs),
(288,732,o),
(313,703,o),
(313,652,cs),
(313,592,o),
(264,518,o),
(211,499,c),
(187,532,l),
(214,551,o),
(240,586,o),
(248,618,c)
);
}
);
width = 336;
}
);
unicode = 57367;
},
{
glyphname = uniE018;
layers = (
{
layerId = "1EFDAA9E-0693-44A2-9347-F36F1AB053F3";
shapes = (
{
closed = 1;
nodes = (
(169,622,o),
(192,601,o),
(192,568,cs),
(192,531,o),
(164,511,o),
(133,511,cs),
(94,511,o),
(68,541,o),
(69,589,cs),
(69,648,o),
(113,725,o),
(171,744,c),
(195,711,l),
(168,692,o),
(142,657,o),
(134,625,c)
);
}
);
width = 270;
}
);
unicode = 57368;
},
{
glyphname = uniE019;
layers = (
{
layerId = "1EFDAA9E-0693-44A2-9347-F36F1AB053F3";
shapes = (
{
closed = 1;
nodes = (
(287,624,o),
(310,603,o),
(310,570,cs),
(310,533,o),
(282,513,o),
(251,513,cs),
(212,513,o),
(187,542,o),
(187,593,cs),
(187,653,o),
(236,727,o),
(289,746,c),
(313,713,l),
(286,694,o),
(260,659,o),
(252,627,c)
);
},
{
closed = 1;
nodes = (
(122,624,o),
(145,603,o),
(145,570,cs),
(145,533,o),
(117,513,o),
(86,513,cs),
(47,513,o),
(22,542,o),
(22,593,cs),
(22,653,o),
(71,727,o),
(124,746,c),
(148,713,l),
(121,694,o),
(95,659,o),
(87,627,c)
);
}
);
width = 336;
}
);
unicode = 57369;
},
{
glyphname = uniE020;
layers = (
{
layerId = "1EFDAA9E-0693-44A2-9347-F36F1AB053F3";
shapes = (
{
closed = 1;
nodes = (
(94,0,o),
(71,21,o),
(71,54,cs),
(71,91,o),
(99,111,o),
(130,111,cs),
(169,111,o),
(194,82,o),
(194,31,cs),
(194,-29,o),
(145,-103,o),
(92,-122,c),
(68,-89,l),
(95,-70,o),
(121,-35,o),
(129,-3,c)
);
}
);
width = 270;
}
);
unicode = 57376;
},
{
glyphname = uniE021;
layers = (
{
layerId = "1EFDAA9E-0693-44A2-9347-F36F1AB053F3";
shapes = (
{
closed = 1;
nodes = (
(48,1,o),
(25,22,o),
(25,55,cs),
(25,92,o),
(53,112,o),
(84,112,cs),
(123,112,o),
(148,83,o),
(148,32,cs),
(148,-28,o),
(99,-102,o),
(46,-121,c),
(22,-88,l),
(49,-69,o),
(75,-34,o),
(83,-2,c)
);
},
{
closed = 1;
nodes = (
(213,1,o),
(190,22,o),
(190,55,cs),
(190,92,o),
(218,112,o),
(249,112,cs),
(288,112,o),
(313,83,o),
(313,32,cs),
(313,-28,o),
(264,-102,o),
(211,-121,c),
(187,-88,l),
(214,-69,o),
(240,-34,o),
(248,-2,c)
);
}
);
width = 336;
}
);
unicode = 57377;
},
{
glyphname = uniE022;
layers = (
{
layerId = "1EFDAA9E-0693-44A2-9347-F36F1AB053F3";
shapes = (
{
closed = 1;
nodes = (
(170,225,o),
(195,200,o),
(195,165,cs),
(195,130,o),
(170,105,o),
(135,105,cs),
(100,105,o),
(75,130,o),
(75,165,cs),
(75,200,o),
(100,225,o),
(135,225,cs)
);
},
{
closed = 1;
nodes = (
(170,581,o),
(195,556,o),
(195,521,cs),
(195,486,o),
(170,461,o),
(135,461,cs),
(100,461,o),
(75,486,o),
(75,521,cs),
(75,556,o),
(100,581,o),
(135,581,cs)
);
}
);
width = 270;
}
);
unicode = 57378;
},
{
glyphname = arrowright;
layers = (
{
layerId = "1EFDAA9E-0693-44A2-9347-F36F1AB053F3";
shapes = (
{
closed = 1;
nodes = (
(13,300,l),
(13,374,l),
(535,374,l),
(289,572,l),
(337,628,l),
(687,337,l),
(337,45,l),
(289,102,l),
(535,300,l)
);
}
);
width = 701;
}
);
unicode = 8594;
},
{
glyphname = uni2197;
layers = (
{
layerId = "1EFDAA9E-0693-44A2-9347-F36F1AB053F3";
shapes = (
{
closed = 1;
nodes = (
(138,73,l),
(86,125,l),
(455,494,l),
(141,460,l),
(135,534,l),
(588,575,l),
(547,121,l),
(473,128,l),
(507,442,l)
);
}
);
width = 701;
}
);
unicode = 8599;
},
{
glyphname = uni2196;
layers = (
{
layerId = "1EFDAA9E-0693-44A2-9347-F36F1AB053F3";
shapes = (
{
closed = 1;
nodes = (
(614,125,l),
(562,73,l),
(193,442,l),
(227,128,l),
(153,122,l),
(112,575,l),
(566,534,l),
(559,460,l),
(245,494,l)
);
}
);
width = 701;
}
);
unicode = 8598;
},
{
glyphname = arrowleft;
layers = (
{
layerId = "1EFDAA9E-0693-44A2-9347-F36F1AB053F3";
shapes = (
{
closed = 1;
nodes = (
(165,373,l),
(687,373,l),
(687,299,l),
(165,299,l),
(411,101,l),
(363,45,l),
(13,336,l),
(363,628,l),
(411,571,l)
);
}
);
width = 701;
}
);
unicode = 8592;
},
{
glyphname = uni2198;
layers = (
{
layerId = "1EFDAA9E-0693-44A2-9347-F36F1AB053F3";
shapes = (
{
closed = 1;
nodes = (
(455,181,l),
(86,550,l),
(139,602,l),
(508,233,l),
(474,547,l),
(547,553,l),
(589,99,l),
(135,140,l),
(141,215,l)
);
}
);
width = 701;
}
);
unicode = 8600;
},
{
glyphname = uni2199;
layers = (
{
layerId = "1EFDAA9E-0693-44A2-9347-F36F1AB053F3";
shapes = (
{
closed = 1;
nodes = (
(194,232,l),
(563,601,l),
(615,548,l),
(246,179,l),
(560,213,l),
(566,140,l),
(112,98,l),
(153,552,l),
(228,546,l)
);
}
);
width = 701;
}
);
unicode = 8601;
},
{
glyphname = tab_1;
layers = (
{
layerId = "1EFDAA9E-0693-44A2-9347-F36F1AB053F3";
shapes = (
{
closed = 1;
nodes = (
(406,79,l),
(587,79,l),
(587,0,l),
(112,0,l),
(112,79,l),
(319,79,l),
(319,564,l),
(140,564,l),
(140,618,l),
(177,618,o),
(229,620,o),
(267,636,cs),
(304,652,o),
(331,674,o),
(347,707,c),
(406,707,l)
);
}
);
width = 672;
}
);
},
{
glyphname = I_alt;
layers = (
{
layerId = "1EFDAA9E-0693-44A2-9347-F36F1AB053F3";
shapes = (
{
closed = 1;
nodes = (
(45,0,l),
(45,79,l),
(239,79,l),
(239,628,l),
(45,628,l),
(45,707,l),
(520,707,l),
(520,628,l),
(326,628,l),
(326,79,l),
(520,79,l),
(520,0,l)
);
}
);
width = 565;
}
);
},
{
glyphname = l_alt;
layers = (
{
layerId = "1EFDAA9E-0693-44A2-9347-F36F1AB053F3";
shapes = (
{
closed = 1;
nodes = (
(67,707,l),
(67,219,l),
(67,145,o),
(68,84,o),
(98,46,cs),
(121,16,o),
(160,0,o),
(228,0,cs),
(290,0,l),
(290,75,l),
(248,75,ls),
(205,75,o),
(178,85,o),
(166,106,cs),
(149,134,o),
(152,178,o),
(152,224,c),
(152,707,l)
);
}
);
width = 285;
}
);
},
{
glyphname = l2_alt;
layers = (
{
layerId = "1EFDAA9E-0693-44A2-9347-F36F1AB053F3";
shapes = (
{
closed = 1;
nodes = (
(155,178,l),
(156,148,o),
(156,123,o),
(167,101,cs),
(180,77,o),
(204,69,o),
(229,69,cs),
(256,69,o),
(280,80,o),
(299,96,c),
(336,34,l),
(301,4,o),
(260,-6,o),
(220,-6,cs),
(171,-6,o),
(128,8,o),
(99,43,c),
(73,79,o),
(70,126,o),
(70,167,c),
(70,707,l),
(155,707,l)
);
}
);
width = 326;
}
);
},
{
glyphname = questiondown;
layers = (
{
layerId = "AC606F0E-1AFD-480C-9187-DA0D7DF61F73";
name = img;
width = 513;
},
{
layerId = "1EFDAA9E-0693-44A2-9347-F36F1AB053F3";
shapes = (
{
closed = 1;
nodes = (
(322,312,l),
(323,305,o),
(323,298,o),
(323,291,cs),
(323,259,o),
(318,229,o),
(287,192,cs),
(260,161,o),
(215,124,o),
(186,91,cs),
(160,63,o),
(142,25,o),
(142,-8,cs),
(142,-76,o),
(193,-111,o),
(260,-111,cs),
(315,-111,o),
(374,-91,o),
(388,-31,c),
(476,-31,l),
(463,-138,o),
(363,-190,o),
(260,-190,cs),
(204,-190,o),
(153,-175,o),
(116,-146,cs),
(79,-117,o),
(54,-76,o),
(55,-12,cs),
(55,49,o),
(81,98,o),
(123,141,cs),
(151,171,o),
(202,213,o),
(222,246,cs),
(232,263,o),
(235,287,o),
(235,304,cs),
(235,312,l)
);
},
{
closed = 1;
nodes = (
(245,413,o),
(220,438,o),
(220,473,cs),
(220,508,o),
(245,533,o),
(280,533,cs),
(315,533,o),
(339,508,o),
(339,473,cs),
(339,438,o),
(315,413,o),
(280,413,cs)
);
}
);
width = 513;
}
);
unicode = 191;
},
{
glyphname = exclamdown;
layers = (
{
layerId = "AC606F0E-1AFD-480C-9187-DA0D7DF61F73";
name = img;
width = 273;
},
{
layerId = "1EFDAA9E-0693-44A2-9347-F36F1AB053F3";
shapes = (
{
closed = 1;
nodes = (
(174,305,l),
(186,-182,l),
(89,-182,l),
(101,305,l)
);
},
{
closed = 1;
nodes = (
(104,413,o),
(77,438,o),
(77,473,cs),
(77,508,o),
(104,533,o),
(137,533,cs),
(172,533,o),
(196,508,o),
(196,473,cs),
(196,438,o),
(172,413,o),
(137,413,cs)
);
}
);
width = 273;
}
);
unicode = 161;
},
{
glyphname = paragraph;
layers = (
{
layerId = "AC606F0E-1AFD-480C-9187-DA0D7DF61F73";
name = img;
width = 635;
},
{
layerId = "1EFDAA9E-0693-44A2-9347-F36F1AB053F3";
shapes = (
{
closed = 1;
nodes = (
(260,0,l),
(260,314,l),
(136,314,o),
(30,366,o),
(30,518,cs),
(30,635,o),
(123,707,o),
(235,707,cs),
(605,707,l),
(605,628,l),
(518,628,l),
(518,0,l),
(431,0,l),
(431,628,l),
(347,628,l),
(347,0,l)
);
}
);
width = 635;
}
);
unicode = 182;
},
{
glyphname = macron;
layers = (
{
layerId = "AC606F0E-1AFD-480C-9187-DA0D7DF61F73";
name = img;
width = 563;
},
{
layerId = "1EFDAA9E-0693-44A2-9347-F36F1AB053F3";
shapes = (
{
closed = 1;
nodes = (
(122,707,l),
(441,707,l),
(441,633,l),
(122,633,l)
);
}
);
width = 563;
}
);
unicode = 175;
},
{
glyphname = ordfeminine;
layers = (
{
layerId = "AC606F0E-1AFD-480C-9187-DA0D7DF61F73";
name = img;
width = 366;
},
{
layerId = "1EFDAA9E-0693-44A2-9347-F36F1AB053F3";
shapes = (
{
closed = 1;
nodes = (
(250,442,l),
(222,417,o),
(190,407,o),
(158,407,cs),
(99,407,o),
(50,439,o),
(50,500,cs),
(50,572,o),
(108,593,o),
(169,593,cs),
(245,593,l),
(242,633,o),
(227,658,o),
(184,659,cs),
(156,659,o),
(133,652,o),
(126,627,c),
(60,627,l),
(72,691,o),
(121,718,o),
(184,718,cs),
(276,718,o),
(306,657,o),
(306,574,cs),
(306,410,l),
(255,410,l)
);
},
{
closed = 1;
nodes = (
(192,540,ls),
(166,540,o),
(112,544,o),
(112,504,cs),
(112,476,o),
(135,465,o),
(164,465,cs),
(185,465,o),
(207,468,o),
(224,483,cs),
(243,498,o),
(245,517,o),
(245,540,c)
);
}
);
width = 366;
}
);
unicode = 170;
},
{
glyphname = periodcentered;
layers = (
{
layerId = "AC606F0E-1AFD-480C-9187-DA0D7DF61F73";
name = img;
width = 249;
},
{
layerId = "1EFDAA9E-0693-44A2-9347-F36F1AB053F3";
shapes = (
{
closed = 1;
nodes = (
(156,420,o),
(182,397,o),
(182,364,cs),
(182,331,o),
(157,307,o),
(124,307,cs),
(90,307,o),
(67,330,o),
(67,364,cs),
(67,397,o),
(91,420,o),
(124,420,cs)
);
}
);
width = 249;
}
);
unicode = 183;
},
{
glyphname = ordmasculine;
layers = (
{
layerId = "AC606F0E-1AFD-480C-9187-DA0D7DF61F73";
name = img;
width = 387;
},
{
layerId = "1EFDAA9E-0693-44A2-9347-F36F1AB053F3";
shapes = (
{
closed = 1;
nodes = (
(125,516,o),
(135,463,o),
(193,463,cs),
(251,463,o),
(261,518,o),
(261,559,cs),
(261,602,o),
(251,655,o),
(193,655,cs),
(136,655,o),
(125,602,o),
(125,559,cs)
);
},
{
closed = 1;
nodes = (
(327,480,o),
(292,404,o),
(193,404,cs),
(94,404,o),
(60,480,o),
(60,559,cs),
(60,638,o),
(94,715,o),
(193,715,cs),
(292,715,o),
(327,638,o),
(327,559,cs)
);
}
);
width = 387;
}
);
unicode = 186;
},
{
glyphname = caron;
layers = (
{
layerId = "AC606F0E-1AFD-480C-9187-DA0D7DF61F73";
name = img;
width = 559;
},
{
layerId = "1EFDAA9E-0693-44A2-9347-F36F1AB053F3";
shapes = (
{
closed = 1;
nodes = (
(250,606,l),
(116,769,l),
(202,769,l),
(280,673,l),
(358,769,l),
(443,769,l),
(310,606,l)
);
}
);
width = 559;
}
);
unicode = 711;
},
{
glyphname = dotaccent;
layers = (
{
layerId = "AC606F0E-1AFD-480C-9187-DA0D7DF61F73";
name = img;
width = 577;
},
{
layerId = "1EFDAA9E-0693-44A2-9347-F36F1AB053F3";
shapes = (
{
closed = 1;
nodes = (
(319,718,o),
(346,694,o),
(346,662,cs),
(346,629,o),
(320,605,o),
(288,605,cs),
(253,605,o),
(231,629,o),
(231,662,cs),
(231,695,o),
(255,718,o),
(288,718,cs)
);
}
);
width = 577;
}
);
unicode = 729;
},
{
glyphname = ring;
layers = (
{
layerId = "AC606F0E-1AFD-480C-9187-DA0D7DF61F73";
name = img;
width = 569;
},
{
layerId = "1EFDAA9E-0693-44A2-9347-F36F1AB053F3";
shapes = (
{
closed = 1;
nodes = (
(344,791,o),
(383,747,o),
(383,690,cs),
(383,631,o),
(341,595,o),
(284,595,cs),
(225,595,o),
(186,631,o),
(186,690,cs),
(186,749,o),
(226,791,o),
(285,791,cs)
);
},
{
closed = 1;
nodes = (
(311,647,o),
(327,665,o),
(327,692,cs),
(327,719,o),
(311,737,o),
(284,737,cs),
(257,737,o),
(241,719,o),
(241,692,cs),
(241,665,o),
(257,647,o),
(284,647,cs)
);
}
);
width = 569;
}
);
unicode = 730;
},
{
glyphname = tilde;
layers = (
{
layerId = "AC606F0E-1AFD-480C-9187-DA0D7DF61F73";
name = img;
width = 557;
},
{
layerId = "1EFDAA9E-0693-44A2-9347-F36F1AB053F3";
shapes = (
{
closed = 1;
nodes = (
(277,615,o),
(244,687,o),
(211,687,cs),
(180,687,o),
(181,641,o),
(181,620,c),
(112,620,l),
(112,685,o),
(132,750,o),
(212,750,cs),
(278,750,o),
(311,677,o),
(344,677,cs),
(377,677,o),
(375,723,o),
(375,745,c),
(445,745,l),
(442,681,o),
(424,615,o),
(343,615,cs)
);
}
);
width = 557;
}
);
unicode = 732;
},
{
glyphname = ogonek;
layers = (
{
layerId = "AC606F0E-1AFD-480C-9187-DA0D7DF61F73";
name = img;
width = 520;
},
{
layerId = "1EFDAA9E-0693-44A2-9347-F36F1AB053F3";
shapes = (
{
closed = 1;
nodes = (
(208,-223,o),
(160,-179,o),
(160,-111,cs),
(160,-51,o),
(205,-8,o),
(256,15,c),
(319,5,l),
(275,-18,o),
(234,-57,o),
(234,-101,cs),
(234,-138,o),
(259,-160,o),
(298,-160,cs),
(314,-160,o),
(330,-156,o),
(346,-148,c),
(360,-207,l),
(336,-220,o),
(316,-224,o),
(289,-224,c)
);
}
);
width = 520;
}
);
unicode = 731;
},
{
glyphname = hungarumlaut;
layers = (
{
layerId = "AC606F0E-1AFD-480C-9187-DA0D7DF61F73";
name = img;
width = 558;
},
{
layerId = "1EFDAA9E-0693-44A2-9347-F36F1AB053F3";
shapes = (
{
closed = 1;
nodes = (
(227,769,l),
(319,769,l),
(219,628,l),
(142,628,l)
);
},
{
closed = 1;
nodes = (
(386,769,l),
(478,769,l),
(378,628,l),
(301,628,l)
);
}
);
width = 558;
}
);
unicode = 733;
},
{
glyphname = gravecomb;
layers = (
{
layerId = "AC606F0E-1AFD-480C-9187-DA0D7DF61F73";
name = img;
width = 0;
},
{
layerId = "1EFDAA9E-0693-44A2-9347-F36F1AB053F3";
shapes = (
{
closed = 1;
nodes = (
(-291,628,l),
(-391,769,l),
(-299,769,l),
(-214,628,l)
);
}
);
width = 0;
}
);
unicode = 768;
},
{
glyphname = acutecomb;
layers = (
{
layerId = "AC606F0E-1AFD-480C-9187-DA0D7DF61F73";
name = img;
width = 0;
},
{
layerId = "1EFDAA9E-0693-44A2-9347-F36F1AB053F3";
shapes = (
{
closed = 1;
nodes = (
(-230,769,l),
(-138,769,l),
(-238,628,l),
(-315,628,l)
);
}
);
width = 0;
}
);
unicode = 769;
},
{
glyphname = uni0302;
layers = (
{
layerId = "AC606F0E-1AFD-480C-9187-DA0D7DF61F73";
name = img;
width = 0;
},
{
layerId = "1EFDAA9E-0693-44A2-9347-F36F1AB053F3";
shapes = (
{
closed = 1;
nodes = (
(-237,769,l),
(-103,606,l),
(-189,606,l),
(-267,702,l),
(-345,606,l),
(-430,606,l),
(-297,769,l)
);
}
);
width = 0;
}
);
unicode = 770;
},
{
glyphname = tildecomb;
layers = (
{
layerId = "AC606F0E-1AFD-480C-9187-DA0D7DF61F73";
name = img;
width = 0;
},
{
layerId = "1EFDAA9E-0693-44A2-9347-F36F1AB053F3";
shapes = (
{
closed = 1;
nodes = (
(-280,615,o),
(-313,687,o),
(-346,687,cs),
(-377,687,o),
(-376,641,o),
(-376,620,c),
(-445,620,l),
(-445,685,o),
(-425,750,o),
(-345,750,cs),
(-279,750,o),
(-246,677,o),
(-213,677,cs),
(-180,677,o),
(-182,723,o),
(-182,745,c),
(-112,745,l),
(-115,681,o),
(-133,615,o),
(-214,615,cs)
);
}
);
width = 0;
}
);
unicode = 771;
},
{
glyphname = uni0304;
layers = (
{
layerId = "AC606F0E-1AFD-480C-9187-DA0D7DF61F73";
name = img;
width = 0;
},
{
layerId = "1EFDAA9E-0693-44A2-9347-F36F1AB053F3";
shapes = (
{
closed = 1;
nodes = (
(-439,707,l),
(-120,707,l),
(-120,633,l),
(-439,633,l)
);
}
);
width = 0;
}
);
unicode = 772;
},
{
glyphname = uni0306;
layers = (
{
layerId = "AC606F0E-1AFD-480C-9187-DA0D7DF61F73";
name = img;
width = 0;
},
{
layerId = "1EFDAA9E-0693-44A2-9347-F36F1AB053F3";
shapes = (
{
closed = 1;
nodes = (
(-214,667,o),
(-180,687,o),
(-177,734,c),
(-99,734,l),
(-102,647,o),
(-166,601,o),
(-271,601,cs),
(-376,601,o),
(-438,647,o),
(-441,734,c),
(-363,734,l),
(-360,687,o),
(-326,667,o),
(-270,667,cs)
);
}
);
width = 0;
}
);
unicode = 774;
},
{
glyphname = uni0307;
layers = (
{
layerId = "AC606F0E-1AFD-480C-9187-DA0D7DF61F73";
name = img;
width = 0;
},
{
layerId = "1EFDAA9E-0693-44A2-9347-F36F1AB053F3";
shapes = (
{
closed = 1;
nodes = (
(-252,718,o),
(-225,694,o),
(-225,662,cs),
(-225,629,o),
(-251,605,o),
(-283,605,cs),
(-318,605,o),
(-340,629,o),
(-340,662,cs),
(-340,695,o),
(-316,718,o),
(-283,718,cs)
);
}
);
width = 0;
}
);
unicode = 775;
},
{
glyphname = uni0308;
layers = (
{
layerId = "1EFDAA9E-0693-44A2-9347-F36F1AB053F3";
shapes = (
{
closed = 1;
nodes = (
(-356,707,o),
(-331,684,o),
(-331,651,cs),
(-331,618,o),
(-356,595,o),
(-389,595,cs),
(-421,595,o),
(-446,618,o),
(-446,651,cs),
(-446,684,o),
(-421,707,o),
(-389,707,cs)
);
},
{
closed = 1;
nodes = (
(-131,707,o),
(-106,684,o),
(-106,651,cs),
(-106,618,o),
(-131,595,o),
(-164,595,cs),
(-196,595,o),
(-220,618,o),
(-220,651,cs),
(-220,684,o),
(-196,707,o),
(-164,707,cs)
);
}
);
width = 0;
}
);
unicode = 776;
},
{
glyphname = uni030A;
layers = (
{
layerId = "AC606F0E-1AFD-480C-9187-DA0D7DF61F73";
name = img;
width = 0;
},
{
layerId = "1EFDAA9E-0693-44A2-9347-F36F1AB053F3";
shapes = (
{
closed = 1;
nodes = (
(-218,791,o),
(-179,747,o),
(-179,690,cs),
(-179,631,o),
(-221,595,o),
(-278,595,cs),
(-337,595,o),
(-376,631,o),
(-376,690,cs),
(-376,749,o),
(-336,791,o),
(-277,791,cs)
);
},
{
closed = 1;
nodes = (
(-251,647,o),
(-235,665,o),
(-235,692,cs),
(-235,719,o),
(-251,737,o),
(-278,737,cs),
(-305,737,o),
(-321,719,o),
(-321,692,cs),
(-321,665,o),
(-305,647,o),
(-278,647,cs)
);
}
);
width = 0;
}
);
unicode = 778;
},
{
glyphname = uni030B;
layers = (
{
layerId = "AC606F0E-1AFD-480C-9187-DA0D7DF61F73";
name = img;
width = 0;
},
{
layerId = "1EFDAA9E-0693-44A2-9347-F36F1AB053F3";
shapes = (
{
closed = 1;
nodes = (
(-329,769,l),
(-237,769,l),
(-337,628,l),
(-414,628,l)
);
},
{
closed = 1;
nodes = (
(-170,769,l),
(-78,769,l),
(-178,628,l),
(-255,628,l)
);
}
);
width = 0;
}
);
unicode = 779;
},
{
glyphname = uni030C;
layers = (
{
layerId = "AC606F0E-1AFD-480C-9187-DA0D7DF61F73";
name = img;
width = 0;
},
{
layerId = "1EFDAA9E-0693-44A2-9347-F36F1AB053F3";
shapes = (
{
closed = 1;
nodes = (
(-313,606,l),
(-448,769,l),
(-361,769,l),
(-283,673,l),
(-205,769,l),
(-120,769,l),
(-254,606,l)
);
}
);
width = 0;
}
);
unicode = 780;
},
{
glyphname = uni0312;
layers = (
{
layerId = "AC606F0E-1AFD-480C-9187-DA0D7DF61F73";
name = img;
width = 0;
},
{
layerId = "1EFDAA9E-0693-44A2-9347-F36F1AB053F3";
shapes = (
{
closed = 1;
nodes = (
(-246,711,o),
(-223,690,o),
(-223,657,cs),
(-223,620,o),
(-251,600,o),
(-282,600,cs),
(-321,600,o),
(-345,630,o),
(-346,678,cs),
(-346,738,o),
(-303,813,o),
(-244,833,c),
(-220,800,l),
(-247,781,o),
(-273,746,o),
(-281,714,c)
);
}
);
width = 0;
}
);
unicode = 786;
},
{
glyphname = uni0327;
layers = (
{
layerId = "AC606F0E-1AFD-480C-9187-DA0D7DF61F73";
name = img;
width = 0;
},
{
layerId = "1EFDAA9E-0693-44A2-9347-F36F1AB053F3";
shapes = (
{
closed = 1;
nodes = (
(-249,-59,l),
(-241,-58,o),
(-233,-57,o),
(-226,-57,cs),
(-174,-57,o),
(-147,-87,o),
(-147,-138,cs),
(-147,-182,o),
(-169,-214,o),
(-200,-231,cs),
(-241,-253,o),
(-288,-253,o),
(-327,-253,c),
(-327,-198,l),
(-282,-198,o),
(-216,-197,o),
(-216,-145,cs),
(-216,-110,o),
(-260,-110,o),
(-273,-110,cs),
(-286,-110,o),
(-308,-112,o),
(-325,-119,c),
(-296,8,l),
(-234,8,l)
);
}
);
width = 0;
}
);
unicode = 807;
},
{
glyphname = uni0328;
layers = (
{
layerId = "AC606F0E-1AFD-480C-9187-DA0D7DF61F73";
name = img;
width = 0;
},
{
layerId = "1EFDAA9E-0693-44A2-9347-F36F1AB053F3";
shapes = (
{
closed = 1;
nodes = (
(-172,-223,o),
(-220,-179,o),
(-220,-111,cs),
(-220,-51,o),
(-175,-8,o),
(-124,15,c),
(-61,5,l),
(-105,-18,o),
(-146,-57,o),
(-146,-101,cs),
(-146,-138,o),
(-121,-160,o),
(-82,-160,cs),
(-66,-160,o),
(-50,-156,o),
(-34,-148,c),
(-20,-207,l),
(-44,-220,o),
(-64,-224,o),
(-91,-224,c)
);
}
);
width = 0;
}
);
unicode = 808;
},
{
glyphname = Agrave;
layers = (
{
layerId = "AC606F0E-1AFD-480C-9187-DA0D7DF61F73";
name = img;
width = 670;
},
{
layerId = "1EFDAA9E-0693-44A2-9347-F36F1AB053F3";
shapes = (
{
closed = 1;
nodes = (
(311,786,l),
(211,927,l),
(303,927,l),
(388,786,l)
);
},
{
closed = 1;
nodes = (
(566,0,l),
(510,152,l),
(160,152,l),
(104,0,l),
(10,0,l),
(273,707,l),
(398,707,l),
(660,0,l)
);
},
{
closed = 1;
nodes = (
(335,631,l),
(189,231,l),
(481,231,l)
);
}
);
width = 670;
}
);
leftKerningGroup = _kern30;
rightKerningGroup = _kern30;
unicode = 192;
},
{
glyphname = Aacute;
layers = (
{
layerId = "AC606F0E-1AFD-480C-9187-DA0D7DF61F73";
name = img;
width = 670;
},
{
layerId = "1EFDAA9E-0693-44A2-9347-F36F1AB053F3";
shapes = (
{
closed = 1;
nodes = (
(566,0,l),
(510,152,l),
(160,152,l),
(104,0,l),
(10,0,l),
(273,707,l),
(398,707,l),
(660,0,l)
);
},
{
closed = 1;
nodes = (
(335,631,l),
(189,231,l),
(481,231,l)
);
},
{
closed = 1;
nodes = (
(380,927,l),
(472,927,l),
(372,786,l),
(295,786,l)
);
}
);
width = 670;
}
);
leftKerningGroup = _kern30;
rightKerningGroup = _kern30;
unicode = 193;
},
{
glyphname = Atilde;
layers = (
{
layerId = "AC606F0E-1AFD-480C-9187-DA0D7DF61F73";
name = img;
width = 670;
},
{
layerId = "1EFDAA9E-0693-44A2-9347-F36F1AB053F3";
shapes = (
{
closed = 1;
nodes = (
(566,0,l),
(510,152,l),
(160,152,l),
(104,0,l),
(10,0,l),
(273,707,l),
(398,707,l),
(660,0,l)
);
},
{
closed = 1;
nodes = (
(335,631,l),
(189,231,l),
(481,231,l)
);
},
{
closed = 1;
nodes = (
(339,773,o),
(306,845,o),
(273,845,cs),
(242,845,o),
(243,799,o),
(243,778,c),
(174,778,l),
(174,843,o),
(194,908,o),
(274,908,cs),
(340,908,o),
(373,835,o),
(406,835,cs),
(439,835,o),
(437,881,o),
(437,903,c),
(507,903,l),
(504,839,o),
(486,773,o),
(405,773,cs)
);
}
);
width = 670;
}
);
leftKerningGroup = _kern30;
rightKerningGroup = _kern30;
unicode = 195;
},
{
glyphname = Egrave;
layers = (
{
layerId = "AC606F0E-1AFD-480C-9187-DA0D7DF61F73";
name = img;
width = 610;
},
{
layerId = "1EFDAA9E-0693-44A2-9347-F36F1AB053F3";
shapes = (
{
closed = 1;
nodes = (
(87,707,l),
(562,707,l),
(562,628,l),
(174,628,l),
(174,390,l),
(523,390,l),
(523,310,l),
(174,310,l),
(174,79,l),
(562,79,l),
(562,0,l),
(87,0,l)
);
},
{
closed = 1;
nodes = (
(316,786,l),
(216,927,l),
(308,927,l),
(393,786,l)
);
}
);
width = 610;
}
);
unicode = 200;
},
{
glyphname = Eacute;
layers = (
{
layerId = "AC606F0E-1AFD-480C-9187-DA0D7DF61F73";
name = img;
width = 610;
},
{
layerId = "1EFDAA9E-0693-44A2-9347-F36F1AB053F3";
shapes = (
{
closed = 1;
nodes = (
(87,707,l),
(562,707,l),
(562,628,l),
(174,628,l),
(174,390,l),
(523,390,l),
(523,310,l),
(174,310,l),
(174,79,l),
(562,79,l),
(562,0,l),
(87,0,l)
);
},
{
closed = 1;
nodes = (
(358,927,l),
(450,927,l),
(350,786,l),
(273,786,l)
);
}
);
width = 610;
}
);
unicode = 201;
},
{
glyphname = agrave;
layers = (
{
layerId = "AC606F0E-1AFD-480C-9187-DA0D7DF61F73";
name = img;
width = 555;
},
{
layerId = "1EFDAA9E-0693-44A2-9347-F36F1AB053F3";
shapes = (
{
closed = 1;
nodes = (
(414,67,l),
(369,6,o),
(294,-6,o),
(236,-6,cs),
(140,-6,o),
(49,45,o),
(49,150,cs),
(49,271,o),
(144,309,o),
(252,309,cs),
(407,309,l),
(407,398,o),
(372,457,o),
(280,457,cs),
(224,457,o),
(178,440,o),
(162,397,c),
(71,397,l),
(89,492,o),
(190,533,o),
(280,533,c),
(359,534,o),
(412,505,o),
(445,463,cs),
(478,421,o),
(490,360,o),
(490,285,cs),
(490,0,l),
(419,0,l)
);
},
{
closed = 1;
nodes = (
(314,238,l),
(282,239,o),
(237,241,o),
(198,232,cs),
(159,223,o),
(134,197,o),
(134,156,cs),
(134,96,o),
(187,69,o),
(244,69,cs),
(344,69,o),
(406,119,o),
(407,212,c),
(407,238,l)
);
},
{
closed = 1;
nodes = (
(274,628,l),
(174,769,l),
(266,769,l),
(351,628,l)
);
}
);
width = 555;
}
);
leftKerningGroup = _kern27;
rightKerningGroup = _kern27;
unicode = 224;
},
{
glyphname = aacute;
layers = (
{
layerId = "AC606F0E-1AFD-480C-9187-DA0D7DF61F73";
name = img;
width = 555;
},
{
layerId = "1EFDAA9E-0693-44A2-9347-F36F1AB053F3";
shapes = (
{
closed = 1;
nodes = (
(414,67,l),
(369,6,o),
(294,-6,o),
(236,-6,cs),
(140,-6,o),
(49,45,o),
(49,150,cs),
(49,271,o),
(144,309,o),
(252,309,cs),
(407,309,l),
(407,398,o),
(372,457,o),
(280,457,cs),
(224,457,o),
(178,440,o),
(162,397,c),
(71,397,l),
(89,492,o),
(190,532,o),
(280,533,cs),
(359,533,o),
(412,505,o),
(445,463,cs),
(478,421,o),
(490,360,o),
(490,285,cs),
(490,0,l),
(419,0,l)
);
},
{
closed = 1;
nodes = (
(314,238,l),
(282,239,o),
(237,241,o),
(198,232,cs),
(159,223,o),
(134,197,o),
(134,156,cs),
(134,96,o),
(187,69,o),
(244,69,cs),
(344,69,o),
(406,119,o),
(407,212,c),
(407,238,l)
);
},
{
closed = 1;
nodes = (
(309,769,l),
(401,769,l),
(301,628,l),
(224,628,l)
);
}
);
width = 555;
}
);
leftKerningGroup = _kern27;
rightKerningGroup = _kern27;
unicode = 225;
},
{
glyphname = Igrave;
layers = (
{
layerId = "AC606F0E-1AFD-480C-9187-DA0D7DF61F73";
name = img;
width = 261;
},
{
layerId = "1EFDAA9E-0693-44A2-9347-F36F1AB053F3";
shapes = (
{
closed = 1;
nodes = (
(174,0,l),
(87,0,l),
(87,707,l),
(174,707,l)
);
},
{
closed = 1;
nodes = (
(110,786,l),
(10,927,l),
(102,927,l),
(187,786,l)
);
}
);
width = 261;
}
);
leftKerningGroup = _kern1;
rightKerningGroup = _kern2;
unicode = 204;
},
{
glyphname = Iacute;
layers = (
{
layerId = "AC606F0E-1AFD-480C-9187-DA0D7DF61F73";
name = img;
width = 261;
},
{
layerId = "1EFDAA9E-0693-44A2-9347-F36F1AB053F3";
shapes = (
{
closed = 1;
nodes = (
(174,0,l),
(87,0,l),
(87,707,l),
(174,707,l)
);
},
{
closed = 1;
nodes = (
(165,927,l),
(257,927,l),
(157,786,l),
(80,786,l)
);
}
);
width = 261;
}
);
leftKerningGroup = _kern1;
rightKerningGroup = _kern2;
unicode = 205;
},
{
glyphname = Ntilde;
layers = (
{
layerId = "AC606F0E-1AFD-480C-9187-DA0D7DF61F73";
name = img;
width = 741;
},
{
layerId = "1EFDAA9E-0693-44A2-9347-F36F1AB053F3";
shapes = (
{
closed = 1;
nodes = (
(87,0,l),
(87,707,l),
(198,707,l),
(567,118,l),
(567,707,l),
(654,707,l),
(654,0,l),
(545,0,l),
(174,587,l),
(174,0,l)
);
},
{
closed = 1;
nodes = (
(369,773,o),
(336,845,o),
(303,845,cs),
(272,845,o),
(273,799,o),
(273,778,c),
(204,778,l),
(204,843,o),
(224,908,o),
(304,908,cs),
(370,908,o),
(403,835,o),
(436,835,cs),
(469,835,o),
(467,881,o),
(467,903,c),
(537,903,l),
(534,839,o),
(516,773,o),
(435,773,cs)
);
}
);
width = 741;
}
);
leftKerningGroup = _kern1;
rightKerningGroup = _kern2;
unicode = 209;
},
